<?xml version="1.0" encoding="utf-8"?>
<!-- Generator: Adobe Illustrator 19.0.0, SVG Export Plug-In . SVG Version: 6.00 Build 0)  -->
<svg version="1.1" id="Layer_1" xmlns="http://www.w3.org/2000/svg" xmlns:xlink="http://www.w3.org/1999/xlink" x="0px" y="0px"
	 viewBox="0 0 90 70" style="enable-background:new 0 0 90 70;" xml:space="preserve">
<style type="text/css">
	.st0{fill:none;stroke:#000000;stroke-miterlimit:10;}
	.st1{fill:#F78620;stroke:#F78620;stroke-miterlimit:10;}
	.st2{fill:url(#SVGID_1_);stroke:#F78620;stroke-miterlimit:10;}
	.st3{fill:url(#SVGID_2_);stroke:#F78620;stroke-miterlimit:10;}
	.st4{fill:url(#SVGID_3_);stroke:#F78620;stroke-miterlimit:10;}
</style>
<path class="st0" d="M-30.7-12.6"/>
<path class="st0" d="M81,54.8"/>
<polygon class="st1" points="2.4,3.1 28.6,68.1 34.7,68.1 9.4,3.1 "/>
<polygon class="st1" points="11.2,3.1 36.7,68.1 42.7,68.1 18,3.1 "/>
<polygon class="st1" points="19.9,3.1 44.5,68.1 50.2,68.1 26.5,3.1 "/>
<polygon class="st1" points="28.4,3.1 52.3,68.1 57.8,68.1 34.8,3.1 "/>
<polygon class="st1" points="47.8,32.6 58.1,3.1 88.8,3.1 63.3,68.1 60,68.1 "/>
<path class="st1" d="M2,3.1"/>
<linearGradient id="SVGID_1_" gradientUnits="userSpaceOnUse" x1="2" y1="3.0833" x2="2" y2="3.0833">
	<stop  offset="0" style="stop-color:#FFFFFF"/>
	<stop  offset="1" style="stop-color:#000000"/>
</linearGradient>
<path class="st2" d="M2,3.1"/>
<linearGradient id="SVGID_2_" gradientUnits="userSpaceOnUse" x1="2.413" y1="0" x2="2.413" y2="0">
	<stop  offset="0" style="stop-color:#FFFFFF"/>
	<stop  offset="1" style="stop-color:#000000"/>
</linearGradient>
<path class="st3" d="M2.4,0"/>
<linearGradient id="SVGID_3_" gradientUnits="userSpaceOnUse" x1="11.5" y1="0" x2="11.5" y2="0">
	<stop  offset="0" style="stop-color:#FFFFFF"/>
	<stop  offset="1" style="stop-color:#000000"/>
</linearGradient>
<path class="st4" d="M11.5,0"/>
</svg>
