<?xml version="1.0" standalone="no"?>
<!DOCTYPE svg PUBLIC "-//W3C//DTD SVG 20010904//EN"
 "http://www.w3.org/TR/2001/REC-SVG-20010904/DTD/svg10.dtd">
<svg version="1.0" xmlns="http://www.w3.org/2000/svg"
 width="89.000000pt" height="107.000000pt" viewBox="0 0 89.000000 107.000000"
 preserveAspectRatio="xMidYMid meet">

<g transform="translate(0.000000,107.000000) scale(0.100000,-0.100000)"
fill="#000000" stroke="none">
<path d="M90 863 c43 -109 102 -258 131 -330 l52 -133 35 0 c18 0 32 4 30 9
-1 5 -59 153 -128 330 l-124 321 -37 0 -37 0 78 -197z"/>
<path d="M104 1043 c4 -10 61 -159 128 -330 l121 -313 33 0 34 0 -27 73 c-15
39 -70 187 -123 327 l-97 255 -38 3 c-33 3 -37 1 -31 -15z"/>
<path d="M190 1051 c0 -11 237 -642 244 -648 2 -2 18 -3 34 -1 l30 3 -77 210
c-43 116 -97 263 -120 328 l-43 117 -34 0 c-19 0 -34 -4 -34 -9z"/>
<path d="M275 1043 c4 -10 58 -157 120 -326 62 -169 115 -310 118 -313 3 -3
18 -4 34 -2 l30 3 -116 327 -116 328 -39 0 c-32 0 -37 -3 -31 -17z"/>
<path d="M522 913 c-29 -82 -52 -155 -52 -163 0 -8 27 -89 59 -180 45 -128 63
-166 77 -168 16 -2 39 48 151 328 l131 330 -157 0 -156 0 -53 -147z"/>
<path d="M14 263 c42 -113 52 -133 69 -133 9 0 21 10 26 22 5 13 18 47 30 76
l21 52 -24 0 c-20 0 -27 -8 -39 -42 l-14 -43 -13 43 c-11 34 -18 42 -38 42
-19 0 -23 -4 -18 -17z"/>
<path d="M190 205 c0 -68 2 -75 20 -75 18 0 20 7 20 75 0 68 -2 75 -20 75 -18
0 -20 -7 -20 -75z"/>
<path d="M291 254 c-44 -56 -10 -124 61 -124 41 0 71 26 48 40 -8 5 -26 6 -41
3 -20 -4 -30 0 -38 15 -15 28 8 57 39 49 13 -3 30 -1 37 5 21 17 -4 38 -47 38
-30 0 -43 -6 -59 -26z"/>
<path d="M430 260 c0 -13 7 -20 20 -20 18 0 20 -7 20 -55 0 -48 2 -55 20 -55
18 0 20 7 20 55 0 48 2 55 20 55 13 0 20 7 20 20 0 18 -7 20 -60 20 -53 0 -60
-2 -60 -20z"/>
<path d="M591 254 c-27 -34 -27 -64 0 -98 16 -20 29 -26 60 -26 50 0 79 27 79
75 0 48 -29 75 -79 75 -31 0 -44 -6 -60 -26z m94 -33 c10 -31 -5 -52 -34 -49
-26 3 -38 26 -27 54 8 21 53 18 61 -5z"/>
<path d="M770 205 c0 -67 2 -75 19 -75 14 0 21 8 23 28 l4 27 14 -27 c9 -19
21 -28 37 -28 28 0 28 3 6 37 -13 19 -14 28 -5 31 15 5 16 54 0 70 -7 7 -31
12 -55 12 l-43 0 0 -75z m65 25 c-3 -5 -10 -10 -16 -10 -5 0 -9 5 -9 10 0 6 7
10 16 10 8 0 12 -4 9 -10z"/>
<path d="M28 69 c-33 -19 -15 -69 23 -69 10 0 21 5 25 12 5 8 2 9 -11 5 -22
-9 -46 9 -38 29 3 8 14 14 25 14 10 0 16 5 13 10 -8 12 -15 12 -37 -1z"/>
<path d="M110 66 c-16 -21 -9 -60 13 -64 41 -8 64 48 28 68 -25 13 -26 13 -41
-4z m46 -17 c8 -14 -21 -43 -35 -35 -19 12 -13 46 8 46 11 0 23 -5 27 -11z"/>
<path d="M526 64 c-19 -19 -20 -36 -4 -52 15 -15 45 -16 53 -2 4 6 -4 9 -17 7
-17 -1 -24 4 -26 21 -3 18 1 22 25 22 22 0 25 2 13 10 -20 13 -26 12 -44 -6z"/>
<path d="M688 69 c-35 -20 -11 -75 29 -67 22 4 29 43 13 64 -14 16 -19 17 -42
3z m42 -29 c0 -24 -26 -38 -42 -22 -16 16 -2 42 22 42 13 0 20 -7 20 -20z"/>
<path d="M853 73 c-18 -7 -16 -32 2 -39 8 -4 15 -10 15 -15 0 -4 -7 -5 -17 -2
-11 4 -14 3 -9 -5 9 -15 33 -15 42 0 4 6 -3 19 -16 30 l-22 18 21 0 c12 0 19
5 16 10 -7 11 -13 11 -32 3z"/>
<path d="M201 33 c1 -33 2 -35 8 -13 l7 25 15 -22 c20 -33 29 -28 28 15 -1 32
-2 34 -8 12 l-7 -25 -15 23 c-20 32 -29 27 -28 -15z"/>
<path d="M287 62 c6 -4 13 -21 16 -37 l4 -30 2 32 c0 17 7 34 14 36 6 3 -1 6
-18 6 -16 0 -25 -3 -18 -7z"/>
<path d="M361 33 c1 -21 3 -30 6 -20 4 17 7 17 21 4 16 -14 17 -12 19 19 1 30
-1 34 -23 34 -21 0 -24 -4 -23 -37z m29 23 c0 -3 -4 -8 -10 -11 -5 -3 -10 -1
-10 4 0 6 5 11 10 11 6 0 10 -2 10 -4z"/>
<path d="M440 40 c-7 -17 -10 -33 -6 -37 3 -3 6 -1 6 5 0 7 9 12 20 12 11 0
20 -5 20 -12 0 -6 3 -8 6 -5 8 8 -15 67 -26 67 -4 0 -13 -14 -20 -30z"/>
<path d="M607 62 c6 -4 13 -21 16 -37 l4 -30 2 32 c0 17 7 34 14 36 6 3 -1 6
-18 6 -16 0 -25 -3 -18 -7z"/>
<path d="M771 33 c1 -21 3 -30 6 -20 4 17 6 17 21 3 16 -13 17 -12 17 17 0 26
-5 33 -22 35 -21 3 -23 -1 -22 -35z m29 23 c0 -3 -4 -8 -10 -11 -5 -3 -10 -1
-10 4 0 6 5 11 10 11 6 0 10 -2 10 -4z"/>
</g>
</svg>
