<?xml version="1.0" encoding="utf-8"?>
<!-- Generator: Adobe Illustrator 19.0.0, SVG Export Plug-In . SVG Version: 6.00 Build 0)  -->
<svg version="1.1" id="ee68b97f-fc10-400d-a2ff-be2b67d80654"
	 xmlns="http://www.w3.org/2000/svg" xmlns:xlink="http://www.w3.org/1999/xlink" x="0px" y="0px" viewBox="-19 -173 975 774"
	 style="enable-background:new -19 -173 975 774;" xml:space="preserve">
<style type="text/css">
	.st0{fill:#F78620;}
	.st1{fill:#F2F2F2;}
	.st2{fill:#3F3D56;}
	.st3{fill:#2F2E41;}
	.st4{opacity:0.1;enable-background:new    ;}
	.st5{fill:#575A89;}
	.st6{fill:#A0616A;}
</style>
<title>road sign</title>
<circle class="st0" cx="502" cy="-73" r="64"/>
<path class="st1" d="M309.3,235c0,123.6-73.5,166.8-164.1,166.8S-19,358.6-19,235S145.1-45.8,145.1-45.8S309.3,111.4,309.3,235z"/>
<polygon class="st2" points="139.2,382.9 140.8,279.4 210.8,151.4 141.1,263.2 141.9,216.7 190.1,124.1 142.1,204.4 142.1,204.4 
	143.4,120.7 195,47 143.6,107.6 144.5,-45.8 139.1,157.2 139.6,148.9 87.1,68.5 138.7,164.9 133.8,258.4 133.7,255.9 73.2,171.3 
	133.5,264.7 132.9,276.3 132.8,276.5 132.8,277.5 120.4,514.5 137,514.5 139,392.1 199.2,299 "/>
<path class="st1" d="M795.6,170.2c0,151-89.8,203.7-200.5,203.7s-200.5-52.7-200.5-203.7S595.1-173,595.1-173
	S795.6,19.2,795.6,170.2z"/>
<polygon class="st2" points="587.8,350.8 589.9,224.4 675.3,68.1 590.2,204.6 591.1,147.8 650,34.6 591.4,132.7 591.4,132.7 
	593,30.5 656.1,-59.5 593.3,14.5 594.3,-173 587.8,75.1 588.3,64.9 524.2,-33.3 587.3,84.6 581.3,198.7 581.2,195.7 507.2,92.4 
	580.9,206.4 580.2,220.6 580.1,220.9 580.1,222 565,511.6 585.2,511.6 587.6,362 661.2,248.3 "/>
<ellipse class="st2" cx="381" cy="512" rx="308" ry="11"/>
<ellipse class="st2" cx="814" cy="587.5" rx="142" ry="13.5"/>
<rect x="363" y="174" class="st3" width="36" height="338"/>
<polygon class="st2" points="546,251 325,251 325,189 546,189 610,220 "/>
<polygon class="st4" points="546,246 325,246 325,251 546,251 610,220 604.8,217.5 "/>
<polygon class="st2" points="217,333 438,333 438,271 217,271 153,302 "/>
<polygon class="st4" points="158.1,299.5 153,302 217,333 438,333 438,328 217,328 "/>
<rect x="449" y="201" class="st0" width="38" height="38"/>
<circle class="st0" cx="296" cy="302" r="19"/>
<circle class="st3" cx="381" cy="218" r="11"/>
<circle class="st3" cx="381" cy="300" r="11"/>
<path class="st0" d="M307,474.3c0,22.5-13.4,30.3-29.8,30.3c-0.4,0-0.8,0-1.1,0c-0.8,0-1.5-0.1-2.3-0.1
	c-14.9-1.1-26.4-9.3-26.4-30.2c0-21.6,27.6-48.9,29.7-50.9l0,0c0.1-0.1,0.1-0.1,0.1-0.1S307,451.9,307,474.3z"/>
<path class="st2" d="M276,501.2L287,486L276,502.9l0,1.8c-0.8,0-1.5-0.1-2.3-0.1l1.2-22.5l0-0.2l0,0l0.1-2.1l-11-17l11,15.4l0,0.5
	l0.9-17l-9.4-17.5l9.5,14.5l0.9-35.2l0-0.1v0.1l-0.2,27.8l9.3-11l-9.4,13.4l-0.2,15.2l8.7-14.6l-8.8,16.8l-0.1,8.5l12.7-20.3
	l-12.7,23.3L276,501.2z"/>
<path class="st5" d="M768,562.9c0,0-14.2,11.9-21.6,11.2s-21.6-0.7-15.6,7.5c6,8.2,30.6,12.7,41,13.4s33.5,1.5,32-3
	c-1.5-4.5-3-25.3-8.9-26.8C788.9,563.7,768,562.9,768,562.9z"/>
<path class="st5" d="M849.3,551.2c0,0-10.4,15.3-17.8,16.6c-7.4,1.3-21,5.1-13.1,11.4c7.9,6.3,32.8,4,43.1,1.9s32.7-7.6,30.1-11.5
	s-9.7-23.6-15.8-23.4S849.3,551.2,849.3,551.2z"/>
<path class="st3" d="M759.7,332.5c0,0-9.6,65.7-7.4,77.6c2.2,11.9,3.7,30.6,3.7,30.6s-1.5,15.6,0,23.1c1.5,7.5,10.4,78.2,10.4,79.7
	s-1.5,6,0,9.7c1.5,3.7,4.5,0.7,0,6.7c-4.5,6-1.5,7.5-0.7,7.5c0.7,0,29.8,3,31.3,0s-0.7-3.7,0-7.5s1.5-4.5,3-5.2
	c1.5-0.7,4.5,0.7,2.2-3s-7.5-8.2-6-10.4c1.5-2.2-0.7-18.6-0.7-18.6s-1.5-36.5-2.2-58.9s6.7-45.5,6.7-45.5
	c0.9,18.3,7.7,35.8,19.4,49.9c19.4,23.1,29.1,66.3,29.1,66.3s4.5,6.7,2.2,12.7s-8.9,2.2-2.2,6s29.8-1.5,32-3.7
	c2.2-2.2-3-5.2-1.5-11.2c1.5-6,7.5-4.5,2.2-7.5c-5.2-3-6.7-2.2-6.7-5.2s-13.4-67.8-34.3-86.4l-1.5-67.8c0,0,18.6-47.7-0.7-52.2
	C818.7,314.8,759.7,332.5,759.7,332.5z"/>
<path class="st6" d="M773.2,156c0,0,12.7,31.3,9.7,35.8s36.5-14.9,36.5-14.9s-12.7-31.3-12.7-35S773.2,156,773.2,156z"/>
<circle class="st6" cx="782.5" cy="136.3" r="27.6"/>
<path class="st0" d="M819.4,164.2c0,0-19.4-2.2-29.1,9.7c-9.7,11.9-11.2,14.9-11.2,14.9s-23.1,37.3-18.6,55.9c1.1,1.7,2.1,3.4,3,5.2
	c1.5,3,1.5,44.7,0,51.4c-1.5,6.7-3,8.9-1.5,18.6c1.5,9.7-11.9,25.3,3.7,28.3c15.6,3,27.6,0.7,32.8-6c5.2-6.7,0.7-11.2,17.1-11.2
	s26.8-11.2,26.8-11.2s-8.2-8.9-5.2-10.4s0-5.2-1.5-8.9c-1.5-3.7-1.5-6.7,0.7-6.7c2.2,0,0.7-1.5-0.7-5.2s26.1-67.8,9.7-86.4
	c-16.4-18.6-24.6-29.1-24.6-29.1S823.9,162,819.4,164.2z"/>
<path class="st6" d="M776.9,235v32.8l-23.8,79c0,0-15.6,41,0,41c15.6,0,14.8-39.1,14.8-39.1l33.6-59.2c0,0,13.4-46.9,11.9-50.7
	C812,235,776.9,235,776.9,235z"/>
<path class="st0" d="M789.6,186.6c0,0-22.4,8.9-16.4,32.8s0,23.1,0,23.1s30.6-3,40.2,3.7l2.2-8.9
	C815.7,237.3,824.6,185.8,789.6,186.6z"/>
<path class="st3" d="M773.1,115.6c-3.5,1.2-7.4,0.6-10.3-1.6c-2.8-2.3-4-6.6-2.3-9.8c1.4-2.8,4.5-4.3,7.4-5.5
	c6.5-2.5,13.3-4.1,20.2-4.6c3.3-0.2,6.8-0.2,9.7,1.3c1.5,0.7,2.7,1.8,4.2,2.6c2.7,1.4,5.7,1.7,8.6,2.6c5.9,1.9,10.7,6.3,13.2,12.1
	c0.8,1.9,1.3,3.9,1.6,6c0.9,5.6,0.3,11.4-1.7,16.7c-3.2,8.5-9.8,15.9-10.2,24.9c-4.1-3-5.6-8.3-8.9-12.1c-2.4-2.8-5.8-4.8-9.4-5.5
	c-1-0.1-2-0.4-2.8-1c-0.6-0.7-0.9-1.5-1-2.4l-2.8-13.2c-0.6-2.7-1.3-5.6-3.5-7.2c-1.4-0.9-2.9-1.4-4.5-1.6c-3.8-0.7-7.7-1-11.7-1.1"
	/>
</svg>
