<?xml version="1.0" encoding="utf-8"?>
<!-- Generator: Adobe Illustrator 19.0.0, SVG Export Plug-In . SVG Version: 6.00 Build 0)  -->
<svg version="1.1" id="_x39_8b38715-c4ac-41e9-8897-c725e8bf1e12"
	 xmlns="http://www.w3.org/2000/svg" xmlns:xlink="http://www.w3.org/1999/xlink" x="0px" y="0px" viewBox="16 -211.8 1046.3 851.8"
	 style="enable-background:new 16 -211.8 1046.3 851.8;" xml:space="preserve">
<style type="text/css">
	.st0{opacity:0.1;fill:#F99E4D;enable-background:new    ;}
	.st1{opacity:0.1;fill:#C4CAD2;enable-background:new    ;}
	.st2{opacity:0.35;}
	.st3{opacity:0.2;fill:#C4CAD2;enable-background:new    ;}
	.st4{fill:none;stroke:#535461;stroke-width:2;stroke-miterlimit:10;}
	.st5{fill:#FAB679;}
	.st6{fill:#1C3ED3;}
	.st7{opacity:0.25;enable-background:new    ;}
	.st8{fill:#F78620;}
	.st9{fill:url(#SVGID_1_);}
	.st10{fill:#D5D7D9;}
	.st11{opacity:0.1;enable-background:new    ;}
	.st12{fill:#1B1F24;}
	.st13{opacity:0.2;fill:#1C3ED3;enable-background:new    ;}
	.st14{fill:url(#SVGID_2_);}
	.st15{fill:url(#SVGID_3_);}
	.st16{fill:url(#SVGID_4_);}
	.st17{fill:url(#SVGID_5_);}
	.st18{fill:url(#SVGID_6_);}
	.st19{fill:url(#SVGID_7_);}
	.st20{opacity:5.000000e-002;enable-background:new    ;}
	.st21{opacity:5.000000e-002;}
	.st22{fill:#FFCDD3;}
	.st23{fill:#DCE6F2;}
	.st24{fill:#363D48;}
	.st25{fill:#3E2108;}
	.st26{fill:#2B1501;}
	.st27{opacity:0.1;}
</style>
<title>taking notes</title>
<ellipse class="st0" cx="648.9" cy="622.1" rx="106.9" ry="17.9"/>
<path class="st1" d="M644.4-106.5C600.7-69.3,543.8-71.7,494.1-91s-95.5-53.7-144-78.2c-39.7-20.2-82.4-33.7-126.5-40
	c-61.8-8.6-130.8,1.9-173.9,61.9C1.8-80.4,5.5,40.2,57.3,101.6c26.4,31.2,60.9,46.5,91,70.9s58,64.9,55.4,111.9
	c-2.4,43.6-30,77-58.6,98c-22.1,16.2-49.3,33.9-52,67.5c-2.6,32.5,20.3,57.9,42.1,72.4c71.2,47.2,159,46.8,230-1.2
	c25.3-17.1,48.6-39.9,75.2-53.2c69.7-35,146.6,0.2,220.4,13.1c62.5,10.9,126.6,5.3,187.5-16.5c36.6-13.1,73.3-33.1,99-70.3
	c18.5-26.9,30.1-60.9,40.9-94.5c11.6-35.8,22.7-71.9,33.3-108.2c6.4-21.8,12.7-44,14.3-67.3c3-42.3-9.6-84-26.8-119.7
	C968.4-80.3,899.7-139.9,825.4-155s-153.1,14.4-210.8,79.1"/>
<g class="st2">
	<path class="st3" d="M517-7.7v-6.6H412.2c-4.8,0-1.9,6.7-1.9,6.7h-56.9v149.1h250V-7.7H517z"/>
</g>
<path class="st4" d="M849.4,103.5c0,0,31.5-55.8,79-71.9c19.9-6.6,37.2-19.5,49.2-36.8c5.6-8.2,10.5-17,14.5-26.1"/>
<path class="st5" d="M1021.9-41.6c-5.4,5.3-30.6,10.7-30.6,10.7s6.2-25,11.6-30.3c5.4-5.2,14-5.1,19.3,0.3
	C1027.4-55.5,1027.3-46.9,1021.9-41.6L1021.9-41.6z"/>
<path class="st5" d="M1007.7,3.6c-7.4,1.5-31.5-7.7-31.5-7.7s18.8-17.6,26.2-19.1s14.6,3.3,16,10.7C1019.9-5,1015.1,2.1,1007.7,3.6
	L1007.7,3.6L1007.7,3.6z"/>
<path class="st5" d="M955.8,52.6c-7.1-2.5-23.3-22.5-23.3-22.5s25.1-5.8,32.2-3.3c7.1,2.5,10.9,10.2,8.4,17.4
	C970.7,51.3,962.9,55.1,955.8,52.6L955.8,52.6z"/>
<path class="st5" d="M908.2,80.8c-7.4-1.2-26.8-18.2-26.8-18.2s23.8-9.9,31.2-8.7c7.4,1.2,12.5,8.3,11.2,15.7
	C922.7,77,915.6,82.1,908.2,80.8L908.2,80.8z"/>
<path class="st5" d="M955.2-23.6c0,7.5,13.6,29.4,13.6,29.4s13.7-21.8,13.7-29.4c0.2-7.5-5.7-13.8-13.3-14
	c-7.5-0.2-13.8,5.7-14,13.3C955.2-24,955.2-23.8,955.2-23.6L955.2-23.6z"/>
<path class="st5" d="M900,10.1c2.3,7.2,21.8,24,21.8,24S928.3,9.2,926,2c-1.9-7.3-9.3-11.7-16.6-9.8s-11.7,9.3-9.8,16.6
	C899.7,9.3,899.8,9.8,900,10.1L900,10.1z"/>
<path class="st6" d="M850.8,50.3c1,7.5,17.4,27.3,17.4,27.3s10.6-23.5,9.6-30.9c-0.5-7.5-7-13.2-14.6-12.7
	c-7.5,0.5-13.2,7-12.7,14.6C850.6,49.1,850.7,49.7,850.8,50.3L850.8,50.3z"/>
<path class="st7" d="M850.8,50.3c1,7.5,17.4,27.3,17.4,27.3s10.6-23.5,9.6-30.9c-0.5-7.5-7-13.2-14.6-12.7
	c-7.5,0.5-13.2,7-12.7,14.6C850.6,49.1,850.7,49.7,850.8,50.3L850.8,50.3z"/>
<path class="st4" d="M851.2,102.4c0,0,6.2-63.8,43-97.7c15.6-14.1,26.1-32.9,30-53.6c1.8-9.8,2.7-19.8,2.7-29.8"/>
<path class="st8" d="M950.1-100.2c-2.8,7-23.6,22.2-23.6,22.2s-4.5-25.4-1.7-32.4s10.8-10.4,17.8-7.6
	C949.6-115.1,952.9-107.2,950.1-100.2L950.1-100.2z"/>
<path class="st8" d="M955.4-53c-6.2,4.3-31.9,5.8-31.9,5.8s10-23.7,16.2-28.1c6.2-4.3,14.7-2.9,19,3.3S961.6-57.4,955.4-53z"/>
<path class="st8" d="M927.9,12.8c-7.5,0.6-30.4-11.1-30.4-11.1s20.6-15.4,28.1-16.1c7.5-0.6,14.1,4.9,14.7,12.5
	C940.9,5.5,935.4,12.1,927.9,12.8L927.9,12.8z"/>
<path class="st8" d="M895.8,57.8c-7.3,1.9-31.9-5.8-31.9-5.8s17.7-18.7,25-20.6s14.7,2.5,16.6,9.8C907.4,48.5,903.1,55.9,895.8,57.8
	L895.8,57.8z"/>
<path class="st8" d="M896.4-56.6c3,6.9,24.4,21.3,24.4,21.3s3.6-25.5,0.6-32.4c-3-6.9-11.1-10-18-7S893.4-63.6,896.4-56.6
	L896.4-56.6z"/>
<path class="st8" d="M859.6-3.4c5,5.7,29.6,13.1,29.6,13.1s-4.2-25.4-9.1-31.1c-5-5.7-13.6-6.2-19.3-1.3
	C855.2-17.7,854.6-9.1,859.6-3.4L859.6-3.4z"/>
<path class="st6" d="M830.9,53.2c4,6.4,27,17.9,27,17.9s0.3-25.8-3.8-32.2c-4.1-6.3-12.5-8.2-18.9-4.1
	C829.1,38.8,827.2,46.9,830.9,53.2L830.9,53.2z"/>
<path class="st4" d="M169.5,360.5c0,0-39-48.3-36.5-96.8c1.2-20.3-4.3-40.5-15.6-57.5c-5.4-8-11.5-15.5-18.3-22.4"/>
<path class="st8" d="M100.4,153.2c2.8,6.8-1.3,31.4-1.3,31.4S78.8,170.1,76,163.4c-2.8-6.7,0.4-14.5,7.2-17.3
	S97.6,146.5,100.4,153.2L100.4,153.2z"/>
<path class="st8" d="M136.1,182.2c-1.3,7.2-18.2,25.6-18.2,25.6s-9.2-23.2-7.9-30.4c1.2-7.2,8.1-12,15.3-10.8s12,8.1,10.8,15.3
	C136.2,182,136.2,182.1,136.1,182.2z"/>
<path class="st8" d="M161.7,246.5c-4.8,5.5-28.6,12.9-28.6,12.9s3.8-24.7,8.6-30.2c5-5.3,13.4-5.6,18.7-0.6
	C165.3,233.3,165.9,241.1,161.7,246.5L161.7,246.5z"/>
<path class="st6" d="M170.1,299.4c-3.8,6.3-26,17.6-26,17.6s-0.4-25,3.3-31.2c3.8-6.2,12-8.1,18.2-4.3
	C171.7,285.3,173.7,293.2,170.1,299.4z"/>
<path class="st8" d="M92.8,219.8c6.8,2.7,31.4-1.8,31.4-1.8s-14.8-20.1-21.6-22.8c-6.9-2.5-14.5,1-17,7.9
	C83.2,209.7,86.4,217,92.8,219.8z"/>
<path class="st8" d="M103.5,281.6c7.3,0.5,29.4-11.1,29.4-11.1s-20.1-14.8-27.4-15.3c-7.3-0.6-13.6,4.9-14.2,12.2
	S96.1,281.1,103.5,281.6L103.5,281.6z"/>
<path class="st8" d="M122,340.2c7.1,1.8,30.8-6,30.8-6s-17.4-17.9-24.4-19.6c-7.1-1.8-14.3,2.5-16,9.6
	C110.6,331.3,114.9,338.5,122,340.2L122,340.2z"/>
<ellipse class="st0" cx="982.5" cy="567.9" rx="79.8" ry="12.2"/>
<linearGradient id="SVGID_1_" gradientUnits="userSpaceOnUse" x1="863.4775" y1="187.1968" x2="863.4775" y2="-22.1032" gradientTransform="matrix(1 0 0 1 -76.87 -27.17)">
	<stop  offset="0" style="stop-color:#808080;stop-opacity:0.25"/>
	<stop  offset="0.54" style="stop-color:#808080;stop-opacity:0.12"/>
	<stop  offset="1" style="stop-color:#808080;stop-opacity:0.1"/>
</linearGradient>
<path class="st9" d="M819.7-25.8h-0.8c1.3-1.5,2-3,1.9-4.3l-7.6-7.6l2.9-6.5h-9.8l1.8-5.1h-5.8L738.2-28c0,0-0.1,0.9,0,2.2H697V160
	h179.2V-25.8H819.7z"/>
<rect x="698.3" y="-25.2" class="st10" width="176.5" height="183.2"/>
<path class="st11" d="M819.2-25.2C810.8-12.9,755,3.3,755,3.3l0.3-12.8H745c0.6-2.5-0.6-5.2-2.9-6.4c-3-1.6-3.3-7-3.3-9.3H819.2z"/>
<path class="st12" d="M802-48.3l-63.1,21c0,0-0.7,8.2,3.2,10.3c2.3,1.3,3.4,3.9,2.9,6.4h10.3L755,2.2c0,0,66.3-19.3,65.2-31.7
	l-7.5-7.5l2.8-6.4H806l1.8-5L802-48.3z"/>
<g class="st2">
	<rect x="730.9" y="34.2" class="st13" width="111.2" height="3.1"/>
</g>
<g class="st2">
	<rect x="730.9" y="50.7" class="st13" width="111.2" height="3.1"/>
</g>
<g class="st2">
	<rect x="730.9" y="67.1" class="st13" width="111.2" height="3.1"/>
</g>
<g class="st2">
	<rect x="730.9" y="83.6" class="st13" width="111.2" height="3.1"/>
</g>
<g class="st2">
	<rect x="730.9" y="100" class="st13" width="111.2" height="3.1"/>
</g>
<g class="st2">
	<rect x="730.9" y="116.4" class="st13" width="111.2" height="3.1"/>
</g>
<linearGradient id="SVGID_2_" gradientUnits="userSpaceOnUse" x1="287.5775" y1="184.7968" x2="287.5775" y2="-37.1032" gradientTransform="matrix(1 0 0 1 -76.87 -27.17)">
	<stop  offset="0" style="stop-color:#808080;stop-opacity:0.25"/>
	<stop  offset="0.54" style="stop-color:#808080;stop-opacity:0.12"/>
	<stop  offset="1" style="stop-color:#808080;stop-opacity:0.1"/>
</linearGradient>
<path class="st14" d="M221.8-40.9h-0.4c3.2-8.1,6.1-16,6-17.5c-0.3-3-6.3,3.5-6.6,1.9s0-7.8-2.7-7.8s-4.4,3.2-6,3.2
	s-8.2-1.1-8.2-1.1l-8.4,21.3h-63.2v198.5h156.8V-40.9H221.8z"/>
<rect x="134" y="-39.8" class="st10" width="153.3" height="196.1"/>
<path class="st11" d="M221.6-39.8c-3.2,8.4-6.9,17.2-7.7,19.3c-1.6,4-2.7,1.9-4.5,1.3s-4.3,0.5-5.3,0s-7.4,0-7.4,0
	c0.1-1,0.1-2,0-2.9c-0.1-1.1-7.4,0-7.4,0l6.9-17.7C196.2-39.8,221.6-39.8,221.6-39.8z"/>
<path class="st12" d="M204-60.8l-14.7,37.7c0,0,7.2-1.1,7.4,0c0.1,1,0.1,2,0,2.9c0,0,6.3-0.5,7.4,0s3.5-0.5,5.3,0s2.9,2.7,4.5-1.3
	s13.4-32.6,13.1-35.6s-6.1,3.5-6.4,1.9s0-7.7-2.7-7.7s-4.3,3.2-5.9,3.2S204-60.8,204-60.8z"/>
<g class="st2">
	<rect x="155" y="12.3" class="st13" width="111.2" height="3.1"/>
</g>
<g class="st2">
	<rect x="155" y="24" class="st13" width="111.2" height="3.1"/>
</g>
<g class="st2">
	<rect x="155" y="35.8" class="st13" width="111.2" height="3.1"/>
</g>
<g class="st2">
	<rect x="155" y="47.6" class="st13" width="111.2" height="3.1"/>
</g>
<g class="st2">
	<rect x="155" y="59.3" class="st13" width="111.2" height="3.1"/>
</g>
<g class="st2">
	<rect x="155" y="71.1" class="st13" width="111.2" height="3.1"/>
</g>
<linearGradient id="SVGID_3_" gradientUnits="userSpaceOnUse" x1="863.4775" y1="524.6968" x2="863.4775" y2="250.8968" gradientTransform="matrix(1 0 0 1 -76.87 -27.17)">
	<stop  offset="0" style="stop-color:#808080;stop-opacity:0.25"/>
	<stop  offset="0.54" style="stop-color:#808080;stop-opacity:0.12"/>
	<stop  offset="1" style="stop-color:#808080;stop-opacity:0.1"/>
</linearGradient>
<path class="st15" d="M800.3,252.6h-0.4c3.9-10,7.5-19.8,7.3-21.6c-0.3-3.7-7.7,4.3-8,2.3s0-9.6-3.3-9.6s-5.4,4-7.4,4
	s-10.1-1.3-10.1-1.3L768,252.6h-77.5v244.9h192.2V252.6H800.3z"/>
<rect x="692.1" y="254.3" class="st10" width="188.9" height="241.6"/>
<path class="st11" d="M799.9,254.3c-3.9,10.3-8.4,21-9.4,23.6c-2,4.9-3.3,2.3-5.6,1.7s-5.3,0.7-6.6,0s-9.1,0-9.1,0
	c0.1-1.2,0.1-2.4,0-3.6c-0.2-1.3-9.1,0-9.1,0l8.4-21.6L799.9,254.3z"/>
<path class="st12" d="M778.3,228.4l-18.1,46.4c0,0,8.9-1.3,9.1,0c0.1,1.2,0.1,2.4,0,3.6c0,0,7.7-0.7,9.1,0s4.3-0.7,6.6,0
	s3.6,3.3,5.6-1.6s16.5-40.2,16.1-43.8s-7.6,4.3-7.9,2.3s0-9.5-3.3-9.5s-5.3,3.9-7.3,3.9S778.3,228.4,778.3,228.4z"/>
<g class="st2">
	<rect x="730.9" y="321.8" class="st13" width="111.2" height="7.9"/>
</g>
<g class="st2">
	<rect x="730.9" y="373.3" class="st13" width="111.2" height="7.9"/>
</g>
<g class="st2">
	<rect x="730.9" y="424.8" class="st13" width="111.2" height="7.9"/>
</g>
<linearGradient id="SVGID_4_" gradientUnits="userSpaceOnUse" x1="227.6075" y1="495.5869" x2="227.6075" y2="232.9868" gradientTransform="matrix(1 0 0 1 0 -1.5601)">
	<stop  offset="0" style="stop-color:#808080;stop-opacity:0.25"/>
	<stop  offset="0.54" style="stop-color:#808080;stop-opacity:0.12"/>
	<stop  offset="1" style="stop-color:#808080;stop-opacity:0.1"/>
</linearGradient>
<polygon class="st16" points="254,261 254,231.4 212.5,231.4 212.5,261 125.8,261 125.8,494 329.4,494 329.4,261 "/>
<rect x="127.9" y="262.2" class="st10" width="199.3" height="230.3"/>
<rect x="212.8" y="262.2" class="st11" width="40.6" height="31.4"/>
<rect x="212.8" y="232.9" class="st12" width="40.6" height="59.5"/>
<g class="st2">
	<rect x="172" y="317.9" class="st13" width="111.2" height="7.9"/>
</g>
<g class="st2">
	<rect x="172" y="333.6" class="st13" width="111.2" height="7.9"/>
</g>
<g class="st2">
	<rect x="172" y="349.4" class="st13" width="111.2" height="7.9"/>
</g>
<g class="st2">
	<rect x="172" y="365.2" class="st13" width="111.2" height="7.9"/>
</g>
<g class="st2">
	<rect x="253.4" y="382.7" class="st13" width="29.8" height="24.1"/>
</g>
<g class="st2">
	<rect x="172" y="412.5" class="st13" width="29.8" height="24.1"/>
</g>
<linearGradient id="SVGID_5_" gradientUnits="userSpaceOnUse" x1="586.6775" y1="521.1968" x2="586.6775" y2="260.446" gradientTransform="matrix(1 0 0 1 -76.87 -27.17)">
	<stop  offset="0" style="stop-color:#808080;stop-opacity:0.25"/>
	<stop  offset="0.54" style="stop-color:#808080;stop-opacity:0.12"/>
	<stop  offset="1" style="stop-color:#808080;stop-opacity:0.1"/>
</linearGradient>
<path class="st17" d="M539.9,260.6h-0.3c3.2-12.7,5.7-22.8,5.7-22.8l-13.8,6.5c0,0-9.8-13-13.4-10.8s-11.6,7.6-11.6,7.6l-10.6-5.4
	l-4,24.9h-83.6v179.9l5.4,3.2c4.4-1.6,11.7-4.3,11.7-4.3l-3.4,9.3l2.3,1.3l3.8-3.5l1.4,6.6l4.5,2.7l7.1-4.5l-2,7.7l6.7,4l19.5-7.3
	l-5.9,15.5l3.9,2.3l8.8-1.5c0,0-0.4,3.1-0.7,6.4l8.9,5.3c3.6-1.4,7-2.8,7-2.8s-0.3,3.4-0.5,6.7l5.9,3.6c4.7-2.7,10.7-6.5,10.7-6.5
	l-5,9.3h112.9V260.6H539.9z"/>
<path class="st10" d="M609.2,262.2v230.3H498.5l4.9-9.2c0,0-5.8,3.7-10.5,6.4l-5.8-3.5c0.2-3.3,0.5-6.6,0.5-6.6s-3.4,1.4-6.9,2.8
	l-8.7-5.2c0.3-3.3,0.6-6.3,0.6-6.3l-8.7,1.5l-3.8-2.3l5.8-15.3l-19.1,7.2l-6.6-4l1.9-7.6l-7,4.5l-4.4-2.7l-1.4-6.5l-3.7,3.4
	l-2.2-1.3l3.3-9.2c0,0-7.1,2.7-11.5,4.2l-5.3-3.2V262.2H609.2z"/>
<g class="st2">
	<rect x="453.9" y="333.6" class="st13" width="111.2" height="7.9"/>
</g>
<g class="st2">
	<rect x="453.9" y="357.3" class="st13" width="111.2" height="7.9"/>
</g>
<g class="st2">
	<rect x="453.9" y="381" class="st13" width="111.2" height="7.9"/>
</g>
<g class="st2">
	<rect x="453.9" y="404.8" class="st13" width="22.3" height="7.9"/>
</g>
<path class="st11" d="M539,262.2c-5.4,21.4-13.3,51-15.4,50.5c-3.2-0.9-8.2-7-8.2-7s-11.8,11-17.5,5.3s-13.5-1.8-13.5-1.8l7.6-47
	H539z"/>
<path class="st12" d="M495.8,237.6l-11.4,70.6c0,0,7.8-3.9,13.5,1.8s17.5-5.4,17.5-5.4s5,6.1,8.2,7s20.7-71.9,20.7-71.9l-13.5,6.4
	c0,0-9.6-12.8-13.2-10.7s-11.4,7.5-11.4,7.5L495.8,237.6z"/>
<linearGradient id="SVGID_6_" gradientUnits="userSpaceOnUse" x1="626.7275" y1="107.7968" x2="626.7275" y2="-49.9032" gradientTransform="matrix(1 0 0 1 -76.87 -27.17)">
	<stop  offset="0" style="stop-color:#808080;stop-opacity:0.25"/>
	<stop  offset="0.54" style="stop-color:#808080;stop-opacity:0.12"/>
	<stop  offset="1" style="stop-color:#808080;stop-opacity:0.1"/>
</linearGradient>
<path class="st18" d="M589-70.3v-6.8H482.9c-4.9,0-1.9,6.8-1.9,6.8h-57.7V80.6h253.1v-151L589-70.3z"/>
<rect x="425" y="-69.6" class="st10" width="250" height="149.2"/>
<path class="st11" d="M588.6-45.3h-99.2c0,0-1.1-11.5,2.4-13.6s-9.9-9.6-9.9-9.6c-0.1-0.3-0.3-0.7-0.4-1.1h107.1v3.5
	C588.6-66.1,602.2-54.1,588.6-45.3z"/>
<path class="st12" d="M483.8-76.3h104.8v9.1c0,0,13.6,12,0,20.9h-99.2c0,0-1.1-11.5,2.4-13.6s-9.9-9.6-9.9-9.6S479-76.3,483.8-76.3z
	"/>
<g class="st2">
	<rect x="455.7" y="-22.8" class="st13" width="188.6" height="3.1"/>
</g>
<g class="st2">
	<rect x="455.7" y="-11.1" class="st13" width="112.6" height="3.1"/>
</g>
<g class="st2">
	<rect x="455.7" y="0.7" class="st13" width="188.6" height="3.1"/>
</g>
<g class="st2">
	<rect x="455.7" y="12.5" class="st13" width="188.6" height="3.1"/>
</g>
<g class="st2">
	<rect x="455.7" y="24.2" class="st13" width="188.6" height="3.1"/>
</g>
<linearGradient id="SVGID_7_" gradientUnits="userSpaceOnUse" x1="641.5913" y1="659.9636" x2="641.5913" y2="-8.0085" gradientTransform="matrix(1 0 0 1 -76.87 -27.17)">
	<stop  offset="0" style="stop-color:#808080;stop-opacity:0.25"/>
	<stop  offset="0.54" style="stop-color:#808080;stop-opacity:0.12"/>
	<stop  offset="1" style="stop-color:#808080;stop-opacity:0.1"/>
</linearGradient>
<path class="st19" d="M721.8,618.9c-1.8-7.6-2.9-14.3-2.9-14.3s0.4-8.3-3.3-14.5V588l0,0v-15.3c1.1-2.8,2.3-5.4,3.9-8
	c2.8-4.8,0-22.5,0-22.5s-10.2-24.9-7.7-40.6c2.5-15.7-21-70-21-70c0.1-5.2,0.9-10.4,2.2-15.5c0.2-1.1,0.3-2.2,0.3-3.3
	c0-0.1,0-0.3,0-0.4v0.1c-0.3-10.4-8.6-29.9-8.6-29.9l1.1-37.2c0,0,5.3-21.9-3.3-51.3c-3-10.3-4.9-18.5-6.1-24.8
	c-0.1-0.7-0.3-1.4-0.4-2.1c17.6-2.7,31.1-4.9,31.1-4.9S696.9,219.5,690,212s-12.4-31-12.4-31s-3.6-30.2,2.2-39s6.6-24.1,6.6-24.1
	s13.3-9.6,14.9-13.9s4.4-13.9,4.4-19s-1.7-9.6-1.1-12.3s-3.9-12.8-1.7-17.6c0.6-1.5,0.9-3.1,0.9-4.6v-0.1l0,0
	c0-4.2-0.4-8.4-1.2-12.5c0,0-6-5.3-13.1-7l-0.3-1.1l-0.8-3c-0.4-0.3-0.9-0.5-1.3-0.8v-1.1l-0.1-4.3l2.1-9.8
	c4.1-17-18.6-19.5-18.6-19.5c-1.4-2.6-3.6-4.6-6.4-5.7c-4.6-1.6-0.8,25.5,1.4,27.3c1.6,1.3,6.6,9.8,8.9,14l0,0l0.4,0.7
	c-0.4,0.3-0.7,0.7-1,1.1l0.9,5.9l0.1,0.9c-1.5,1.9-2.7,3.9-3.6,6.2c0,0,4.2,4.5,3.3,9.6s1.3,11.4,1.4,11.8c-0.3-0.3-3.2-3.4-6.1-2.7
	s-11,3.2-11,3.2s-6.1,1.1-5.5,2.4s-4.2,7.2-4.2,7.2l-16.3-15.5c-0.2-0.5-0.3-0.9-0.5-1.4c-0.7-2.2-1.2-4.5-1.4-6.8
	c1.8-0.4,3.5-1,5.2-1.7c1.7-0.6,3.3-1.6,4.5-2.9c1.6-2,2-4.6,2.6-7c1.3-4.8,4.1-9,6.1-13.5c3.4-7.6,4.5-16,3.3-24.3
	c-0.3-2.5-1.1-5-2.5-7.1c-2.7-3.7-7.5-5.2-11-8.1s-5.8-7.4-9.9-9.6c-3.7-2-8.2-1.8-12.4-1.1c-8.2,1.3-16,4.2-23.2,8.4
	c-2.4,1.4-5,3-7.7,2.5c-2.3-0.4-4.1-2.3-5.6-4.1c0-0.1,0-0.2,0.1-0.2l-0.2-0.2c-1.7,3.8-2.6,8-2.5,12.2c0,0.6,0,1.3,0.1,2
	c0,0.2,0,0.5,0,0.7s0,0.4,0,0.6l0,0c0,0.3,0,0.6-0.1,0.9c-0.3,0.8-0.9,1.6-1.5,2.2c-0.5,0.6-0.9,1.2-1.3,1.8
	c0.1-0.2,0.1-0.4,0.2-0.7c-1,1.5-1.6,3.3-1.7,5.1c-0.1,1.3,0.4,2.7,1.2,3.7c0.8,0.8,1.7,1.5,2.7,2.1C575,24,580.9,37,592.2,43.6
	c0.2,0.5,0.4,0.9,0.6,1.4c2.1,5.5,3.7,11.9,3,17.8c-0.1,0.4-0.1,0.9-0.2,1.3c-0.2,0.2-0.4,0.5-0.6,0.7l0,0c0,0-27,0.3-33.3-5.5
	s-16,14-16,14s-9.7,1.9-11.6,0S520.8,73,520.8,73s-6.9-6.7-16.8-6.1c-3.8-2.9-7.9-5.2-12.4-6.9l0,0l-0.3-0.1l0,0
	c-1.9-0.7-4-1-6.1-0.8c0,0-13.3-11-17.1-16.8s-22.3-27.7-22.4-27.8l-0.1-1l-0.2-3.2c-0.5,0.1-1.1,0.1-1.6,0.1l-0.4-1.1
	c-1.1-3.1-2.4-6.1-3.9-9c0,0,0-4,1.2-5s-0.5-15.7-0.5-15.7s-12-27.9-22.6-7.1c0,0-20.2,13.5-3.3,29.2c0,0,6.8,3.3,7.7,5.9
	c0.6,1.7,2.9,6.4,4.5,9.5c0.3,0.5,0.5,1,0.7,1.4l-0.2,0.2l0.3,2.6l0.1,1c-3.2,1.8-5.4,3.6-4.8,5c0.9,2.3,1.6,4.7,1.9,7.2
	c0,0,23.5,29.4,26.5,42c0,0,63,37.4,83.7,40.1l-3.6,18.7c0,0-1.1,11.2-0.8,15.2s-2.5,22.2-2.5,22.2s-3.6,26.7-6.6,30.5
	s-2.5,19.8-2.5,19.8c-0.7,7.7-2.1,15.3-4.2,22.7c-3,10.2-0.8,22.7-0.8,22.7s-10.5,24.1,14.6,7.8c0,0,12.3-0.8,26.5-1.3
	c0,0.5,0,0.9,0,1.4c0,1.8-0.1,3.8-0.1,5.9c-0.2,13.8-0.3,32.8,0.3,47.1c1.1,25.4,8.8,75.7,8.8,75.7v25.3c-0.5,2.4-0.7,4.8-0.7,7.2
	c-0.2,8.9,2.2,17.7,6.8,25.3l1.7,16.7c0,0,4.5,11.1,4.6,17.7c0,0.5-0.1,1.1-0.2,1.6c-0.2,0.8-0.2,1.7-0.2,2.6
	c-0.3,7.7,4.3,25.9,4.3,25.9s0.3,18.5,3,19.5c2.4,0.9-3.2,10.6-4.8,13.4c0-0.2-0.1-0.3-0.1-0.5c-0.2,0.4-0.3,0.6-0.3,0.6
	c-0.6,1.5-0.9,3.1-0.9,4.7c-0.3,2.6,0.9,5.1,3.1,6.5c5.3,3.2,8.1,5.9,3.6,7c-1.6,0.3-3.3,0.6-4.9,1c-0.1-0.2-0.2-0.4-0.2-0.6
	c-1.3,0.5-2,1.9-1.8,3.2c-0.1,1.3,0.3,3.3,1.7,6.3c4.4,9.9,7.5,13.6,7.5,13.6l2.1-0.2c-0.3,0.8-0.7,1.6-1.2,2.3
	c-0.8,1.2-1.9,2.1-3.1,2.8c-1.2,0.7-2.4,1.1-3.8,1.3c-3,0.1-5.9,1.5-7.8,3.8c-2.8,3.6-4.5,8.4,1,12.7l19.8,6.8c0,0,34,4.4,32.2-3.2
	s-2.9-14.3-2.9-14.3s0.4-7.4-2.8-13.5c-0.4-0.7-0.8-1.4-1.2-2l1.2-0.1c0,0,2.5-16.8,5.8-20c0.8-0.7,0.9-1.3,0.8-1.7
	c0.3-0.9-0.5-1.5-1.6-1.8l-0.2,0.7c-1.1-0.2-2.2-0.4-3.3-0.4c0,0-1.1-8.8,2.5-12c0.6-0.7,0.8-1.7,0.7-2.6c0-1.2-0.1-2.4-0.4-3.6
	c0,0.1-0.1,0.1-0.1,0.2c-1.8-8-7.9-20.7-7.9-20.7s-0.3-8,1.9-11.2s-0.3-43.6-0.3-43.6s0.8-19.5-1.7-28.6s3-19.8,3-19.8
	s0-0.2-0.1-0.6l0.1-0.1c0,0-0.1-1.2-0.3-3.1c0,0.1-0.1,0.1-0.1,0.2c-0.5-5.2-1.6-14.5-2.4-18.8c-1.1-6.2,0.3-35.6,0.3-35.6l5-12.6
	l8.8,21.7l9.4,28.9c0,0,4.7,6.1,4.8,12.3c0,0.3,0,0.6-0.1,0.9c-0.1,0.6-0.1,1.3-0.1,1.9c-0.2,3.6,0.8,7.3,2.9,10.3
	c0,0,2.5,13.6,6.4,17.1s3.9,10.2,3.9,10.2s4.7,19.8,6.9,23.3c1.9,2.9,2,11,1.9,13.5l0,0c0,0.5,0,0.7,0,0.7s0.7,7.1,0.6,13
	c0,0.7,0,1.4-0.1,2.1v-0.2c0,1.6-0.2,3.2-0.6,4.8c0,0.1-0.1,0.2-0.1,0.3c0-0.3,0-0.7,0.1-1c-1,4-1.4,8.2-1.4,12.3
	c-0.1,7.1,1,15.5,5.3,20.5c7.5,8.6,12.2,7.5,12.2,7.5s-3.6,10.7-8,12.8c-0.2,0.1-0.3,0.2-0.5,0.3c0-0.2-0.1-0.4-0.1-0.6
	c-0.9,0.8-1.3,2.2-1.3,4c-0.3,4.7,2.6,12.3,5.5,15.8c1,1,2.3,1.8,3.7,2.2c-0.2,0.2-0.5,0.3-0.7,0.4c-0.5,0.3-1,0.5-1.5,0.7
	c-0.7,0.3-1.5,0.5-2.3,0.6c-3,0.1-5.9,1.4-7.8,3.8c-2.8,3.5-4.5,8.4,1,12.7l19.8,6.8C689.7,622.1,723.6,626.5,721.8,618.9z"/>
<path d="M592.1,631.5l-19.1-6.8c-5.3-4.3-3.6-9.1-0.9-12.7c1.9-2.3,4.6-3.7,7.6-3.8c1.3-0.2,2.5-0.6,3.7-1.3s2.2-1.6,3-2.8
	c1.4-2.2,2.2-4.8,2.2-7.4c0,0,21-6.2,26.7,0c1,1.1,1.9,2.4,2.5,3.7c3,6.1,2.7,13.5,2.7,13.5s1.1,6.7,2.8,14.3
	S592.1,631.5,592.1,631.5z"/>
<path d="M685.6,622.1l-19.1-6.8c-5.3-4.3-3.6-9.1-0.9-12.7c1.8-2.3,4.6-3.7,7.6-3.8c0.8-0.1,1.5-0.3,2.2-0.6c0.5-0.2,1-0.4,1.5-0.7
	c5.3-2.9,5.2-10.2,5.2-10.2s21-6.2,26.7,0c0.8,0.8,1.4,1.7,2,2.7c3.6,6.2,3.2,14.5,3.2,14.5s1.1,6.7,2.8,14.3
	S685.6,622.1,685.6,622.1z"/>
<path class="st11" d="M615.2,596.8c1,1.1,1.9,2.4,2.5,3.7l0,0l-31.5,3.7c1.4-2.2,2.2-4.8,2.2-7.4
	C588.4,596.7,609.4,590.6,615.2,596.8z"/>
<path class="st11" d="M710.8,590.1v5.9c-4.9,8.1-28.6,6.3-35.4,2.3c0.5-0.2,1-0.4,1.5-0.7c5.3-2.9,5.2-10.2,5.2-10.2s21-6.2,26.7,0
	C709.5,588.2,710.2,589.1,710.8,590.1z"/>
<path class="st12" d="M714.5,564.7c-1.5,2.6-2.7,5.2-3.7,8v21.1c-5.3,8.8-33.2,5.9-36.9,1.1s-7.8-17.4-3.5-19.5s7.7-12.8,7.7-12.8
	s-4.5,1.1-11.8-7.5s-5.1-27.5-3.7-32.1s0-19.8,0-19.8s0.3-10.7-1.9-14.2s-6.6-23.3-6.6-23.3s0-6.7-3.8-10.2s-6.2-17.1-6.2-17.1
	c-2.2-3.4-3.1-7.5-2.7-11.5c0.8-6.7-4.5-13.9-4.5-13.9l-9.1-28.9l-8.5-21.7l-4.8,12.6c0,0-1.3,29.4-0.3,35.6s2.7,22.5,2.7,22.5
	s-5.3,10.7-2.9,19.8s1.6,28.6,1.6,28.6s2.4,40.4,0.3,43.6s-1.9,11.2-1.9,11.2s11,23.5,7.5,26.7s-2.4,12-2.4,12s7.5,0,4.3,3.2
	s-5.6,20-5.6,20l-32.3,3.8c0,0-3-3.8-7.2-13.6s0.8-8.8,5.1-9.9s1.6-3.7-3.5-7s-2.1-10.4-2.1-10.4s7.8-13.1,5.1-14.2
	s-2.9-19.5-2.9-19.5s-5.3-21.9-4-27.8s-4.3-20-4.3-20l-1.9-16.8c-9.6-16.6-5.9-31.8-5.9-31.8v-26c0,0-7.5-50.3-8.6-75.7
	c-0.7-16.3-0.5-38.5-0.3-52.3c0.1-7.8,0.3-12.9,0.3-12.9l115.5-12c0,0-0.1,5.3,2.1,17.2c1.2,6.3,3,14.5,5.9,24.8
	c8.3,29.4,3.2,51.3,3.2,51.3l-1.1,37.1c0,0,10.2,24.9,8,33.4c-1.3,5.1-2,10.3-2.1,15.5c0,0,22.8,54.3,20.3,70.1
	c-2.5,15.8,7.5,40.6,7.5,40.6S717.2,559.8,714.5,564.7z"/>
<path class="st20" d="M648.5,425.4l35.2-4.7C683.6,420.7,663.7,441,648.5,425.4z"/>
<path class="st11" d="M678.5,386.3c0,0,1.2,12.4-6.4,17.1C672.1,403.5,685.8,401.3,678.5,386.3z"/>
<path class="st11" d="M676.4,346.8c0,0-29.4,24.2-40.1,22.2S676.4,346.8,676.4,346.8z"/>
<path class="st11" d="M604.9,436.7c0,0-22.3,5.1-23,14S604.9,436.7,604.9,436.7z"/>
<path class="st20" d="M609.8,548.2c0,0-31.5,5.9-22.6,9.9s23.7,7.2,23.7,7.2S621,565.9,609.8,548.2z"/>
<g class="st21">
	<path d="M580.8,564.5c-1.6-1-2.7-2.7-2.9-4.6l-0.3,0.6c0,0-2.9,7.2,2.1,10.4l1.7,1.1c0.9-0.2,1.9-0.3,2.9-0.5
		C588.6,570.4,585.9,567.7,580.8,564.5z"/>
	<path d="M621.5,562.3c0.9-0.8,0.8-2.8,0.3-5.5c-1.4,2.1-1.8,5.3-1.8,7.7C620.3,563.7,620.8,563,621.5,562.3z"/>
	<path d="M616.6,429.3c-1.2,3.2-1.9,6.5-2.1,9.8c0.6-2.3,1.4-4.6,2.4-6.8C616.9,432.4,616.8,431.2,616.6,429.3z"/>
	<path d="M688.8,415.3c0.2-1,0.3-1.9,0.3-2.9c-0.4,2-0.7,3.8-0.9,5.5C688.4,417,688.6,416.2,688.8,415.3z"/>
	<path d="M615.9,524.4c0.4-0.7,0.7-2.9,0.8-5.9c-1,2-1.4,5.1-1.5,7.5C615.3,525.4,615.6,524.9,615.9,524.4z"/>
	<path d="M622.5,574.8c-2.2,6-3.7,16.4-3.7,16.4l-32.3,3.7c0,0-3-3.7-7.2-13.6c-0.4-0.9-0.7-1.7-0.9-2.4c-1.9,0.9-2.7,2.9-0.2,8.8
		c4.3,9.9,7.2,13.6,7.2,13.6l32.3-3.8c0,0,2.4-16.8,5.6-20C624.9,576,623.9,575.2,622.5,574.8z"/>
	<path d="M579.8,526.8c0,0,0.3,18.5,2.9,19.5l0,0c1.3-3,2.3-6,1-6.4c-2.7-1.1-2.9-19.5-2.9-19.5s-5.3-21.9-4-27.8s-4.3-20-4.3-20
		l-1.9-16.8c-9.6-16.6-5.9-31.8-5.9-31.8v-25.9c0,0-7.5-50.3-8.6-75.7c-0.7-16.3-0.5-38.5-0.3-52.3c0-2.5,0.1-4.7,0.1-6.6l-0.9,0.1
		c0,0-0.1,5.1-0.3,12.9c-0.2,13.8-0.4,36,0.3,52.3c1.1,25.4,8.6,75.7,8.6,75.7v25.9c0,0-3.8,15.2,5.9,31.8l1.9,16.8
		c0,0,5.6,14.2,4.3,20S579.8,526.8,579.8,526.8z"/>
	<path d="M675,587.7c-2.6-3.8-4.4-8.1-5.1-12.7c-3.3,3,0.5,14.5,4,19.1c3.7,4.8,31.5,7.8,36.9-1.1v-5
		C703.5,595.2,678.5,592.3,675,587.7z"/>
	<path d="M715.6,557.5c-1.5,2.6-2.7,5.2-3.8,8v3.8c0.6-1.4,1.5-3.2,2.7-5.3c0.8-1.4,1.1-3.8,1.2-6.6L715.6,557.5z"/>
	<path d="M676.6,561.7c1-2.1,1.9-4.2,2.6-6.3c0,0-4.5,1.1-11.8-7.5c-5.3-6.2-5.5-18-4.8-25.7c-1.3,4.5-3.5,23.5,3.7,32.1
		C671.1,559.9,674.7,561.4,676.6,561.7z"/>
	<path d="M662.7,502.5c0.5,5.3,0.6,10.6,0.5,15.8c0.1-0.8,0.3-1.7,0.5-2.5c1.3-4.5,0-19.8,0-19.8s0.3-10.7-1.9-14.2
		s-6.7-23.3-6.7-23.3s0-6.7-3.7-10.2s-6.2-17.1-6.2-17.1c-2.2-3.4-3.1-7.5-2.7-11.5c0.8-6.7-4.5-13.9-4.5-13.9l-9.1-28.9l-8.5-21.7
		l-4.8,12.6c0,0-0.1,1.6-0.2,4.1l3.9-10.2l8.5,21.7l9.1,28.9c0,0,5.3,7.2,4.5,13.9c-0.5,4,0.5,8.1,2.7,11.5c0,0,2.4,13.6,6.2,17.1
		s3.8,10.2,3.8,10.2s4.5,19.8,6.7,23.3S662.7,502.5,662.7,502.5z"/>
</g>
<path class="st22" d="M685.1,10.6l-2,9.8l0.1,4.3l0.1,3.2L672.1,29l-1.3-2.3l0,0c-2.3-4.2-7.1-12.7-8.7-14
	c-2.1-1.7-5.7-28.9-1.3-27.3c2.7,1,4.9,3,6.2,5.6C667.1-8.9,689-6.4,685.1,10.6z"/>
<path class="st11" d="M683.3,27.9L672.1,29l-1.3-2.3l0,0c1.6-1.6,6.2-5.4,12.3-2L683.3,27.9z"/>
<path class="st23" d="M686.1,33.1l-14.7,3.5l-0.3-2.2l-0.8-5.9c0,0,5.8-7.8,14.2-2l0.7,3L686.1,33.1z"/>
<path class="st22" d="M447.8,11.6L432.1,20c0,0-0.6-1.2-1.4-3c-1.5-3.1-3.7-7.9-4.3-9.5c-0.9-2.6-7.5-5.9-7.5-5.9
	c-16.4-15.7,3.1-29.2,3.1-29.2c10.4-20.9,21.9,7.1,21.9,7.1s1.6,14.7,0.5,15.7s-1.1,5-1.1,5c1.5,2.9,2.8,5.9,3.8,9
	C447.6,10.7,447.8,11.6,447.8,11.6z"/>
<path class="st11" d="M447.8,11.6L432.1,20c0,0-0.6-1.2-1.4-3c2.2-1.9,10.1-8.2,12.6-7.9c1.2,0.2,2.5,0.2,3.7,0.1
	C447.6,10.7,447.8,11.6,447.8,11.6z"/>
<path class="st23" d="M449.4,16.4l-17.6,8.7l-0.4-3.8l-0.3-2.7c0,0,10.2-8.8,13.2-8.4c1.5,0.2,3.1,0.2,4.6,0l0.2,3.2L449.4,16.4z"/>
<path class="st22" d="M642.3,75.4c0,0-76.9,8.7-62.6,4c10-3.3,14-9.6,14.8-16.7c0.7-5.9-0.8-12.3-2.9-17.8
	c-1.8-4.9-4.1-9.5-6.9-13.9c0,0,58.8-32.4,47-3c-1.8,4.5-2.9,9.2-3.3,13.9c-0.4,4.8,0.2,9.5,1.5,14.1
	C632.2,63.5,636.5,70.2,642.3,75.4z"/>
<path class="st11" d="M631.9,28.1c-1.8,4.5-2.9,9.2-3.3,13.9c-5.5,4.6-11.6,4.4-19.4,4.4c-6,0-12.6,1.5-17.4-1.4
	c-1.8-4.9-4.1-9.5-6.9-13.9C584.8,31,643.7-1.3,631.9,28.1z"/>
<circle class="st22" cx="608.1" cy="16.6" r="31.8"/>
<path class="st11" d="M642.3,75.4c0,0-76.9,8.7-62.6,4c10-3.3,14-9.6,14.8-16.7c3.8-4.1,11.5-7.1,16.5-8.7c4.5-1.5,9.4-1.6,14-0.2
	c1.8,0.5,3.5,1.3,5.1,2.4C632.3,63.5,636.6,70.2,642.3,75.4z"/>
<path class="st11" d="M686.1,33.1l-14.7,3.5l-0.3-2.2c4.2-5.3,9.4-5.9,14.1-4.8L686.1,33.1z"/>
<path class="st11" d="M449.4,16.4l-17.6,8.7l-0.4-3.8c6.3-3.7,16.9-7.6,17.8-7.9L449.4,16.4z"/>
<path class="st11" d="M672.8,269.3c-29.8,4.7-72.2,10.8-78.9,8.8c-5.6-1.7-23.4-1.5-38.9-1c0.1-7.8,0.3-12.9,0.3-12.9l115.5-12
	C670.7,252.1,670.5,257.4,672.8,269.3z"/>
<path class="st24" d="M702.5,262.3c0,0-98.1,16.9-108.7,13.6s-64.6,0.3-64.6,0.3c-24.3,16.3-14.2-7.8-14.2-7.8s-2.1-12.6,0.8-22.7
	c2-7.5,3.3-15.1,4-22.7c0,0-0.5-16,2.4-19.8s6.4-30.5,6.4-30.5s2.7-18.2,2.4-22.2s0.8-15.2,0.8-15.2l3.5-18.7
	c-20-2.7-81-40.1-81-40.1c-2.9-12.6-25.7-42-25.7-42c-0.3-2.5-1-4.9-1.9-7.2c-1.6-4.3,22.5-12.8,22.5-12.8s17.9,21.9,21.7,27.8
	s16.6,16.9,16.6,16.9c2-0.2,4,0.1,5.9,0.8c0.1,0,0.2,0.1,0.3,0.1s0,0,0,0c6,2.1,12,6.9,12,6.9c9.7-0.7,16.3,6,16.3,6
	s11-1.6,12.8,0.3s11.2,0,11.2,0s9.4-19.8,15.5-14c6.1,5.8,32.2,5.5,32.2,5.5c3.5-4.6,11.9-7.9,17.2-9.6c4.5-1.5,9.4-1.6,14-0.2
	c2,0.6,3.8,1.5,5.5,2.7l16,15.3c0,0,4.5-5.9,4-7.2s5.3-2.4,5.3-2.4s7.8-2.4,10.7-3.2s5.6,2.4,5.9,2.7c-0.1-0.3-2.1-6.8-1.3-11.8
	s-3.2-9.6-3.2-9.6c9.4-23,30.5-3.7,30.5-3.7s2.4,12.6,0.3,17.4s2.1,15,1.6,17.6s1.1,7.2,1.1,12.3s-2.7,14.7-4.3,19
	S682.5,118,682.5,118s-0.8,15.2-6.4,24.1s-2.1,39-2.1,39s5.3,23.5,12,31S702.5,262.3,702.5,262.3z"/>
<path class="st11" d="M559.4,86.4c0,0-2.9-8.8-5.6-9.6c-2.7-1-5.3-2.1-7.8-3.5l1.7-3.3c0,0,10,2.8,11.7,5.7S559.4,86.4,559.4,86.4z"
	/>
<path class="st11" d="M505.7,66.8c-0.5,2.7-24.3,5.1-24.3,5.1l12-12.1l0,0l0.3,0.1l0,0C499.8,62.1,505.7,66.8,505.7,66.8z"/>
<circle class="st25" cx="436.9" cy="30.1" r="2.1"/>
<circle class="st26" cx="439.6" cy="34.4" r="2.1"/>
<circle class="st25" cx="442.3" cy="38.4" r="2.1"/>
<circle class="st25" cx="445.1" cy="42.6" r="2.1"/>
<circle class="st25" cx="697.1" cy="42.4" r="1.7"/>
<circle class="st25" cx="697.4" cy="46.3" r="1.7"/>
<circle class="st25" cx="697.6" cy="50.3" r="1.7"/>
<path class="st11" d="M559.6,158.8c-0.2-0.3,60,75.8,106.8,31.8C666.4,190.6,592.5,200.7,559.6,158.8z"/>
<path class="st11" d="M525,198.4c0,0,36.1,1,39.8,11.4v10.8c-2.1,1.2-4.6,1.2-6.7,0c-3.6-2-25.4-13-33.1-7.7V198.4z"/>
<path d="M525.6,198.4c0,0,34.5,0.9,38.1,10.8v10.3c-2,1.1-4.4,1.1-6.4,0c-3.5-1.9-24.3-12.4-31.7-7.4L525.6,198.4L525.6,198.4z"/>
<path class="st11" d="M544.6,120.1c0,0,4.1,10.6,14,24c6.1,8.2,13.5,15.3,21.9,21.1C580.5,165.2,545.2,125,544.6,120.1z"/>
<path class="st11" d="M532.8,78.2c0,0,6,26,21.5,34.8L532.8,78.2z"/>
<path class="st11" d="M523.6,80.8c-0.2-0.5-5.3,20.5,20,32.2C543.6,113,532.8,109.3,523.6,80.8z"/>
<path class="st11" d="M681.1,63.4c-0.4,0,12.5,8.2,16,12C697.1,75.4,688.7,62.8,681.1,63.4z"/>
<path d="M599.5,45.4c0.5,1.6,1,3.4,2.5,4.3c0.9,0.4,2,0.7,3,0.7c9.7,0.6,19.8,1,28.8-2.7c1.7-0.6,3.2-1.6,4.4-2.9
	c1.6-2,1.9-4.6,2.5-7c1.3-4.8,3.9-9,5.9-13.5c3.3-7.6,4.3-16,3.2-24.3c-0.2-2.5-1.1-5-2.4-7.1c-2.6-3.7-7.3-5.2-10.7-8.1
	s-5.6-7.4-9.6-9.6c-3.6-2-8-1.8-12-1.1c-7.9,1.4-15.5,4.2-22.4,8.4c-2.3,1.4-4.8,3.1-7.5,2.6c-2.3-0.4-4-2.4-5.5-4.2
	c-1.9,4.4-2.7,9.1-2.4,13.9c0.1,0.7,0.1,1.4-0.1,2.1c-0.3,0.8-0.8,1.6-1.5,2.2c-2.4,2.8-3.9,7.2-1.5,10c1,1.2,2.6,1.9,3.6,3.1
	c1.8,2.2,1.2,5.4,1.2,8.3c-0.1,1,0.1,2,0.7,2.8c0.9,1.1,2.5,1.2,3.9,0.9s2.8-0.7,4.2-0.4c1.5,0.5,2.8,1.5,3.6,2.8
	C595.9,32.3,597.6,38.6,599.5,45.4z"/>
<g class="st27">
	<path d="M639.2,42.3c-1.2,1.3-2.7,2.3-4.4,2.9c-9,3.7-19.1,3.3-28.8,2.7c-1,0-2.1-0.2-3-0.7c-1.5-0.9-2-2.7-2.5-4.3
		c-1.9-6.9-3.6-13.1-8.1-18.8c-0.9-1.3-2.1-2.3-3.6-2.8c-1.4-0.3-2.8,0.2-4.2,0.4s-3,0.1-3.9-0.9c-0.6-0.8-0.8-1.8-0.7-2.8
		c0-2.9,0.6-6.1-1.2-8.3c-1-1.3-2.6-1.9-3.6-3.1c-1.5-1.8-1.4-4.2-0.6-6.4c-1.7,2.7-2.4,6.2-0.5,8.5c1,1.2,2.6,1.9,3.6,3.1
		c1.8,2.2,1.2,5.4,1.2,8.3c-0.1,1,0.1,2,0.7,2.8c0.9,1.1,2.5,1.2,3.9,0.9s2.8-0.7,4.2-0.4c1.5,0.5,2.8,1.5,3.6,2.8
		c4.5,5.7,6.2,12,8.1,18.8c0.5,1.6,1,3.4,2.5,4.3c0.9,0.5,2,0.7,3,0.7c9.7,0.6,19.8,1,28.8-2.7c1.7-0.6,3.2-1.6,4.4-2.9
		c0.6-0.8,1.1-1.6,1.4-2.6C639.4,42,639.3,42.2,639.2,42.3z"/>
	<path d="M577.3-4c0.4-0.5,0.8-1,1-1.6c0.1-0.7,0.2-1.4,0.1-2.1c-0.3-3.9,0.2-7.8,1.5-11.5l-0.2-0.2c-1.9,4.4-2.7,9.1-2.4,13.9
		C577.3-5.1,577.3-4.5,577.3-4z"/>
</g>
<path class="st11" d="M593.8,64.7c0,0,39.8,5.3,43.3-0.7"/>
<path class="st11" d="M671.1,48.3c0,0,22.1,0,26.9,8.3"/>
</svg>
