<?xml version="1.0" encoding="utf-8"?>
<!-- Generator: Adobe Illustrator 19.0.0, SVG Export Plug-In . SVG Version: 6.00 Build 0)  -->
<svg version="1.1" id="ad467010-4b2c-4db1-84f0-cd2022f75deb"
	 xmlns="http://www.w3.org/2000/svg" xmlns:xlink="http://www.w3.org/1999/xlink" x="0px" y="0px" viewBox="29 -176.1 1072.3 780.1"
	 style="enable-background:new 29 -176.1 1072.3 780.1;" xml:space="preserve">
<style type="text/css">
	.st0{opacity:0.1;fill:#F78620;enable-background:new    ;}
	.st1{fill:#CED7E7;}
	.st2{opacity:0.1;enable-background:new    ;}
	.st3{fill:#FED253;}
	.st4{fill:#FFA2A2;}
	.st5{opacity:5.000000e-002;enable-background:new    ;}
	.st6{fill:#63667E;}
	.st7{fill:#896363;}
	.st8{opacity:0.1;}
	.st9{fill:#F78620;}
</style>
<title>QA engineers</title>
<path class="st0" d="M55.5,243.1c1.2-2.6,2.5-5.2,3.7-7.7C107.5,138.6,196.6,65,298.6,29.8c1.6-0.5,3.1-1.1,4.7-1.6
	c39.1-13.1,79.9-20.2,121.1-21.1c19.9-0.4,31.3,3.5,48.8,11.1c21.1,9.2,44.7,5.5,65-4.6c23.3-11.7,42.3-30.3,63.2-45.8
	c52.5-39,119.2-58,184.4-54.2c9.3,0.5,18.5,1.5,27.7,3c5.8,0.9,11.5,2,17.2,3.3c4.8,1.1,9.6,2.3,14.4,3.7
	c12.9,3.7,25.5,8.3,37.7,13.8c2.7,1.2,5.4,2.4,8,3.7c9,4.3,17.8,9.1,26.4,14.3c2,1.2,4,2.4,5.9,3.7l1.7,1.1l1.7,1.1l1,0.6l3.2,2.1
	l1.7,1.1c1.5,1,3,2,4.4,3l0,0c0.7,0.5,1.4,1,2.1,1.5l2,1.4c4.4,3.2,8.8,6.5,13.1,9.8c29.9,23.4,56.4,51.5,79.4,81.7
	c19.1,25.1,36.1,52.1,47.4,81.5c4.6,11.9,8.3,24.2,11.1,36.7c2.7,11.9,4.7,23.9,6.1,36c0,0.2,0.1,0.5,0.1,0.7
	c4.1,36,3.5,72.9,2.4,109.3c-0.1,2.6-0.2,5.2-0.3,7.8c-0.8,22.4-2.1,45-8.4,66.5c-0.1,0.4-0.3,0.9-0.4,1.3c-0.4,1.5-0.9,3-1.4,4.4
	c-1.2,3.5-2.6,7-4,10.3c-0.1,0.3-0.3,0.7-0.4,1c-4.7,10.7-10.7,20.7-17.9,29.9c-0.3,0.3-0.5,0.7-0.8,1c-1.7,2.2-3.5,4.4-5.4,6.5
	c-0.6,0.7-1.2,1.3-1.7,1.9c-1.6,1.7-3.2,3.4-4.8,5.1c-0.3,0.3-0.6,0.6-1,1c-6.2,6.1-12.9,11.8-19.9,16.8c-1.2,0.9-2.5,1.7-3.7,2.6
	c-2.7,1.8-5.5,3.6-8.3,5.3c-2.7,1.6-5.4,3.1-8.2,4.5c-0.9,0.5-1.8,0.9-2.8,1.4c-2.6,1.3-5.3,2.5-8,3.7l-1.7,0.7
	c-2.6,1.1-5.2,2.1-7.9,3l-1.7,0.6c-2.8,1-5.6,1.8-8.4,2.6l-1.7,0.5l-1.2,0.3l-0.7,0.2c-19.2,5-39.2,5.9-58.7,2.7
	c-8.6-1.5-17.1-3.6-25.4-6.2l-1.3-0.4c-5.9-1.8-11.6-3.9-17.4-6l0,0c-13.6-5-27.1-10.4-40.9-14.9c-8.9-2.9-18.1-5.2-27.3-6.8
	l-1.1-0.2c-2.9-0.5-5.8-0.9-8.7-1.2l0,0c-2.1-0.2-4.2-0.4-6.2-0.5c-12.5-0.7-24.9,0.5-36.6,4.5c-2.5,0.9-5,1.9-7.4,3
	c-1.2,0.5-2.3,1.1-3.5,1.7c-0.4,0.2-0.8,0.4-1.3,0.7c-6.2,3.5-12.1,7.4-17.7,11.8c-3.4,2.5-6.7,5.2-10,7.7l-1.7,1.3
	c-4.2,3.2-8.5,6.4-12.9,9.5c-19.6,14-40.3,26.5-61.8,37.5c-12.9,6.6-26,12.6-39.3,18.1c-46.3,18.9-94.9,31.3-144.6,36.9
	c-14.3,1.6-28.6,2.7-43,3.1c-23.9,0.8-47.8,0-71.5-2.3c-9.3-0.9-18.6-2.1-27.8-3.5c-48.2-7.3-95-21.5-139.1-42.2
	C119.3,534,66.6,495.6,42,439.9C14.4,377.9,26.6,304.8,55.5,243.1z"/>
<path class="st0" d="M927.5,123.7l1.4-41.4l43.8,1.5l-1.4,41.4l20.3,0.7l-1.7,51.5l102.1,3.4c2.7,11.9,4.7,23.9,6.1,36
	c0,0.2,0.1,0.5,0.1,0.7c4.1,36,3.5,72.9,2.4,109.3c-0.1,2.6-0.2,5.2-0.3,7.8c-0.8,22.4-2.1,45-8.4,66.5c-0.1,0.4-0.3,0.9-0.4,1.3
	c-0.4,1.5-0.9,3-1.4,4.4c-1.2,3.5-2.6,7-4,10.3c-0.1,0.3-0.3,0.7-0.4,1c-4.7,10.7-10.7,20.7-17.9,29.9c-0.3,0.3-0.5,0.7-0.8,1
	c-1.7,2.2-3.5,4.4-5.4,6.5c-0.6,0.7-1.2,1.3-1.7,1.9c-1.6,1.7-3.2,3.4-4.8,5.1c-0.3,0.3-0.6,0.6-1,1c-6.2,6.1-12.9,11.8-19.9,16.8
	c-1.2,0.9-2.5,1.7-3.7,2.6c-2.7,1.8-5.5,3.6-8.3,5.3c-2.7,1.6-5.4,3.1-8.2,4.5c-0.9,0.5-1.8,0.9-2.8,1.4c-2.6,1.3-5.3,2.5-8,3.7
	l-1.7,0.7c-2.6,1.1-5.2,2.1-7.9,3l-1.7,0.6c-2.8,1-5.6,1.8-8.4,2.6l-1.7,0.5l-1.2,0.3l-0.7,0.2c-19.2,5-39.2,5.9-58.7,2.7
	c-8.6-1.5-17.1-3.6-25.4-6.2l-1.3-0.4L907.1,123L927.5,123.7z"/>
<path class="st0" d="M55.5,243.1l29.6,1l-5.6,165.6l91.7,3.1l7.7-227.7l57.7,1.9l2-59.8l39.1,1.3l2.2-63.9l17.5,0.6l1.2-35.4
	c1.6-0.5,3.1-1.1,4.7-1.6l-1.3,37.2l18,0.6l-2.2,63.8l39.2,1.3l-2,59.8l47.4,1.6l3.4-100.9l95.8,3.2l-8.5,252.4l81.4,2.7l1.2-34.5
	l185.5,6.3l-5.2,155c-2.5,0.9-5,1.9-7.4,3c-1.2,0.5-2.3,1.1-3.5,1.7c-0.4,0.2-0.8,0.4-1.3,0.7c-6.2,3.5-12.1,7.4-17.7,11.8
	c-3.4,2.5-6.7,5.2-10,7.7l-1.7,1.3c-4.2,3.2-8.5,6.4-12.9,9.5c-19.6,14-40.3,26.5-61.8,37.5c-12.9,6.6-26,12.6-39.3,18.1
	c-46.3,18.9-94.9,31.3-144.6,36.9c-14.3,1.6-28.6,2.7-43,3.1c-23.9,0.8-47.8,0-71.5-2.3c-9.3-0.9-18.6-2.1-27.8-3.5
	c-48.2-7.3-95-21.5-139.1-42.2C119.3,534,66.6,495.6,42,439.9C14.4,377.9,26.6,304.8,55.5,243.1z"/>
<rect x="428.2" y="131.1" transform="matrix(0.9994 3.371448e-002 -3.371448e-002 0.9994 5.3991 -15.0716)" class="st0" width="42.8" height="42.9"/>
<rect x="425.2" y="219.9" transform="matrix(0.9994 3.371448e-002 -3.371448e-002 0.9994 8.3902 -14.9201)" class="st0" width="42.8" height="42.9"/>
<rect x="422.2" y="308.7" transform="matrix(0.9994 3.371448e-002 -3.371448e-002 0.9994 11.3817 -14.7687)" class="st0" width="42.8" height="42.8"/>
<rect x="419.2" y="397.5" transform="matrix(0.9994 3.371448e-002 -3.371448e-002 0.9994 14.3731 -14.6173)" class="st0" width="42.8" height="42.8"/>
<rect x="416.2" y="486.2" transform="matrix(0.9994 3.371448e-002 -3.371448e-002 0.9994 17.3642 -14.4658)" class="st0" width="42.8" height="42.8"/>
<path class="st0" d="M456.8,575.7l-1,29.3c-14.3,1.6-28.6,2.7-43,3.1l1.1-33.8L456.8,575.7z"/>
<rect x="594.9" y="374.1" transform="matrix(0.9994 3.371448e-002 -3.371448e-002 0.9994 13.3211 -22.368)" class="st0" width="150" height="19.4"/>
<rect x="592.9" y="433" transform="matrix(0.9994 3.371448e-002 -3.371448e-002 0.9994 15.3063 -22.2675)" class="st0" width="150" height="19.4"/>
<path class="st0" d="M726.1,494c-3.4,2.5-6.7,5.2-10,7.7l-1.7,1.3c-4.2,3.2-8.5,6.4-12.9,9.5l-110.8-3.7l0.7-19.4L726.1,494z"/>
<path class="st0" d="M639.7,550c-12.9,6.6-26,12.6-39.3,18.1l-11.7-0.4l0.7-19.4L639.7,550z"/>
<rect x="325.1" y="243.5" transform="matrix(0.9994 3.371448e-002 -3.371448e-002 0.9994 8.8723 -11.2852)" class="st0" width="27.9" height="27.9"/>
<rect x="933.2" y="134" transform="matrix(0.9994 3.371448e-002 -3.371448e-002 0.9994 5.5248 -31.8472)" class="st0" width="27.9" height="27.9"/>
<rect x="931" y="198.7" transform="matrix(0.9994 3.371448e-002 -3.371448e-002 0.9994 7.707 -31.7367)" class="st0" width="27.9" height="27.9"/>
<rect x="928.8" y="263.5" transform="matrix(0.9994 3.371448e-002 -3.371448e-002 0.9994 9.8889 -31.6262)" class="st0" width="27.9" height="27.9"/>
<rect x="926.6" y="328.2" transform="matrix(0.9994 3.371448e-002 -3.371448e-002 0.9994 12.0711 -31.5158)" class="st0" width="27.9" height="27.9"/>
<rect x="924.4" y="393" transform="matrix(0.9994 3.371448e-002 -3.371448e-002 0.9994 14.2533 -31.4053)" class="st0" width="27.9" height="27.9"/>
<rect x="922.2" y="457.8" transform="matrix(0.9994 3.371448e-002 -3.371448e-002 0.9994 16.4352 -31.2948)" class="st0" width="27.9" height="27.9"/>
<rect x="218.7" y="239.9" transform="matrix(0.9994 3.371448e-002 -3.371448e-002 0.9994 8.6908 -7.699)" class="st0" width="27.9" height="27.9"/>
<rect x="322.8" y="312.3" transform="matrix(0.9994 3.371448e-002 -3.371448e-002 0.9994 11.1892 -11.1679)" class="st0" width="27.9" height="27.9"/>
<rect x="216.4" y="308.7" transform="matrix(0.9994 3.371448e-002 -3.371448e-002 0.9994 11.0077 -7.5817)" class="st0" width="27.9" height="27.9"/>
<rect x="320.5" y="381" transform="matrix(0.9994 3.371448e-002 -3.371448e-002 0.9994 13.5065 -11.0506)" class="st0" width="27.9" height="27.9"/>
<rect x="214.1" y="377.4" transform="matrix(0.9994 3.371448e-002 -3.371448e-002 0.9994 13.3249 -7.4644)" class="st0" width="27.9" height="27.9"/>
<rect x="318.2" y="449.8" transform="matrix(0.9994 3.371448e-002 -3.371448e-002 0.9994 15.8237 -10.9333)" class="st0" width="27.9" height="27.9"/>
<rect x="211.7" y="446.2" transform="matrix(0.9994 3.371448e-002 -3.371448e-002 0.9994 15.6422 -7.3471)" class="st0" width="27.9" height="27.9"/>
<rect x="315.8" y="518.6" transform="matrix(0.9994 3.371448e-002 -3.371448e-002 0.9994 18.1407 -10.816)" class="st0" width="27.9" height="27.9"/>
<rect x="209.4" y="515" transform="matrix(0.9994 3.371448e-002 -3.371448e-002 0.9994 17.9591 -7.2298)" class="st0" width="27.9" height="27.9"/>
<polygon class="st0" points="313.5,602.3 314,586.9 341.9,587.8 341.3,605.8 "/>
<path class="st0" d="M991.5,213.2l-0.5,16l106.6,3.6l0.5-16L991.5,213.2z M1088.6,217.5l7.8,0.3l-0.5,14l-7.8-0.3L1088.6,217.5z
	 M1079.1,217.2l7.8,0.3l-0.5,14l-7.8-0.3L1079.1,217.2z M1069.6,216.9l7.8,0.3l-0.5,14l-7.8-0.3L1069.6,216.9z M1060.1,216.5
	l7.8,0.3l-0.5,14l-7.8-0.3L1060.1,216.5z M1050.6,216.2l7.8,0.3l-0.5,14l-7.8-0.3L1050.6,216.2z M1041.1,215.9l7.8,0.3l-0.5,14
	l-7.8-0.3L1041.1,215.9z M1031.6,215.6l7.8,0.3l-0.5,14l-7.8-0.3L1031.6,215.6z M1022.2,215.3l7.8,0.3l-0.5,14l-7.8-0.3
	L1022.2,215.3z M1012.7,214.9l7.8,0.3l-0.5,14l-7.8-0.3L1012.7,214.9z M1003.2,214.6l7.8,0.3l-0.5,14l-7.8-0.3L1003.2,214.6z
	 M993.2,214.3l8.3,0.3l-0.5,14l-8.3-0.3L993.2,214.3z"/>
<path class="st0" d="M990,259.7l-0.5,15.9l106.6,3.6l0.5-15.9L990,259.7z M1087.1,263.9l7.8,0.3l-0.5,13.9l-7.8-0.3L1087.1,263.9z
	 M1077.6,263.6l7.8,0.3l-0.5,13.9l-7.8-0.3L1077.6,263.6z M1068.1,263.3l7.8,0.3l-0.5,13.9l-7.8-0.3L1068.1,263.3z M1058.6,263
	l7.8,0.3l-0.5,13.9l-7.8-0.3L1058.6,263z M1049.1,262.7l7.8,0.3l-0.5,13.9l-7.8-0.3L1049.1,262.7z M1039.6,262.3l7.8,0.3l-0.5,13.9
	l-7.8-0.3L1039.6,262.3z M1030.1,262l7.8,0.3l-0.5,13.9l-7.8-0.3L1030.1,262z M1020.6,261.7l7.8,0.3l-0.5,13.9l-7.8-0.3
	L1020.6,261.7z M1011.1,261.4l7.8,0.3l-0.5,13.9l-7.8-0.3L1011.1,261.4z M1001.6,261.1l7.8,0.3l-0.5,13.9l-7.8-0.3L1001.6,261.1z
	 M991.6,260.7l8.3,0.3l-0.5,13.9l-8.3-0.3L991.6,260.7z"/>
<path class="st0" d="M988.4,306.1l-0.5,15.9l106.6,3.6l0.5-15.9L988.4,306.1z M1085.5,310.4l7.8,0.3l-0.5,13.9l-7.8-0.3
	L1085.5,310.4z M1076,310l7.8,0.3l-0.5,13.9l-7.8-0.3L1076,310z M1066.5,309.7l7.8,0.3l-0.5,13.9l-7.8-0.3L1066.5,309.7z
	 M1057,309.4l7.8,0.3l-0.5,13.9l-7.8-0.3L1057,309.4z M1047.5,309.1l7.8,0.3l-0.5,13.9l-7.8-0.3L1047.5,309.1z M1038,308.8l7.8,0.3
	l-0.5,13.9l-7.8-0.3L1038,308.8z M1028.5,308.4l7.8,0.3l-0.5,13.9l-7.8-0.3L1028.5,308.4z M1019,308.1l7.8,0.3l-0.5,13.9l-7.8-0.3
	L1019,308.1z M1009.5,307.8l7.8,0.3l-0.5,13.9l-7.8-0.3L1009.5,307.8z M1000,307.5l7.8,0.3l-0.5,13.9l-7.8-0.3L1000,307.5z
	 M990,307.1l8.3,0.3l-0.5,13.9l-8.3-0.3L990,307.1z"/>
<path class="st0" d="M986.8,352.5l-0.5,16l106.6,3.6l0.5-16L986.8,352.5z M1083.9,356.7l7.8,0.3l-0.5,14l-7.8-0.3L1083.9,356.7z
	 M1074.4,356.4l7.8,0.3l-0.5,14l-7.8-0.3L1074.4,356.4z M1064.9,356.1l7.8,0.3l-0.5,14l-7.8-0.3L1064.9,356.1z M1055.4,355.8
	l7.8,0.3l-0.5,14l-7.8-0.3L1055.4,355.8z M1045.9,355.5l7.8,0.3l-0.5,14l-7.8-0.3L1045.9,355.5z M1036.4,355.1l7.8,0.3l-0.5,14
	l-7.8-0.3L1036.4,355.1z M1027,354.8l7.8,0.3l-0.5,14l-7.8-0.3L1027,354.8z M1017.5,354.5l7.8,0.3l-0.5,14l-7.8-0.3L1017.5,354.5z
	 M1008,354.2l7.8,0.3l-0.5,14l-7.8-0.3L1008,354.2z M998.5,353.9l7.8,0.3l-0.5,14l-7.8-0.3L998.5,353.9z M988.5,353.5l8.3,0.3
	l-0.5,14l-8.3-0.3L988.5,353.5z"/>
<path class="st0" d="M985.2,398.9l-0.5,16l100.9,3.4c0.2-0.3,0.3-0.7,0.4-1l-4.2-0.1l0.5-14l7.8,0.3l-0.1,3.5c0.5-1.5,1-2.9,1.4-4.4
	L985.2,398.9z M1072.9,402.9l7.8,0.3l-0.5,14l-7.8-0.3L1072.9,402.9z M1063.4,402.6l7.8,0.3l-0.5,14l-7.8-0.3L1063.4,402.6z
	 M1053.9,402.2l7.8,0.3l-0.5,14l-7.8-0.3L1053.9,402.2z M1044.4,401.9l7.8,0.3l-0.5,14l-7.8-0.3L1044.4,401.9z M1034.9,401.6
	l7.8,0.3l-0.5,14l-7.8-0.3L1034.9,401.6z M1025.4,401.3l7.8,0.3l-0.5,14l-7.8-0.3L1025.4,401.3z M1015.9,401l7.8,0.3l-0.5,14
	l-7.8-0.3L1015.9,401z M1006.4,400.6l7.8,0.3l-0.5,14l-7.8-0.3L1006.4,400.6z M996.9,400.3l7.8,0.3l-0.5,14l-7.8-0.3L996.9,400.3z
	 M986.9,400l8.3,0.3l-0.5,14l-8.3-0.3L986.9,400z"/>
<path class="st0" d="M983.7,445.4l-0.5,16l70.8,2.4c0.3-0.3,0.7-0.6,1-1l-3.2-0.1l0.5-14l7.8,0.3l-0.3,8.7c0.6-0.7,1.2-1.3,1.7-1.9
	l0.2-6.7l5.2,0.2c0.3-0.3,0.5-0.7,0.8-1L983.7,445.4z M1042.8,448.4l7.8,0.3l-0.5,14l-7.8-0.3L1042.8,448.4z M1033.3,448l7.8,0.3
	l-0.5,14l-7.8-0.3L1033.3,448z M1023.8,447.7l7.8,0.3l-0.5,14l-7.8-0.3L1023.8,447.7z M1014.3,447.4l7.8,0.3l-0.5,14l-7.8-0.3
	L1014.3,447.4z M1004.8,447.1l7.8,0.3l-0.5,14l-7.8-0.3L1004.8,447.1z M995.3,446.8l7.8,0.3l-0.5,14l-7.8-0.3L995.3,446.8z
	 M985.3,446.4l8.3,0.3l-0.5,14l-8.3-0.3L985.3,446.4z"/>
<path class="st0" d="M982.1,491.8l-0.5,13.5l1.7-0.5l0.4-12l8.3,0.3l-0.3,9.1l1.7-0.6l0.3-8.5l7.8,0.3l-0.2,5.2l1.7-0.7l0.1-4.4
	l7.8,0.3l0,0.5c0.9-0.5,1.9-0.9,2.8-1.4L982.1,491.8z"/>
<path class="st0" d="M703.2,66.8c1.8-0.7,3.7-0.8,5.6-0.4c0,0-0.1,0.2-0.9,0.3c-0.8,0.1-3.9,0.5-3.9,0.5l2,1
	c4.8-1.3,7.3,0.1,7.3,0.1c-2.2-0.2-4.3-0.1-6.5,0.3l2.7,1.7c5.2-1.3,7.4,0.8,7.4,0.8c-2-0.8-6.8-0.3-6.8-0.3l2.5,2.2
	c4.6-0.9,6.4,1.4,6.4,1.4c-2.2-1-5.8-0.9-5.8-0.9c0.5,0.2,2.3,2.8,2.3,2.8c3.6,0.3,3.9,2.7,3.9,2.7c-0.9-0.9-2.1-1.6-3.4-1.9
	c1.1,1.8,1.7,3.9,1.7,6.1c-0.2-2.3-2.3-5.7-2.3-5.7c-0.6,0-1.4,5-1.4,5c-1-2,0.9-5.7,0.9-5.7c-0.7-1.1-1.5-2-2.5-2.9
	c-1.4,0.5-1.8,8.1-1.8,8.1c-1.5-3.6,1.3-8.6,1.3-8.6l-2.5-2.1c-2.1,2.5-1.8,9-1.8,9c-1.7-4.3,1.2-9.4,1.2-9.4l-2.8-1.8
	c-2.1,2.1-1.6,8.3-1.6,8.3c-1.7-3.7,0.9-8.7,0.9-8.7s-1.9-1.1-2.1-1.1c-0.8-0.1-1.1,5-1.1,5c-1-2.4,0.5-5.3,0.5-5.3l-3.9-1.9
	c-0.1,0.6,1.7,3.1,1.7,3.1c2.2,11,8.8,14,8.8,14l0,0c0.9,0.8,2,1.3,3.1,1.4c0.9,0.1,1.7,0.1,2.6,0c2.5-0.3,2.4,0.9,2.4,0.9
	c1.6-0.8,2.5-2.5,2.3-4.2c3.4-16.6-20.5-16-20.5-16C699.1,65,703.2,66.8,703.2,66.8z"/>
<path class="st0" d="M758.2,152.6c1.1,1.5,1.8,3.3,2,5.2c0,0-0.3,0-0.6-0.8c-0.3-0.8-1.6-3.5-1.6-3.5l-0.4,2.1c2.6,4.2,1.9,7,1.9,7
	c-0.5-2.1-1.2-4.2-2.2-6.1l-0.9,3.1c2.7,4.6,1.4,7.3,1.4,7.3c0.2-2.1-1.6-6.6-1.6-6.6l-1.4,3c2.1,4.1,0.4,6.6,0.4,6.6
	c0.4-2.4-0.8-5.8-0.8-5.8c0,0.5-2,2.9-2,2.9c0.7,3.6-1.5,4.5-1.5,4.5c0.6-1.1,0.9-2.5,0.9-3.8c-1.4,1.6-3.3,2.7-5.3,3.4
	c2.2-0.8,4.9-3.8,4.9-3.8c-0.2-0.5-5.2,0.1-5.2,0.1c1.6-1.6,5.7-0.8,5.7-0.8c0.8-1,1.5-2.1,2-3.2c-0.9-1.2-8.3,0.5-8.3,0.5
	c3-2.4,8.7-1.2,8.7-1.2l1.3-3c-3-1.3-9.2,0.8-9.2,0.8c3.6-2.9,9.4-1.5,9.4-1.5l0.9-3.2c-2.6-1.4-8.4,0.8-8.4,0.8
	c3.1-2.7,8.6-1.6,8.6-1.6s0.4-2.1,0.4-2.3c-0.1-0.8-5.1,0.4-5.1,0.4c2.1-1.7,5.2-1,5.2-1l0.6-4.3c-0.6,0.1-2.4,2.5-2.4,2.5
	c-9.9,5.3-10.9,12.5-10.9,12.5l0,0c-0.5,1.1-0.7,2.2-0.5,3.4c0.2,0.8,0.4,1.7,0.8,2.5c1,2.2-0.2,2.6-0.2,2.6c1.2,1.3,3.1,1.7,4.7,1
	c16.9-1.5,9.5-24.2,9.5-24.2C758.7,148.1,758.2,152.6,758.2,152.6z"/>
<path class="st0" d="M600.9,128.3c1.1,1.5,1.8,3.3,2,5.2c0,0-0.2,0-0.6-0.8s-1.6-3.5-1.6-3.5l-0.4,2.1c2.6,4.2,1.9,7,1.9,7
	c-0.5-2.1-1.2-4.2-2.2-6.1l-0.9,3.1c2.7,4.6,1.4,7.3,1.4,7.3c0.2-2.1-1.6-6.6-1.6-6.6l-1.4,3c2.1,4.1,0.4,6.6,0.4,6.6
	c0.4-2.4-0.8-5.8-0.8-5.8c0,0.5-2,2.9-2,2.9c0.7,3.6-1.5,4.5-1.5,4.5c0.6-1.1,0.9-2.5,0.8-3.8c-1.4,1.6-3.3,2.7-5.3,3.4
	c2.2-0.8,4.9-3.8,4.9-3.8c-0.2-0.5-5.2,0.1-5.2,0.1c1.6-1.6,5.7-0.8,5.7-0.8c0.8-1,1.5-2.1,2.1-3.2c-0.9-1.2-8.3,0.5-8.3,0.5
	c3-2.4,8.7-1.2,8.7-1.2l1.3-3c-3-1.3-9.2,0.9-9.2,0.9c3.6-2.9,9.4-1.5,9.4-1.5l0.9-3.2c-2.6-1.4-8.4,0.8-8.4,0.8
	c3.1-2.6,8.6-1.6,8.6-1.6s0.4-2.1,0.4-2.3c-0.1-0.8-5.2,0.4-5.2,0.4c2.1-1.7,5.2-1.1,5.2-1.1l0.7-4.3c-0.6,0.1-2.4,2.5-2.4,2.5
	c-9.9,5.3-10.9,12.5-10.9,12.5l0,0c-0.5,1.1-0.7,2.2-0.5,3.4c0.2,0.9,0.4,1.7,0.8,2.5c1,2.2-0.2,2.6-0.2,2.6c1.2,1.3,3.1,1.7,4.7,1
	c16.9-1.4,9.5-24.2,9.5-24.2C601.4,123.9,600.9,128.3,600.9,128.3z"/>
<path class="st0" d="M820.5,319.3c1.1,1.5,1.8,3.3,2,5.2c0,0-0.3,0-0.6-0.8c-0.3-0.8-1.6-3.5-1.6-3.5l-0.4,2.1c2.6,4.2,1.9,7,1.9,7
	c-0.5-2.1-1.2-4.2-2.2-6.1l-0.9,3.1c2.7,4.6,1.4,7.3,1.4,7.3c0.2-2.1-1.6-6.6-1.6-6.6l-1.4,3c2.1,4.1,0.4,6.6,0.4,6.6
	c0.4-2.4-0.8-5.8-0.8-5.8c0,0.5-2,2.9-2,2.9c0.7,3.6-1.5,4.5-1.5,4.5c0.6-1.1,0.9-2.4,0.9-3.8c-1.4,1.6-3.3,2.7-5.3,3.4
	c2.2-0.8,4.9-3.8,4.9-3.8c-0.2-0.5-5.2,0.1-5.2,0.1c1.6-1.6,5.7-0.8,5.7-0.8c0.8-1,1.5-2.1,2-3.2c-0.9-1.2-8.3,0.5-8.3,0.5
	c3-2.4,8.7-1.2,8.7-1.2l1.3-3c-3-1.3-9.2,0.9-9.2,0.9c3.6-2.9,9.4-1.5,9.4-1.5l0.9-3.2c-2.6-1.4-8.4,0.8-8.4,0.8
	c3.1-2.6,8.6-1.6,8.6-1.6s0.4-2.1,0.4-2.3c-0.1-0.8-5.1,0.4-5.1,0.4c2.1-1.7,5.2-1.1,5.2-1.1l0.6-4.3c-0.6,0.1-2.4,2.5-2.4,2.5
	c-9.9,5.3-10.9,12.4-10.9,12.4l0,0c-0.5,1-0.7,2.2-0.5,3.4c0.2,0.9,0.4,1.7,0.8,2.5c1,2.2-0.2,2.6-0.2,2.6c1.2,1.3,3.1,1.7,4.7,1
	c16.9-1.5,9.5-24.2,9.5-24.2C821,314.9,820.5,319.3,820.5,319.3z"/>
<path class="st0" d="M860,108.9c1.1,1.5,1.8,3.3,2,5.2c0,0-0.3,0-0.6-0.8c-0.3-0.8-1.6-3.5-1.6-3.5l-0.4,2.1c2.6,4.2,1.9,7,1.9,7
	c-0.5-2.1-1.2-4.2-2.2-6.1l-0.9,3.1c2.7,4.6,1.4,7.3,1.4,7.3c0.2-2.1-1.6-6.6-1.6-6.6l-1.4,3c2.1,4.1,0.4,6.6,0.4,6.6
	c0.4-2.4-0.8-5.8-0.8-5.8c0,0.5-2,2.9-2,2.9c0.7,3.6-1.5,4.5-1.5,4.5c0.6-1.1,0.9-2.5,0.9-3.8c-1.4,1.6-3.3,2.7-5.3,3.4
	c2.2-0.8,4.9-3.8,4.9-3.8c-0.2-0.5-5.2,0.1-5.2,0.1c1.6-1.6,5.7-0.8,5.7-0.8c0.8-1,1.5-2.1,2-3.2c-0.9-1.2-8.3,0.5-8.3,0.5
	c3-2.4,8.7-1.2,8.7-1.2l1.3-3c-3-1.3-9.2,0.8-9.2,0.8c3.7-2.9,9.4-1.5,9.4-1.5l0.9-3.2c-2.6-1.4-8.4,0.8-8.4,0.8
	c3.1-2.7,8.6-1.6,8.6-1.6s0.4-2.1,0.4-2.3c-0.1-0.8-5.1,0.4-5.1,0.4c2.1-1.7,5.2-1,5.2-1l0.7-4.3c-0.6,0.1-2.4,2.5-2.4,2.5
	c-10,5.3-10.9,12.5-10.9,12.5l0,0c-0.5,1-0.7,2.2-0.5,3.4c0.2,0.9,0.4,1.7,0.8,2.5c1,2.2-0.2,2.6-0.2,2.6c1.2,1.3,3.1,1.7,4.7,1
	c16.9-1.5,9.5-24.2,9.5-24.2C860.4,104.5,860,108.9,860,108.9z"/>
<path class="st0" d="M793,227.8c0.1,1.9-0.4,3.8-1.4,5.4c0,0-0.2-0.2,0-1c0.2-0.8,0.7-3.8,0.7-3.8l-1.5,1.5
	c-0.3,4.9-2.5,6.8-2.5,6.8c0.9-2,1.4-4.1,1.8-6.2l-2.5,2c-0.5,5.3-3.1,6.8-3.1,6.8c1.4-1.6,2.4-6.3,2.4-6.3l-2.8,1.6
	c-0.6,4.6-3.4,5.6-3.4,5.6c1.7-1.7,2.7-5.2,2.7-5.2c-0.3,0.4-3.4,1.2-3.4,1.2c-1.5,3.3-3.8,2.8-3.8,2.8c1.2-0.6,2.2-1.5,2.9-2.6
	c-2.1,0.4-4.2,0.3-6.3-0.3c2.2,0.6,6.2-0.3,6.2-0.3c0.2-0.5-4.3-2.9-4.3-2.9c2.2-0.3,5.1,2.6,5.1,2.6c1.2-0.3,2.4-0.8,3.5-1.4
	c-0.1-1.5-7.1-4.4-7.1-4.4c3.9-0.2,7.8,4,7.8,4l2.8-1.7c-1.7-2.7-8-4.6-8-4.6c4.7-0.2,8.6,4.2,8.6,4.2l2.5-2.1
	c-1.3-2.6-7.4-4.2-7.4-4.2c4.1-0.4,8,3.6,8,3.6s1.6-1.5,1.7-1.6c0.4-0.7-4.4-2.6-4.4-2.6c2.6-0.1,4.9,2.2,4.9,2.2l3-3.1
	c-0.6-0.3-3.5,0.7-3.5,0.7c-11.2-1.4-16.1,3.9-16.1,3.9l0,0c-1,0.6-1.9,1.4-2.3,2.5c-0.4,0.8-0.6,1.6-0.8,2.5c-0.5,2.4-1.6,2-1.6,2
	c0.2,1.7,1.5,3.2,3.3,3.5c14.6,8.5,21.7-14.3,21.7-14.3C796,224.4,793,227.8,793,227.8z"/>
<path class="st0" d="M621.8,242.6c0.1,1.9-0.4,3.8-1.4,5.4c0,0-0.2-0.2,0-1c0.2-0.8,0.7-3.8,0.7-3.8l-1.5,1.5
	c-0.3,4.9-2.5,6.8-2.5,6.8c0.9-2,1.5-4.1,1.8-6.2l-2.5,2c-0.5,5.3-3.1,6.8-3.1,6.8c1.4-1.6,2.5-6.3,2.5-6.3l-2.8,1.7
	c-0.6,4.6-3.4,5.6-3.4,5.6c1.7-1.7,2.7-5.2,2.7-5.2c-0.3,0.4-3.4,1.2-3.4,1.2c-1.5,3.3-3.8,2.8-3.8,2.8c1.2-0.6,2.2-1.5,2.9-2.6
	c-2.1,0.4-4.3,0.3-6.3-0.3c2.2,0.6,6.2-0.3,6.2-0.3c0.2-0.5-4.3-2.9-4.3-2.9c2.2-0.3,5.1,2.6,5.1,2.6c1.2-0.3,2.4-0.8,3.5-1.4
	c0-1.5-7.1-4.4-7.1-4.4c3.9-0.2,7.8,4,7.8,4l2.8-1.7c-1.7-2.7-8-4.6-8-4.6c4.7-0.2,8.6,4.2,8.6,4.2l2.6-2.1
	c-1.3-2.6-7.4-4.2-7.4-4.2c4.1-0.4,8,3.6,8,3.6s1.6-1.5,1.7-1.6c0.4-0.7-4.4-2.6-4.4-2.6c2.6-0.1,4.9,2.2,4.9,2.2l3-3.2
	c-0.5-0.3-3.5,0.7-3.5,0.7c-11.2-1.4-16.1,3.9-16.1,3.9l0,0c-1,0.6-1.9,1.4-2.3,2.5c-0.4,0.8-0.6,1.6-0.8,2.5
	c-0.4,2.3-1.6,1.9-1.6,1.9c0.2,1.8,1.5,3.2,3.3,3.5c14.6,8.5,21.7-14.3,21.7-14.3C624.7,239.2,621.8,242.6,621.8,242.6z"/>
<path class="st1" d="M722.7,428.1l-13.6-51.3l-66.4,14.9c-12.8,61.5,38.4,80.7,38.4,80.7L722.7,428.1z"/>
<path class="st2" d="M642.7,391.7c-12.8,61.5,38.4,80.7,38.4,80.7l41.6-44.3L642.7,391.7z"/>
<path class="st3" d="M939.6-37.9c0,0-9.7,15.4-0.3,21.4c9.4,6,16.8-5.1,16.8-5.1C958-39.8,939.6-37.9,939.6-37.9z"/>
<path class="st2" d="M937.8-34.5c0.7-1.5,1.3-2.6,1.6-3.1l0.2-0.3c0,0,0.4-0.1,1.1-0.1c2.3,0,7.6,0.3,11.4,3.5l0,0
	c2.7,2.4,4.6,6.3,3.9,12.8c-0.4,0.6-0.8,1.1-1.3,1.6c-1.5,1.7-4.3,4.3-7.8,5.1c-2.7,0.6-5.4,0-7.7-1.6
	C932.7-20.7,935.5-29.6,937.8-34.5z"/>
<path class="st4" d="M707.2,430.4l-8.9,33c0,0-48.5-0.4-51.8-2.8c-3.4-2.5-20.1-3.9-20.1-3.9l-50.6-66.7l67,1.7l36.1-1.7
	L707.2,430.4z"/>
<path class="st5" d="M707.2,430.4l-8.9,33c0,0-48.5-0.4-51.8-2.8c-3.4-2.5-20.1-3.9-20.1-3.9l-50.6-66.7l67,1.7l36.1-1.7
	L707.2,430.4z"/>
<path class="st1" d="M751.4,216.1l2.4,113.7c0,0-24.6,134-32.5,142.8c-8,8.8-40.1-0.3-40.1-0.3c47.2-49.4-38.4-80.7-38.4-80.7
	c17.6-4.1,38.2-42.1,38.2-42.1s3.7-23.6,6-26.8s4.6-18.4,4.6-18.4s2.4-16.3,6.9-22.4s11.1-26.9,11.1-26.9l2.7-24.7l8.8-13.9
	L751.4,216.1z"/>
<path class="st5" d="M751.4,216.1l2.4,113.7c0,0-24.6,134-32.5,142.8c-8,8.8-40.1-0.3-40.1-0.3c47.2-49.4-38.4-80.7-38.4-80.7
	c17.6-4.1,38.2-42.1,38.2-42.1s3.7-23.6,6-26.8s4.6-18.4,4.6-18.4s2.4-16.3,6.9-22.4s11.1-26.9,11.1-26.9l2.7-24.7l8.8-13.9
	L751.4,216.1z"/>
<path class="st4" d="M823.7,60.4C807.9,31.1,934.2,23,934.2,23s-1.2,10-1.9,22.5c-1,16.5-1,37.3,3.7,45.3
	c8.3,14.1-96.3,67.8-96.3,67.8l-12.2-39c4.2-12.1,5.4-25.1,3.4-37.8C829.7,74.3,827.2,67.1,823.7,60.4z"/>
<path class="st2" d="M934.2,23c0,0-1.2,10-1.9,22.5C911.4,80.2,869,95.4,830.9,81.8c-1.2-7.5-3.6-14.7-7.2-21.3
	C807.9,31.1,934.2,23,934.2,23z"/>
<path class="st4" d="M776.3-16.7c0.4-1.9,0.8-3.9,1.4-5.8c12.4-45.3,59.1-72,104.4-59.6c6.2,1.7,12.2,4.1,17.9,7.2l0,0
	c10.5,5.7,19.6,13.5,26.9,22.9c1.3,1.7,2.5,3.3,3.6,5.1c9.7,14.7,14.6,32,14,49.6c-1.6,46.8-40.9,83.5-87.7,81.9
	c-46.8-1.6-83.5-40.9-81.9-87.7C774.9-7.7,775.4-12.2,776.3-16.7z"/>
<path class="st1" d="M727.4,320.6c-0.9-15.3-1.1-30.4-1.1-30.4l-14-59.8l0,0c0,0,3.9-29.4,8.7-32.1c4.8-2.7,20.6-27.7,20.6-27.7
	c0.8-1.4,1.7-2.8,2.6-4.1c0.6-0.9,1.3-1.8,2.1-2.7l0,0c0.2-0.2,0.3-0.4,0.5-0.6c1.2-1.3,2.5-2.5,3.9-3.6c0.4-0.3,0.7-0.5,1.1-0.8
	c1.2-0.9,2.6-1.5,4.1-1.9l0.6-0.2c0.5-0.1,1-0.3,1.5-0.5c0.3-0.1,0.7-0.3,1.1-0.5c0.2-0.1,0.4-0.2,0.6-0.3c0.2-0.1,0.4-0.2,0.7-0.3
	c10-4.8,19.6-10.4,28.7-16.9c2-1.5,3.3-2.7,3.6-3.4c1.6-3.6,18.9-8.1,18.9-8.1s11.2-42.2,20.1-37.6l0.1,0.1c0,0,1.6,29.6,4,31.5
	c2.1,1.6,6.7,8.2,9.9,10.5c0.5,0.4,1.1,0.7,1.8,0.8l1.2,0c3.3,0.2,8.6,0.6,8.6,0.6s0.3-0.3,0.7-0.9l0.2-0.3
	c3-3.3,12.4-13.2,20.3-15.7c9.6-2.9,22.1-18.6,30-24.5c7.1-5.4,20.5-9.9,23.3-21.8l0,0c0.3-1.3,0.5-2.6,0.5-4c0,0,5.9-2.7,8.5,7.2
	c0,0,1.2,4.9,2.8,10c1.5,4.7,3.3,9.5,4.8,11c2.2,2.3,4.1,5,5.6,7.8c0,0,0.6,0.1,1.6,0.4c3.8,0.9,13.2,3.4,14.6,6
	c0.4,0.7,0.9,1.3,1.5,1.8c4,4.1,14.1,11.1,14.1,11.1s24.9,17.2,26.6,20.9c1.7,3.7,15,8.9,15,8.9s2.2,10.6,8.3,14.1
	c2.7,1.5,8.6,7.6,14.4,14.5c7.5,8.7,14.9,18.6,16,21.8c0.7,2.1,4.3,8,8.7,14.8c0.2,0.3,0.4,0.7,0.7,1c0.6,0.9,1.2,1.8,1.8,2.7
	l1.6,2.4c2.1,3.1,4.2,6.3,6.1,9.1c0.2,0.3,0.5,0.7,0.7,1c4.4,6.6,7.9,11.7,7.9,11.7s5.6,6-3.5,19l-0.1,0.2l-0.6,0.8
	c-0.8,1.2-1.7,2.4-2.5,3.6c-0.6,0.8-1.2,1.6-1.8,2.5c-1.8,2.5-3.6,5.1-5.4,7.6l-0.7,1c-6.3,8.8-11.9,16.2-11.9,16.2l-1.9,8.3
	l-1.3,5.5l-0.2,1l-3.3,13.8l-0.2,1l-7.1,30.3l-0.2,1l-3.3,13.9l-0.2,1l-7.2,30.2l-0.2,1l-3.3,13.9l-0.2,1l-7.1,30.2l-0.2,1
	l-3.3,13.9l-0.2,1l-4.6,19.3c0,0-0.3,2.5-0.9,6.3c-2.7,1.6-5.4,3.1-8.2,4.5c-0.9,0.5-1.8,0.9-2.8,1.4c-2.6,1.3-5.3,2.5-8,3.7
	l-1.7,0.7c-2.6,1.1-5.2,2.1-7.9,3l-1.7,0.6c-2.8,1-5.6,1.8-8.4,2.6l-1.7,0.5l-1.2,0.3c0.3,0.1,0.6,0.2,1,0.2c-0.6,0-1.1,0-1.7,0
	c-19.2,5-39.2,5.9-58.7,2.7c-8.6-1.5-17.1-3.6-25.4-6.2c-4.6-0.6-9.1-1.6-13.6-3c0,0-48.6-11.8-54.2-14c-3.4-1.4-13-4.7-19.8-7
	l-1-0.4l-6.3-2.1c0,0-3.2-1.5-8.1-3.6c-12.5-0.7-24.9,0.5-36.6,4.5c-2.5,0.9-5,1.9-7.4,3c-1.2,0.5-2.3,1.1-3.5,1.7
	c-0.4,0.2-0.8,0.4-1.3,0.7c-6.2,3.5-12.1,7.4-17.7,11.8c-3.4,2.5-6.7,5.2-10,7.7l-1.7,1.3c-0.3-3.2-0.8-6.4-1.6-9.5
	c-0.2-0.7-0.4-1.3-0.6-1.9c-0.6-1.7-0.7-7.6-0.6-15.3c0.1-2.7,0.2-5.7,0.3-8.8c0-1.2,0.1-2.4,0.1-3.7c0.1-3.2,0.3-6.6,0.4-9.9
	c0.1-2.4,0.3-4.9,0.4-7.3c0.1-0.7,0.1-1.4,0.1-2.2c0.1-2.2,0.2-4.4,0.4-6.5c0.1-1.2,0.2-2.4,0.2-3.5c0.2-3.9,0.5-7.5,0.6-10.4
	c0.3-5.1,0.6-8.2,0.6-8.2s1-3.2,2.6-8.3c1-3.4,2.2-7.5,3.6-12.4c1.3-4.8,2.7-10.2,4-15.5c0.2-0.7,0.4-1.5,0.5-2.1
	c0.1-0.5,0.3-1.1,0.4-1.6c2.8-12.5,4.8-24.9,3.8-31.7C728.6,338,727.9,329.2,727.4,320.6z"/>
<path class="st6" d="M861.1,131l7-6.1l18.7-8.5l14.5,17.1c0,0-13.1,6.8-21.9,7.8c-1.1,0.1-2.2,0.2-3.3,0.1c-8.4-0.8-18.9-7-18.9-7
	L861.1,131z"/>
<path class="st2" d="M776.4-16.7c0.4-1.9,0.8-3.9,1.4-5.8c12.4-45.3,59.1-72,104.4-59.6c3.2,2.7,6.9,4.7,10.8,6c2.3,0.6,4.6,1,7,1.2
	l0,0c4.7,0.3,9.5,0,14.2,0.8c7,1.1,14.6,6.4,14,13.5c-0.2,2.9-1.8,5.8-1.4,8.6c0,0.2,0.1,0.5,0.2,0.7c0.7,1.8,1.9,3.3,3.5,4.3
	c18,27.3,18.7,62.5,1.8,90.6c0.5-8.3,4.8-16.2,8.2-24.1c2.3-5.4,2.6-12.9-4.6-12.6c-6.6,0.2-7.8,9.5-13.3,11.6
	c-3.8,1.4-8.1-1.1-10.2-4.4s-2.7-7.5-3.6-11.4c-1.8-8-5.6-16.4-13.1-19.7c-9.6-4.3-20.3,1.4-30.6,3.4c-6.9,1.3-13.9,1-20.9,0.8
	c-2.1-0.1-4.5-0.3-6.2-1.4s-2.9-3-4.6-4.3c-4.4-3.3-10.6-0.8-15.7,1.2c-5.9,2.3-12,3.8-18.3,4.6c-7.2,0.9-16.6,2.7-21.7-2.5
	C777.1-15.6,776.7-16.2,776.4-16.7L776.4-16.7z"/>
<path class="st7" d="M774.5-28.2c0.4-6.2,3.1-13.2,5-18.5c2.4-6.7,3.3-13.2,6.7-19.5c2.2-4.2,4.8-8.4,8.9-10.7
	c3.5-2,7.7-2.4,11.6-3.5c11-3.2,19.1-12.5,29.6-16.9c10.4-4.2,22.1-3.4,31.7,2.2c8.7,5.1,15.3,14,25,16.9c6.8,2.1,14.2,0.8,21.3,2
	s14.6,6.4,14,13.5c-0.3,3.2-2.1,6.3-1.2,9.3c0.8,2.6,3.3,4.2,5.4,5.8c3.4,2.6,6.2,5.9,8.3,9.7c0.1,0.2,0.3,0.4,0.4,0.7
	c0.1,0.2,0.3,0.4,0.4,0.7c0.6,0.9,0.8,2,0.6,3c0,0.2-0.1,0.3-0.2,0.5c-0.4,0.9,0.8,1.4,0.2,2c-2.6,2.6-0.5,6.9,1.7,9.9
	c1.4,1.9,2.5,4.1,3.2,6.3c0.6,1.6,1.1,3.3,1.8,5.1c1.6,4.2,2,9.2-0.3,13.1c-0.9,1.3-1.6,2.6-2.3,4c-1.1,3.1,0.5,6.4,1.7,9.5
	c1.9,4.8,3,9.9,3.2,15.1c0.1,2.4,0,5.1-1.9,6.8c-1.9,1.7-4.7,1.6-7.1,2.2c-2.4,0.6-4.9,3.1-3.7,5.3c-1.6,0-4.4,0-6-0.1
	c-1.3-10.1,4.1-19.3,8.1-28.7c2.3-5.4,2.6-12.9-4.6-12.6c-6.6,0.2-7.8,9.5-13.3,11.6c-3.8,1.4-8.1-1.1-10.2-4.4s-2.7-7.5-3.6-11.4
	c-1.8-8-5.6-16.4-13.1-19.7c-9.6-4.3-20.3,1.4-30.6,3.4c-6.9,1.3-13.9,1.1-20.9,0.8c-2.1-0.1-4.5-0.2-6.2-1.3s-2.9-3-4.6-4.3
	c-4.4-3.3-10.6-0.8-15.7,1.2c-5.9,2.3-12,3.8-18.3,4.6c-7.2,0.9-16.6,2.7-21.7-2.5c-1.4-1.5-2.4-3.3-2.8-5.3
	C774.4-24.5,774.3-26.3,774.5-28.2z"/>
<g class="st8">
	<path d="M941.8-31.4c0.6-0.6-0.5-1.1-0.2-1.9c-0.8,1-1.2,2.4-0.9,3.7C940.9-30.3,941.3-30.9,941.8-31.4z"/>
	<path d="M941.9-34.5c0-0.4-0.1-0.7-0.2-1.1l0,0C941.5-35.2,941.7-34.8,941.9-34.5z"/>
	<path d="M774.2-28.7c-0.3,4.3,0.4,8.3,3.2,11.1c5.1,5.2,14.5,3.4,21.7,2.5c6.3-0.8,12.4-2.4,18.3-4.6c5.1-2,11.3-4.4,15.7-1.2
		c1.7,1.2,2.8,3.2,4.6,4.3s4.1,1.3,6.2,1.3c7,0.3,14,0.6,20.9-0.8c10.3-2.1,21-7.7,30.5-3.4c7.5,3.3,11.3,11.7,13.1,19.7
		c0.9,3.9,1.5,8,3.6,11.4s6.4,5.9,10.2,4.4c5.6-2.1,6.7-11.4,13.3-11.6c4.3-0.2,5.9,2.3,6.1,5.5c0.5-4.1-0.8-7.8-6-7.6
		c-6.6,0.2-7.8,9.5-13.3,11.6c-3.8,1.4-8-1.1-10.2-4.4c-2.2-3.4-2.7-7.5-3.6-11.4c-1.8-8-5.6-16.4-13.1-19.7
		c-9.6-4.3-20.3,1.4-30.5,3.4c-6.9,1.4-13.9,1-20.9,0.8c-2.1-0.1-4.5-0.2-6.2-1.3s-2.9-3-4.6-4.3c-4.5-3.3-10.6-0.8-15.7,1.2
		c-5.9,2.3-12,3.8-18.3,4.6c-7.2,0.9-16.6,2.7-21.7-2.5C775.2-22.2,774.3-25.3,774.2-28.7z"/>
	<path d="M926.6-57c0.3-2,1.2-4.1,1.3-6.1c0-0.5,0-1,0-1.5C927.6-62,926.4-59.5,926.6-57z"/>
	<path d="M948.2,3c1.1-2.1,1.7-4.5,1.5-6.9c-0.2,1.7-0.7,3.3-1.5,4.7c-0.9,1.3-1.7,2.6-2.3,4c-0.3,1-0.4,2-0.3,3.1
		c0.1-0.3,0.1-0.6,0.2-0.9C946.5,5.6,947.3,4.2,948.2,3z"/>
	<path d="M932.1,40.5c-0.1,1.7-0.1,3.5,0.1,5.2c1.6,0,4.4,0,6,0.1c-0.4-0.7-0.4-1.5-0.1-2.2l-5.8-0.1
		C932.1,42.5,932.1,41.5,932.1,40.5z"/>
	<path d="M938.2,43.4c0.8-1.4,2.1-2.5,3.7-2.9c2.4-0.6,5.2-0.6,7-2.2c1.7-1.5,1.9-4,1.9-6.3c-0.1,1.6-0.7,3-1.8,4.1
		c-1.8,1.7-4.6,1.6-7,2.2C939.7,38.9,937.3,41.3,938.2,43.4z"/>
</g>
<path class="st2" d="M747.2,474.2c1.8-5,3.2-10,4.3-15.2c0.2-0.7,0.3-1.4,0.5-2.1c1.7-7.8,2.9-14.9,2.9-14.9l2.7-13.3l5.5-27.1
	l0.4-1.9l2.1-10.2c0,0,5.2-17.9,8.9-25.6l8.4-39.4c0,0,8.2-38.3,7.7-44.2s13.6-40.9,13.6-40.9s17.1-35.7,17.9-39.3
	c0,0,8-15.6,8-22.1c0-3.7,2.8-10.1,5.2-14.9c0.1-0.1,0.1-0.3,0.2-0.4c0.1-0.3,0.3-0.6,0.4-0.8c1.3-2.5,2.4-4.4,2.7-5l0.1-0.2
	l0.2,0.1l3,0.7l11.4,2.6c0,0,0,3,0,6.7c0,0.5,0,1,0,1.6c0.1,4.6,0.3,9.7,0.8,10.6c1,1.6-3.2,31-6.3,35.8s-15.6,30.4-16.4,44.3
	c0,0-4.5,25-4.8,29.2c-0.2,3.1-3.1,18.6-5.2,27.7c-0.3,1.4-0.6,2.7-0.9,3.7c-0.1,0.3-0.1,0.6-0.2,0.8l0,0c-0.2,0.6-0.4,1.2-0.6,1.8
	l-0.2,1.9l-0.3,3.2l-0.1,1.5l-0.7,8.1l-1.6,18.2l-2,55.4l-0.1,2.2l-0.6,18.8c0,0-2.5,21.7-5.4,42.8c-0.1,0.7-0.2,1.4-0.3,2.1
	c-0.1,0.7-0.2,1.4-0.3,2.1l-1-0.4l-6.3-2.1c0,0-3.2-1.5-8.1-3.6c-12.5-0.7-24.9,0.5-36.6,4.5c-2.5,0.9-5,1.9-7.4,3
	c-1.2,0.5-2.3,1.1-3.5,1.7C745.6,479,746.3,476.6,747.2,474.2z"/>
<path class="st6" d="M746.1,474.3c1.8-5,3.2-10.1,4.3-15.3c0.2-0.7,0.3-1.4,0.5-2.2c1.6-7.9,2.9-14.9,2.9-14.9l4-19.7l4.4-21.4
	l0.4-1.9l1.9-9.5c0,0,5.2-17.9,8.9-25.6l8.4-39.4c0,0,8.2-38.3,7.7-44.2c-0.5-5.9,13.6-40.9,13.6-40.9s17.1-35.7,17.9-39.3
	c0,0,8-15.6,8-22.1c0-3.8,3-10.4,5.4-15.3l0.2-0.4c1.7-3.3,3.1-5.6,3.1-5.6l1,0.2l0.4,0.1l2.7,0.6l10.6,2.5c0,0,0,2.4,0,5.5
	c0,0.4,0,0.8,0,1.2c0.1,5,0.2,11.1,0.8,12.1c1,1.6-3.2,31-6.3,35.8c-3.1,4.8-15.6,30.4-16.4,44.3c0,0-4.5,25-4.8,29.2
	c-0.3,3.4-3.6,21.7-5.8,30.2l0,0c-0.1,0.2-0.1,0.5-0.2,0.7l-0.1,0.5c-0.3,1-0.5,1.8-0.8,2.4c-0.1,0.1-0.1,0.1-0.1,0.2l0,0.5
	l-0.2,2.4l-0.3,3.3l-0.3,3.2l-0.2,2.4l-0.3,3.6l-1.6,17.4l-2,55.3l-0.1,2.2l-0.6,19c0,0-2.5,21.6-5.4,42.7c-0.1,0.6-0.2,1.2-0.3,1.9
	c-0.1,0.7-0.2,1.4-0.3,2.1l-6.3-2.1c0,0-3.2-1.5-8.1-3.6c-12.5-0.7-24.9,0.5-36.6,4.5c-2.5,0.9-5,1.9-7.4,3
	c-1.2,0.5-2.3,1.1-3.5,1.7c-0.4,0.2-0.8,0.4-1.3,0.7C744.4,479.5,745.2,476.8,746.1,474.3z"/>
<path class="st3" d="M770.8-31.4c0.1-0.1,0.2-0.2,0.3-0.3c0,0,0.1-0.1,0.1-0.1c0.3-0.3,0.7-0.8,1.2-1.2c0.1-0.1,0.3-0.3,0.4-0.4
	c0.5-0.5,1-1,1.6-1.4c1.5-1.2,0.9-4.5,0.9-4.5c1.5-11.6,3.1-37.1,18.7-62.6s47.7-31.9,47.7-31.9l1.9-2.9c10.7-9,18.4-4.4,21-2.3
	c0.3,0.2,0.6,0.5,0.9,0.8l9.4,1.7l2.9,0.5c0,0,16.5,6.7,33,14.6c9.9,4.8,17.9,12.8,22.7,22.8c12,12.6,15.6,46.8,15.8,49.2
	c0.3,2.4,5.6,10.7,5.6,10.7l-0.1,4.2c-1.4,0.5-5.6,0-10.5-0.7c-3.9-0.6-8.2-1.4-11.6-2.1l-2.3-0.4c-2-0.4-3.5-0.7-4.1-0.8
	c-2.9-0.6-31.7,7.1-33.4,8.7S842.6-30,842.6-30s-34.4,0.5-41.4,2.4s-20.5,2-24,1.9c-3.4-0.1-7.1-5.2-7.1-5.2L770.8-31.4z"/>
<path class="st5" d="M770.8-31.5c0.1-0.1,0.2-0.2,0.3-0.3c0,0,0.1-0.1,0.1-0.1c0.3-0.3,0.7-0.8,1.2-1.2c0.1-0.1,0.3-0.3,0.4-0.4
	c0.5-0.5,1-1,1.6-1.4c1.5-1.2,0.9-4.5,0.9-4.5s27.3-6,64.3-10.9s91.7,8.7,91.7,8.7l-0.2,0.8l-0.6,3.2c-2-0.4-3.5-0.7-4.1-0.8
	c-2.9-0.6-31.7,7.1-33.4,8.7S842.6-30,842.6-30s-34.4,0.5-41.4,2.4s-20.5,2-24,1.9c-3.4-0.1-7.1-5.2-7.1-5.2L770.8-31.5z"/>
<path class="st2" d="M774.5-28.3c5,1.8,10.4,2.5,15.7,2c3-0.3,6-0.8,8.9-1.6c14.7-3.7,76.9-2.1,84.6-1.9s19.1-4.6,19.1-4.6
	c12.3-5.7,26.7-4.9,36.6-3.2c0.6,0.1,1.1,0.2,1.7,0.3c3.5,0.6,7,1.5,10.3,2.6l0.7,0.3l0,0c2.7,2.4,4.6,6.3,3.9,12.8
	c-0.4,0.6-0.8,1.1-1.3,1.6c1.4-7.1-5-11.5-12.7-13.5c-1.4-0.4-2.8-0.7-4.3-0.9c-5.6-0.9-11.4-0.6-14.8,0.7
	c-9.4,3.5-32.7,7.5-32.7,7.5s-37.6,2.4-50.8-0.1c-10.9-2-29.2,0.9-35.1,2c-1.6,0.3-3.1,0.5-4.7,0.7c-5.5,0.6-18.1,1.9-24.9,1.1
	C774.4-24.5,774.3-26.4,774.5-28.3z"/>
<path class="st2" d="M770.8-31.6c0.1-0.1,0.2-0.2,0.3-0.3c0,0,0.1-0.1,0.1-0.1c6,2.8,12.6,4,19.2,3.4c3-0.3,6-0.8,8.9-1.6
	c14.7-3.7,76.9-2.1,84.6-1.9c7.6,0.3,19.1-4.6,19.1-4.6c9.1-4.2,19.4-4.9,28.1-4.3c7,0.5,13.9,1.8,20.6,3.9c1.1,0.5,2.2,1,3.2,1.7
	l0,0.8c-1.4,0.5-5.6,0-10.5-0.7c-3.8-1.2-7.7-1.9-11.6-2.1l-2.3-0.4c-2-0.4-3.5-0.7-4.1-0.8c-2.9-0.6-31.7,7.1-33.4,8.7
	S842.6-30,842.6-30s-34.4,0.5-41.4,2.4s-20.5,2-24,1.9c-3.4-0.1-7.1-5.2-7.1-5.2L770.8-31.6z"/>
<path class="st3" d="M923-35c-9.4,3.5-32.7,7.5-32.7,7.5s-37.6,2.4-50.8-0.1c-11-2-29.2,0.9-35.1,2c-1.5,0.3-3.1,0.5-4.6,0.7
	c-6,0.7-20.3,2.1-26.5,0.9c-8-1.5-8.5-7.9-7.5-9c0.3-0.3,1.2,0,2.2,0.6c6.7,3.9,14.5,5.7,22.3,5c3-0.3,6-0.8,8.9-1.6
	c14.7-3.7,76.9-2.1,84.6-1.9c7.6,0.3,19.1-4.6,19.1-4.6c21.3-9.8,48.6-0.4,48.6-0.4c15.6,6.7,3.1,15.6,3.1,15.6
	C958.5-34.3,932.5-38.5,923-35z"/>
<path class="st2" d="M864.4-139c0.3,0.2,0.6,0.5,0.9,0.8l9.4,1.7c-5.4,4-18.6,13.8-19.6,15.2C855.1-121.2,857.3-132,864.4-139z"/>
<polygon class="st2" points="882.8,-66.4 882.9,-59.4 898.9,-58.3 894.9,-64.7 "/>
<polygon class="st2" points="789.3,-60.2 784.7,-53.6 794.9,-54.9 797,-60.5 "/>
<path class="st2" d="M917.6,180.7c9.4,1.6,46.9-44.3,48-46.1C965.6,134.6,908.2,179.1,917.6,180.7z"/>
<path class="st2" d="M836.2,185.1c-1.2-3.3,7.8-11.4,7.8-11.4S837.4,188.4,836.2,185.1z"/>
<path class="st2" d="M939.8,271.5c4-1-2.4-37.1-2.4-37.1S935.8,272.5,939.8,271.5z"/>
<path class="st2" d="M819.4,398.3c2.4-1.2,13.8-24.5,15.2-28.1C834.5,370.3,816.9,399.5,819.4,398.3z"/>
<path class="st2" d="M722.2,280.7c2.1-2.7-6.8-10.4-7.1-11.7C715.2,269,720.1,283.3,722.2,280.7z"/>
<path class="st2" d="M781.3,361.4c3.6-3.6,2.4-22.7,2.3-23.6C783.5,337.7,777.7,364.9,781.3,361.4z"/>
<path class="st2" d="M660.7,401.2c0-0.3,0.1-0.6,0.1-0.9c0-0.1,0-0.2,0-0.3c0.1-0.4,0.1-0.7,0.2-1.1c0.5-1.9,1.1-3.8,2-5.5
	c0.5-0.9,1-1.8,1.6-2.7c1.2-1.8,2.6-3.4,4.2-4.9c9.2-8.1,24.6-10.2,39.6-8.9l0.8,0c5.3,0.5,10.5,1.4,15.7,2.7
	c6.2,1.5,12.2,3.7,17.9,6.6c0.7,0.4,1.4,0.8,2,1.2c0.6,0.3,1.1,0.7,1.6,1.1c5.8,4.1,9.5,7.1,12.1,9.2c1.4,1.2,2.6,2.1,3.5,2.9
	c0.4,0.3,0.7,0.5,1,0.8c2.3,1.7,4,2.6,8.1,3.6c0,0,19.1,5.4,28.1,5.5c4.8,0.3,9.6,0.9,14.4,1.7l1.1,0.2c14.6,2.3,33.1,5.9,33.1,5.9
	s29.9,2.4,49.4-2.5l1.3-0.3c4.5-1.3,9.2-2.1,14-2.4c0.8,0,1.5,0.1,2.2,0.1c5.6,0.3,7,2.4,7,2.4l2.3,3.4l1,1.4l25.5,37.8l0.2,0.2
	l27.4,40.6l1.3,2c0,0-2.7,0.4-6.9,0.9l-1.7,0.2c-10.8,1.3-29.5,3.2-40.9,2.1c-11.4,0.1-22.8-0.5-34.2-1.9c-4.6-0.6-9.1-1.6-13.6-3
	c0,0-48.6-11.8-54.2-14c-3.4-1.4-13-4.7-19.8-7l-1-0.4l-6.3-2.1c0,0-3.2-1.5-8.1-3.6c-9.4-4-25-10.1-36.1-12.5
	c-1.7-0.4-3.3-0.6-5-0.8c-0.4,0-0.7,0-1.1,0c-1.3-0.1-2.5,0-3.8,0.2c0,0-5.4-1.6-13.4-4.5c-1.6-0.6-3.3-1.2-5.1-1.9
	c-4.6-1.7-9.8-3.8-15.2-6.1c-1.8-0.8-3.6-1.6-5.4-2.4c-1.2-0.5-2.4-1.1-3.6-1.7c-3-1.4-6-2.9-8.9-4.5c-2.7-1.5-5.4-3-8-4.5
	C671.5,424.3,659.5,413.1,660.7,401.2z"/>
<path class="st4" d="M921.7,413.5c0,0-3.6-5.4-23.1,0c-19.5,5.4-50.7,2.8-50.7,2.8s-39.6-7.7-48.6-7.8c-8.9-0.1-28.1-5.5-28.1-5.5
	c-9.2-2.3-6.4-3.5-24.8-16.5c-18.3-13-77.5-22.5-85.4,10.2c-7.8,32.7,85.6,60.3,85.6,60.3c12.1-2.5,54.1,16.8,54.1,16.8
	s21.6,7.3,27.2,9.5c5.5,2.2,54.2,14,54.2,14c16.6,5.5,47.7,4.9,47.7,4.9c16.9,1.7,49.5-3.2,49.5-3.2L921.7,413.5z"/>
<path class="st2" d="M924.5,405.3c1.5-0.9,2.5-1.9,2.8-2.7c0.4-1.5,2.2-1.6,3.9-1.3c1.4,0.3,2.8,0.7,4.1,1.2c0,0,0.1-0.2,0.2-0.6
	c0.5-1.5,1.9-5.3,3.4-9c0.9-2.5,2.1-5,3.5-7.3c2.3-3.2,5-7.1-4.4-11.4c-4.6-2.1-7.2-9.8-8.1-18.5c-1-9.1-0.1-19.1,2.3-25l1.1-2.8
	c3.9-9.5,5.2-13.4,5.2-13.4s3.9-14.4,3-23.2c-0.1-1.7-0.6-3.3-1.3-4.8c-4.1-6.7,11.3-21.1,11.3-21.1s0.2-0.6,0.5-1.7
	c3.7-11.3,26.6-75.7,63.3-73.1c8.4,0.6,17.5,4.7,27.3,13.7c3.7,3.4,7,7.1,10,11c0.3,0.3,0.5,0.7,0.8,1c1.7,2.4,3.3,4.8,4.8,7.4
	c0.5,0.9,1.1,1.9,1.6,2.9c0.7,1.3,1.3,2.6,2,4l0.5,1c4.3,9.7,6.7,20.1,7.1,30.8c0,0.3,0,0.7,0,1c0.1,4.7-0.1,9.3-0.7,13.9
	c-0.1,0.3-0.1,0.7-0.2,1c-0.4,2.5-0.8,5-1.4,7.5l-2.2,9.1c0,0,0,3.7,0.2,8.3c0.1,1.8,0.2,3.6,0.4,5.6c0.2,2.3,0.4,4.6,0.8,6.7
	c0.5,3,1.1,5.5,2.1,6.9c0.3,0.5,0.5,1,0.7,1.5c0.1,0.3,0.2,0.6,0.3,1c2.5,8.5,2.7,30.2,2.7,30.2s0,0,0,0.2s0,0.5,0,1
	c0,4.7-0.6,9.4-1.6,14l-0.2,1c-1.9,7.4-5.7,15.7-13.3,20.9c0,0-0.4,4.6-1.2,9.2c-0.1,0.3-0.2,0.7-0.2,1c-0.4,2.3-1,4.6-1.8,6.7
	c-0.2,0.5-0.5,0.9-1,1.2c0,0,0.2,2.9,0.1,6.9c0,6.7-0.5,16-2.8,18.5c-3.2,3.3-6.7,8.6-7.5,11.8c-0.2,0.5-0.2,1-0.2,1.5
	c-0.1,1.3-0.5,2.5-1.2,3.6c-1.3,2.1-2.7,4.2-4.2,6.1c0,0,0.2,1.5,0.3,3.6c0,0.3,0,0.7,0,1c0.1,3.4-0.2,8.1-2,11.4
	c-1,1.7-2.7,5-4.8,8.6c-2.7,1.8-5.5,3.6-8.3,5.3c-2.7,1.6-5.4,3.1-8.2,4.5c-0.9,0.5-1.8,0.9-2.8,1.4c-2.6,1.3-5.3,2.5-8,3.7
	l-1.7,0.7c-2.6,1.1-5.2,2.1-7.9,3l-1.7,0.6c-2.8,1-5.6,1.8-8.4,2.6l-1.7,0.5l-1.2,0.3c0.3,0.1,0.6,0.2,1,0.2c-0.6,0-1.1,0-1.7,0
	c-3.3-0.3-6.8-2.2-9.1-3.6c-0.9-0.6-1.8-1.2-2.6-1.9l0,0c-6.5-7.8-12.5-16-18-24.5c-3.7-5.7-7-11.7-9.8-17.9
	c-1.3-2.9-2.4-5.9-3.3-8.9c0,0-20.9-26.1-24.5-35.7c-0.3-0.7-0.5-1.4-0.5-2.2c0,0,0-0.1,0-0.1C912,411,920.1,408.2,924.5,405.3z"/>
<path class="st1" d="M924.4,406.7c2.6-1.3,4.7-2.7,5-3.9c0.2-0.8,0.9-1.4,1.8-1.4c1.5-0.1,2.9,0.1,4.3,0.6c0.7,0.2,1.3,0.4,2,0.7
	c0,0,1.8-5,3.6-9.6c0.9-2.5,2.1-5,3.5-7.3c2.3-3.2,5-7.1-4.3-11.4c-4.6-2.1-7.2-9.8-8.1-18.5c-1-9.1-0.1-19.1,2.3-25
	c0.4-1,0.7-1.9,1.1-2.8c3.9-9.5,5.2-13.4,5.2-13.4s3.9-14.4,3-23.2c-0.1-1.7-0.6-3.3-1.4-4.8c-4.1-6.7,11.3-21.1,11.3-21.1
	s0.2-0.6,0.5-1.7c3.6-11.1,25.7-73.1,61.1-73.2c9,0,18.9,3.9,29.6,13.7c3.6,3.4,6.9,7,9.9,11l0.8,1c0.9,1.3,1.9,2.6,2.7,4
	c0.6,0.8,1.1,1.7,1.6,2.6c1.5,2.5,2.8,5.1,4,7.7c0.2,0.3,0.3,0.7,0.5,1c4.3,9.7,6.7,20.1,7.1,30.8c0.1,0.3,0,0.7,0,1
	c0.1,4.7-0.1,9.3-0.7,13.9c-0.1,0.3-0.1,0.7-0.2,1c-0.4,2.5-0.8,5-1.4,7.5l-2.2,9.1c0,0,0,6.9,0.6,13.9l0.1,1
	c0.5,5.2,1.3,10.4,2.8,12.5c0.3,0.5,0.6,1,0.8,1.5c0.1,0.3,0.2,0.6,0.3,1c2.5,8.6,2.6,30.4,2.6,30.4s0,0.1,0,0.2
	c0.1,5.4-0.5,10.7-1.8,15.9c-1.9,7.4-5.7,15.7-13.3,20.9c0,0-0.4,4.6-1.2,9.2l-0.2,1c-0.7,3.9-1.7,7.5-2.8,7.9c0,0,0.1,2.5,0.1,5.9
	c0,0.3,0,0.7,0,1c0,6.7-0.5,16-2.8,18.5c-3.2,3.3-6.7,8.6-7.6,11.8c-0.1,0.3-0.2,0.7-0.2,1c0,0.2,0,0.3,0,0.5c0.1,1-0.7,2.8-1.8,4.5
	c-0.6,0.9-1.2,1.9-1.8,2.7c-1,1.4-1.9,2.5-1.9,2.5s0.2,1.5,0.3,3.6c0,0.3,0,0.7,0,1c0.1,3.4-0.2,8.1-2,11.4c-0.7,1.3-1.9,3.4-3.3,6
	c-1.2,0.9-2.5,1.7-3.7,2.6c-2.7,1.8-5.5,3.6-8.3,5.3c-2.7,1.6-5.4,3.1-8.2,4.5c-0.9,0.5-1.8,0.9-2.8,1.4c-2.6,1.3-5.3,2.5-8,3.7
	l-1.7,0.7c-2.6,1.1-5.2,2.1-7.9,3l-1.7,0.6c-2.8,1-5.6,1.8-8.4,2.6l-1.7,0.5l-1.2,0.3c-2.9-0.8-5.6-2-8-3.7
	c-1.4-0.9-2.2-1.6-2.2-1.6l-0.2-0.3c-7.3-8.7-13.9-17.9-19.9-27.6c-2.9-4.7-5.4-9.5-7.7-14.5c-1.3-2.9-2.4-5.9-3.3-8.9
	c0,0-20.9-26.2-24.4-35.7c-0.3-0.7-0.5-1.5-0.5-2.2l0,0C917.7,409.8,921.1,408.3,924.4,406.7z"/>
<path class="st2" d="M1002,297c-26.1,8.2-57.1,46-57.1,46s48.4-30.2,56.2-34.9s44.4,11,47.9,11.3C1049,319.4,1028.1,288.8,1002,297z
	"/>
<path class="st2" d="M950.5,387.3c5.8-4.9,43.2-11.1,43.2-11.1L950.5,387.3z"/>
<path class="st2" d="M998.8,444.7c0,0,10.9,18.4,11.9,18.4s-11.4-30.6-11.9-31.2L998.8,444.7z"/>
<path class="st2" d="M984.3,399.4c1.3-0.3-9.5-4.5-9.5-4.5C975.2,396.5,983.1,399.7,984.3,399.4z"/>
<path class="st2" d="M974.8,454c1.2,1.9,7.4-9.4,9.4-13.2C984.2,440.9,973.6,452.2,974.8,454z"/>
<path class="st2" d="M878.5,118c9.6-3,22.1-18.6,30-24.5c7.8-5.9,23.3-10.9,23.8-25.8c0,0,5.9-2.7,8.5,7.2c0,0,4.5,18,7.7,21
	c2.2,2.3,4.1,5,5.6,7.8c0,0,0.6,0.1,1.6,0.4c0,5.2-0.5,11.2-2.1,13.1c-3,3.5-5.5,10.7-5.9,13.3c-0.5,2.5-6.7,3.4-6.4,7.1
	c0.3,3.6-12.5,15.6-12.5,15.6s-16-2-25.2-7.8c-9.3-5.8-20.6-26.2-25.9-22c-5.2,4.2-17.9,12.5-17.9,12.5l-1.5-2.3
	C861.2,130.4,870.6,120.4,878.5,118z"/>
<path class="st1" d="M878.6,115.8c9.6-3,22.1-18.6,30-24.5c7.8-5.9,23.3-10.9,23.8-25.8c0,0,5.9-2.7,8.5,7.2c0,0,4.5,18,7.7,21
	c2.2,2.3,4.1,5,5.6,7.8l1.6,0.4c0,5.2-0.5,11.2-2.1,13.1c-3,3.5-5.5,10.7-5.9,13.3c-0.5,2.5-6.7,3.5-6.4,7.1
	c0.3,3.6-12.5,15.6-12.5,15.6s-16-2-25.2-7.8c-9.3-5.8-20.6-26.2-25.9-22c-5.2,4.2-18,12.5-18,12.5l-1.5-2.3
	C861.3,128.2,870.7,118.3,878.6,115.8z"/>
<path class="st2" d="M861.8,132.4c8.5,1.7,17.5,8.9,17.5,8.9l0,0c-1.1,0.1-2.2,0.2-3.3,0.1c-8.4-0.8-18.9-7-18.9-7L861.8,132.4z"/>
<path class="st2" d="M834.4,162.6c1.8-3.5,3.3-6.1,3.3-6.1l14.6,3.4c0,0,0,3,0,6.7c-4.2-8.1-17.9-3.3-17.9-3.3
	S834.4,163.1,834.4,162.6z"/>
<path class="st6" d="M868.9,151.6c-6.1,3.8-15.5,16.8-15.5,16.8c-2.3-11.9-18.9-6.1-18.9-6.1s0.6-12.4,1.4-14.9
	c0.8-2.5-4.2-15.1-4.2-15.1s15.8-0.1,24-0.6c7.8-0.6,23.7,9.7,23.7,9.7C876.5,145.4,873,148.8,868.9,151.6z"/>
<path class="st2" d="M789,140.4c2-1.5,3.3-2.7,3.6-3.4c1.6-3.6,18.9-8.1,18.9-8.1s11.3-42.6,20.2-37.6c0,0,1.6,29.6,4,31.5
	c2.1,1.6,9,8,12.2,10.3c-6.5,2.3-18.5,5.3-21.4,3.6c-4.6-2.7-9.5-10.5-13.4-3.7c-3.9,6.8-21,16.8-25.7,16.6
	C785.6,149.5,786.9,145.4,789,140.4z"/>
<path class="st1" d="M789.1,138.2c2-1.5,3.3-2.7,3.6-3.4c1.6-3.6,18.9-8.1,18.9-8.1s11.3-42.6,20.2-37.6c0,0,1.6,29.6,4,31.5
	c2.1,1.6,6.7,8.2,9.9,10.5c-6.5,2.3-16.1,5.1-19.1,3.4c-4.6-2.7-9.5-10.5-13.4-3.7c-3.9,6.8-21,16.8-25.7,16.6
	C785.7,147.3,786.9,143.2,789.1,138.2z"/>
<path class="st9" d="M712.9,465.8c-0.1,1.2-1.1,2.2-2.4,2.1l-64.5-4.3c-2.1-0.1-4.1-1-5.6-2.3L495.3,333.7c-5.8-6.8-1.6-9.6-1.6-9.6
	l59.1,0.4c2.1,0,4.1,0.8,5.6,2.2L712.2,464C712.7,464.4,712.9,465.1,712.9,465.8z"/>
<path class="st4" d="M549.9,374.1c-11.7,0.9-23.6,24.7,13.2,72c36.8,47.3,73.1-1,73.1-1C625.4,425.9,561.5,373.2,549.9,374.1z"/>
<path class="st0" d="M407.1-127.3c-0.9-7.7-3.9-15-8.7-21.1c0,0-0.8,0.6,0.6,3.9s5.1,15,5.1,15l-7-5.3c-4-19.8-13.9-26.2-13.9-26.2
	c5.9,8,10.7,24.2,10.7,24.2l-11.3-6.6c-4.9-21.2-16.5-25.6-16.5-25.6c6.5,5.8,13.5,24,13.5,24l-12.4-5c-5.3-18.2-17-20.7-17-20.7
	c7.8,5.9,13.8,19.4,13.8,19.4c-1.5-1.5-14.3-3.1-14.3-3.1c-7.9-12.6-17-9.1-17-9.1c7.5,1.8,13.1,8.8,13.1,8.8
	c-12.8-1.5-25.2,4.8-25.2,4.8c8.7-3.7,25.1-2.3,25.1-2.3c1,2-15.8,14.4-15.8,14.4c9.2,0.1,19.1-13.6,19.1-13.6
	c3.6-0.4,15.1,3.8,15.1,3.8c0.6,6-26.1,21.7-26.1,21.7c15.7-1.3,29-20.6,29-20.6l12.2,5.2c-5.2,12-29.5,23.1-29.5,23.1
	c18.9-1.7,32.1-21.8,32.1-21.8l11.4,6.9c-3.7,11.3-27.3,21.1-27.3,21.1c16.6-0.8,30-19.2,30-19.2s7.3,5,7.7,5.5
	c2,2.5-16.4,13.2-16.4,13.2c10.7-0.9,18.4-11.5,18.4-11.5l14,11c-2.1,1.5-14.4-0.7-14.4-0.7C361-101.5,338-120,338-120l0,0
	c-4.5-1.7-8.2-4.7-10.8-8.7c-1.9-3-3.5-6.2-4.7-9.5c-3.2-9.4-7.7-7.1-7.7-7.1c-0.5-12.2,11.2-16,11.2-16
	c54.2-42.8,95.8,45.1,95.8,45.1C420.9-115.5,407.1-127.3,407.1-127.3z"/>
<path class="st0" d="M229.3-81.2c-0.4-3.5-1.8-6.8-3.9-9.5c0,0-0.3,0.3,0.3,1.8c0.6,1.5,2.3,6.8,2.3,6.8l-3.2-2.4
	c-1.8-8.9-6.3-11.8-6.3-11.8c2.6,3.6,4.8,10.9,4.8,10.9l-5.1-3c-2.2-9.6-7.5-11.5-7.5-11.5c3,2.6,6.1,10.9,6.1,10.9l-5.5-2.3
	c-2.4-8.2-7.7-9.3-7.7-9.3c3.5,2.7,6.2,8.8,6.2,8.8c-0.7-0.7-6.4-1.4-6.4-1.4c-3.6-5.7-7.7-4.1-7.7-4.1c2.3,0.7,4.3,2.1,5.9,4
	c-5.7-0.7-11.4,2.2-11.4,2.2c3.9-1.7,11.3-1,11.3-1c0.5,0.9-7.1,6.5-7.1,6.5c4.2,0,8.6-6.1,8.6-6.1c1.6-0.2,6.8,1.7,6.8,1.7
	c0.3,2.7-11.8,9.8-11.8,9.8c7.1-0.6,13.1-9.3,13.1-9.3l5.5,2.4c-2.4,5.4-13.4,10.4-13.4,10.4c8.5-0.8,14.5-9.8,14.5-9.8l5.2,3.1
	c-1.7,5.2-12.3,9.6-12.3,9.6c7.5-0.4,13.6-8.7,13.6-8.7s3.3,2.3,3.5,2.5c0.9,1.1-7.4,6-7.4,6c4.9-0.4,8.3-5.2,8.3-5.2l6.3,5
	c-0.9,0.7-6.5-0.3-6.5-0.3c-20,5.5-30.4-2.9-30.4-2.9l0,0c-2-0.8-3.7-2.1-4.9-4c-0.9-1.3-1.6-2.8-2.1-4.3c-1.4-4.3-3.5-3.2-3.5-3.2
	c-0.2-5.5,5-7.2,5-7.2C217.2-116,236-76.2,236-76.2C235.6-75.9,229.3-81.2,229.3-81.2z"/>
<path class="st0" d="M445.9-28.4c-0.4-3.5-1.8-6.8-3.9-9.5c0,0-0.3,0.3,0.3,1.8c0.6,1.5,2.3,6.8,2.3,6.8l-3.2-2.4
	c-1.8-8.9-6.3-11.8-6.3-11.8c2.6,3.6,4.8,10.9,4.8,10.9l-5.1-3c-2.2-9.6-7.5-11.5-7.5-11.5c2.9,2.6,6.1,10.9,6.1,10.9l-5.6-2.3
	c-2.4-8.2-7.7-9.3-7.7-9.3c3.5,2.7,6.2,8.8,6.2,8.8c-0.7-0.7-6.4-1.4-6.4-1.4c-3.6-5.7-7.7-4.1-7.7-4.1c2.3,0.7,4.3,2.1,5.9,4
	c-5.7-0.7-11.4,2.2-11.4,2.2c3.9-1.7,11.3-1,11.3-1c0.5,0.9-7.1,6.5-7.1,6.5c4.2,0,8.6-6.2,8.6-6.2c1.6-0.2,6.8,1.7,6.8,1.7
	c0.3,2.7-11.8,9.8-11.8,9.8c7.1-0.6,13.1-9.3,13.1-9.3l5.5,2.4c-2.4,5.4-13.4,10.4-13.4,10.4c8.5-0.8,14.5-9.8,14.5-9.8l5.2,3.1
	c-1.7,5.2-12.3,9.6-12.3,9.6c7.5-0.4,13.6-8.7,13.6-8.7s3.3,2.3,3.5,2.5c0.9,1.1-7.4,6-7.4,6c4.8-0.4,8.3-5.2,8.3-5.2l6.3,5
	c-0.9,0.7-6.5-0.3-6.5-0.3c-20,5.5-30.4-2.9-30.4-2.9l0,0c-2-0.8-3.8-2.1-4.9-4c-0.9-1.3-1.6-2.8-2.1-4.3c-1.4-4.3-3.5-3.2-3.5-3.2
	c-0.2-5.5,5-7.2,5-7.2c24.5-19.3,43.3,20.4,43.3,20.4C452.2-23.1,445.9-28.4,445.9-28.4z"/>
</svg>
