<?xml version="1.0" encoding="utf-8"?>
<!-- Generator: Adobe Illustrator 19.0.0, SVG Export Plug-In . SVG Version: 6.00 Build 0)  -->
<svg version="1.1" id="Layer_1" transform="matrix(.69 0 0 .69 15.5 15.5)"
	 xmlns="http://www.w3.org/2000/svg" xmlns:xlink="http://www.w3.org/1999/xlink" x="0px" y="0px" viewBox="-456 165 100 100"
	 style="enable-background:new -456 165 100 100;" xml:space="preserve">
<style type="text/css">
	.st0{fill:#F78620;}
</style>
<path class="st0" d="M-421.7,253.8h13.8c0.3,0,0.5-0.2,0.5-0.5c0-0.3-0.2-0.5-0.5-0.5h-13.8c-0.3,0-0.5,0.2-0.5,0.5
	C-422.2,253.5-422,253.8-421.7,253.8z M-405.7,253.8h2.3c0.3,0,0.5-0.2,0.5-0.5c0-0.3-0.2-0.5-0.5-0.5h-2.3c-0.3,0-0.5,0.2-0.5,0.5
	C-406.2,253.5-406,253.8-405.7,253.8z M-401.5,253.8h1.5c0.3,0,0.5-0.2,0.5-0.5c0-0.3-0.2-0.5-0.5-0.5h-1.5c-0.3,0-0.5,0.2-0.5,0.5
	C-402,253.5-401.8,253.8-401.5,253.8z M-404.7,256c0,0.3,0.2,0.5,0.5,0.5h13.8c0.3,0,0.5-0.2,0.5-0.5c0-0.3-0.2-0.5-0.5-0.5h-13.8
	C-404.4,255.4-404.7,255.7-404.7,256z M-409.2,256c0,0.3,0.2,0.5,0.5,0.5h2.3c0.3,0,0.5-0.2,0.5-0.5c0-0.3-0.2-0.5-0.5-0.5h-2.3
	C-408.9,255.4-409.2,255.7-409.2,256z M-410.5,255.4h-1.5c-0.3,0-0.5,0.2-0.5,0.5c0,0.3,0.2,0.5,0.5,0.5h1.5c0.3,0,0.5-0.2,0.5-0.5
	C-410,255.7-410.2,255.4-410.5,255.4z M-428.6,215.1l-2,0.9c-0.3,0.1-0.4,0.5-0.3,0.7c0.1,0.2,0.3,0.4,0.5,0.4c0.1,0,0.2,0,0.2-0.1
	l2-0.9c0.3-0.1,0.4-0.5,0.3-0.7C-428,215.1-428.4,214.9-428.6,215.1z M-440.8,220.5l-2,0.9c-0.3,0.1-0.4,0.5-0.3,0.7
	c0.1,0.2,0.3,0.4,0.5,0.4c0.1,0,0.2,0,0.2-0.1l2-0.9c0.3-0.1,0.4-0.5,0.3-0.7C-440.2,220.5-440.6,220.4-440.8,220.5z M-432.7,216.9
	l-2,0.9c-0.3,0.1-0.4,0.5-0.3,0.7c0.1,0.2,0.3,0.4,0.5,0.4c0.1,0,0.2,0,0.2-0.1l2-0.9c0.3-0.1,0.4-0.5,0.3-0.7
	C-432.1,216.9-432.4,216.8-432.7,216.9z M-444.9,222.3l-2,0.9c-0.3,0.1-0.4,0.5-0.3,0.7c0.1,0.2,0.3,0.4,0.5,0.4
	c0.1,0,0.2,0,0.2-0.1l2-0.9c0.3-0.1,0.4-0.5,0.3-0.7C-444.3,222.3-444.6,222.2-444.9,222.3z M-453.3,226.7c-0.1-0.3-0.5-0.4-0.7-0.3
	l-1,0.5c-0.2,0.1-0.4,0.3-0.4,0.5s0.1,0.4,0.4,0.5l1,0.5c0.1,0.1,0.2,0.1,0.2,0.1c0.2,0,0.4-0.1,0.5-0.4c0.1-0.2,0-0.5-0.2-0.7
	C-453.3,227.3-453.1,227-453.3,226.7z M-409.3,248.4c0.1,0.1,0.2,0.1,0.2,0.1c0.2,0,0.4-0.1,0.5-0.4c0.1-0.3,0-0.6-0.3-0.7l-2-0.9
	c-0.3-0.1-0.6,0-0.7,0.3c-0.1,0.3,0,0.6,0.3,0.7L-409.3,248.4z M-421.5,242.9c0.1,0.1,0.2,0.1,0.2,0.1c0.2,0,0.4-0.1,0.5-0.4
	c0.1-0.3,0-0.6-0.3-0.7l-2-0.9c-0.3-0.1-0.6,0-0.7,0.3c-0.1,0.3,0,0.6,0.3,0.7C-423.4,242-421.5,242.9-421.5,242.9z M-429.6,239.3
	c0.1,0.1,0.2,0.1,0.2,0.1c0.2,0,0.4-0.1,0.5-0.4c0.1-0.3,0-0.6-0.3-0.7l-2-0.9c-0.3-0.1-0.6,0-0.7,0.3c-0.1,0.3,0,0.6,0.3,0.7
	C-431.5,238.4-429.6,239.3-429.6,239.3z M-417.4,244.8c0.1,0.1,0.2,0.1,0.2,0.1c0.2,0,0.4-0.1,0.5-0.4c0.1-0.3,0-0.6-0.3-0.7l-2-0.9
	c-0.3-0.1-0.6,0-0.7,0.3c-0.1,0.3,0,0.6,0.3,0.7L-417.4,244.8z M-413.4,246.6c0.1,0.1,0.2,0.1,0.2,0.1c0.2,0,0.4-0.1,0.5-0.4
	c0.1-0.3,0-0.6-0.3-0.7l-2-0.9c-0.3-0.1-0.6,0-0.7,0.3c-0.1,0.3,0,0.6,0.3,0.7L-413.4,246.6z M-433.7,237.4c0.1,0.1,0.2,0.1,0.2,0.1
	c0.2,0,0.4-0.1,0.5-0.4c0.1-0.3,0-0.6-0.3-0.7l-2-0.9c-0.3-0.1-0.6,0-0.7,0.3c-0.1,0.3,0,0.6,0.3,0.7
	C-435.6,236.5-433.7,237.4-433.7,237.4z M-439.8,234.8l2,0.9c0.1,0.1,0.2,0.1,0.2,0.1c0.2,0,0.4-0.1,0.5-0.4c0.1-0.3,0-0.6-0.3-0.7
	l-2-0.9c-0.3-0.1-0.6,0-0.7,0.3C-440.2,234.3-440.1,234.6-439.8,234.8z M-444.2,232.2c-0.1,0.3,0,0.6,0.3,0.7l2,0.9
	c0.1,0.1,0.2,0.1,0.2,0.1c0.2,0,0.4-0.1,0.5-0.4c0.1-0.3,0-0.6-0.3-0.7l-2-0.9C-443.7,231.8-444,231.9-444.2,232.2z M-425.6,241.1
	c0.1,0.1,0.2,0.1,0.2,0.1c0.2,0,0.4-0.1,0.5-0.4c0.1-0.3,0-0.6-0.3-0.7l-2-0.9c-0.3-0.1-0.6,0-0.7,0.3c-0.1,0.3,0,0.6,0.3,0.7
	C-427.5,240.2-425.6,241.1-425.6,241.1z M-448.2,230.4c-0.1,0.3,0,0.6,0.3,0.7l2,0.9c0.1,0.1,0.2,0.1,0.2,0.1c0.2,0,0.4-0.1,0.5-0.4
	c0.1-0.3,0-0.6-0.3-0.7l-2-0.9C-447.8,229.9-448.1,230.1-448.2,230.4z"/>
<path class="st0" d="M-360.5,228.2l-2,0.9c0,0-0.1,0-0.1,0.1c-0.2,0.1-0.4,0.2-0.4,0.4c-2.2,7.4-6.3,13.8-11.6,19.1h-29.9v-0.1
	c-0.1-0.3-0.5-0.4-0.7-0.3l-0.8,0.4l-0.8-0.4c-0.3-0.1-0.6,0-0.7,0.3v0.1h-29.9c-5.3-5.2-9.3-11.6-11.5-19c-0.1-0.2-0.2-0.4-0.4-0.4
	l-0.1-0.1l-2-0.9c-0.3-0.1-0.6,0-0.7,0.3c-0.1,0.3,0,0.6,0.3,0.7l2,0.9c5.7,18.5,22.9,32.6,44,32.6c21,0,38.4-14,44-32.6l2-0.9
	c0.3-0.1,0.4-0.5,0.3-0.7C-359.8,228.2-360.2,228.1-360.5,228.2z M-406,261.6c-11.4,0-22.1-4.5-30.2-11.8h60.5
	C-383.9,257.2-394.6,261.6-406,261.6z"/>
<path class="st0" d="M-386.7,241.2c0.1,0,0.2,0,0.2-0.1l2-0.9c0.3-0.1,0.4-0.5,0.3-0.7c-0.1-0.3-0.5-0.4-0.7-0.3l-2,0.9
	c-0.3,0.1-0.4,0.5-0.3,0.7C-387.1,241-386.9,241.2-386.7,241.2z M-382.6,239.3c0.1,0,0.2,0,0.2-0.1l2-0.9c0.3-0.1,0.4-0.5,0.3-0.7
	c-0.1-0.2-0.5-0.4-0.7-0.3l-2,0.9c-0.3,0.1-0.4,0.5-0.3,0.7C-383,239.2-382.8,239.3-382.6,239.3z M-378.6,237.5c0.1,0,0.2,0,0.2-0.1
	l2-0.9c0.3-0.1,0.4-0.5,0.3-0.7c-0.1-0.3-0.5-0.4-0.7-0.3l-2,0.9c-0.3,0.1-0.4,0.5-0.3,0.7C-379,237.4-378.7,237.5-378.6,237.5z
	 M-374.5,235.7c0.1,0,0.2,0,0.2-0.1l2-0.9c0.3-0.1,0.4-0.5,0.3-0.7c-0.1-0.3-0.5-0.4-0.7-0.3l-2,0.9c-0.3,0.1-0.4,0.5-0.3,0.7
	C-374.9,235.5-374.7,235.7-374.5,235.7z M-366.9,231.7c0.1,0.2,0.3,0.4,0.5,0.4c0.1,0,0.2,0,0.2-0.1l2-0.9c0.3-0.1,0.4-0.5,0.3-0.7
	c-0.1-0.3-0.5-0.4-0.7-0.3l-2,0.9C-366.9,231.1-367,231.5-366.9,231.7z M-370.9,233.5c0.1,0.2,0.3,0.4,0.5,0.4c0.1,0,0.2,0,0.2-0.1
	l2-0.9c0.3-0.1,0.4-0.5,0.3-0.7c-0.1-0.3-0.5-0.4-0.7-0.3l-2,0.9C-370.9,232.9-371.1,233.2-370.9,233.5z M-403,248.4
	c0.1,0,0.2,0,0.2-0.1l2-0.9c0.3-0.1,0.4-0.5,0.3-0.7c-0.1-0.3-0.5-0.4-0.7-0.3l-2,0.9c-0.3,0.1-0.4,0.5-0.3,0.7
	C-403.4,248.3-403.1,248.4-403,248.4z M-398.9,246.6c0.1,0,0.2,0,0.2-0.1l2-0.9c0.3-0.1,0.4-0.5,0.3-0.7c-0.1-0.3-0.5-0.4-0.7-0.3
	l-2,0.9c-0.3,0.1-0.4,0.5-0.3,0.7C-399.3,246.5-399.1,246.6-398.9,246.6z M-394.8,244.8c0.1,0,0.2,0,0.2-0.1l2-0.9
	c0.3-0.1,0.4-0.5,0.3-0.7c-0.1-0.3-0.5-0.4-0.7-0.3l-2,0.9c-0.3,0.1-0.4,0.5-0.3,0.7C-395.2,244.6-395,244.8-394.8,244.8z
	 M-390.8,243c0.1,0,0.2,0,0.2-0.1l2-0.9c0.3-0.1,0.4-0.5,0.3-0.7c-0.1-0.3-0.5-0.4-0.7-0.3l-2,0.9c-0.3,0.1-0.4,0.5-0.3,0.7
	C-391.2,242.9-390.9,243-390.8,243z M-357,226.9l-1-0.5c-0.3-0.1-0.6,0-0.7,0.3c-0.1,0.2,0,0.5,0.2,0.7c-0.2,0.2-0.3,0.4-0.2,0.7
	c0.1,0.2,0.3,0.4,0.5,0.4c0.1,0,0.2,0,0.2-0.1l1-0.5c0.2-0.1,0.4-0.3,0.4-0.5C-356.5,227.1-356.7,227-357,226.9z M-360,225.5
	l-0.7-0.3c0.5-2.7,0.8-5.6,0.8-8.5c0-25.4-20.7-46-46-46c-3.3,0-6.6,0.4-9.8,1l-9.9-4.4c-0.1-0.1-0.3-0.1-0.5,0l-13.2,5.9h-0.1h-0.1
	h-0.1c0,0-0.1,0-0.1,0.1l-0.1,0.1c0,0,0,0.1-0.1,0.1c0,0,0,0.1-0.1,0.1v11.8c-7.9,8.7-12.3,19.8-12.3,31.5c0,2.9,0.2,5.8,0.8,8.5
	c-0.1,0.2-0.1,0.4-0.1,0.5c0.1,0.2,0.3,0.4,0.5,0.4c0.1,0,0.2,0,0.2-0.1l2-0.9c0.3-0.1,0.4-0.5,0.3-0.7c-0.1-0.3-0.5-0.4-0.8-0.3
	l-1.2,0.5c-0.5-2.6-0.7-5.3-0.7-8c0-11,4-21.5,11.2-29.7v42.5c0,0.2,0.1,0.4,0.4,0.5l13.2,5.9c0.1,0,0.1,0.1,0.2,0.1h0.1
	c0.1,0,0.1,0,0.2-0.1h0.1l5.9-2.6l12.5,5.6c0.1,0,0.1,0.1,0.2,0.1s0.1,0,0.2-0.1l13.2-5.9c0.1-0.1,0.2-0.1,0.2-0.2l7,3.1h0.1
	c0.1,0,0.1,0,0.2,0.1h0.1c0.1,0,0.1,0,0.2-0.1l13.2-5.9c0.2-0.1,0.4-0.3,0.4-0.5v-8.4c0.2-0.1,0.3-0.1,0.4-0.3
	c0.1-0.3,0-0.6-0.3-0.7l-0.1-0.1v-30.3v-0.1v-0.1c0-0.1,0-0.1-0.1-0.1c0,0,0-0.1-0.1-0.1l-0.1-0.1c0,0-0.1,0-0.1-0.1h-0.1h-0.1h-0.1
	l-13.1-6c-0.1-0.1-0.3-0.1-0.5,0l-13.2,5.9h-0.1l-0.1,0.1l-0.1,0.1l-0.1,0.1v0.1c0,0.1-0.1,0.1-0.1,0.1v17.6l-6.9-3.1
	c-0.1-0.1-0.3-0.1-0.5,0l-4.8,2.1v-32.4v-0.2c0-0.1-0.1-0.1-0.1-0.1c0-0.1-0.1-0.1-0.1-0.1c0,0-0.1,0-0.1-0.1c0,0-0.1,0-0.1-0.1
	h-0.1l-1.5-0.6c2.6-0.5,5.2-0.7,7.9-0.7c24.8,0,44.9,20.1,44.9,44.9c0,2.7-0.2,5.4-0.7,8l-0.2-0.1c-0.3-0.1-0.6,0-0.7,0.3
	c-0.1,0.3,0,0.6,0.3,0.7l2,0.9c0.1,0.1,0.2,0.1,0.2,0.1c0.2,0,0.4-0.1,0.5-0.4C-359.6,226-359.7,225.6-360,225.5z M-426.4,214.1
	l-0.2,0.1c-0.3,0.1-0.4,0.5-0.3,0.7c0.1,0.2,0.2,0.3,0.4,0.3v19.3l-12.1-5.4v-8.4c0.1,0,0.1,0,0.2-0.1l2-0.9
	c0.3-0.1,0.4-0.5,0.3-0.7c-0.1-0.3-0.5-0.4-0.7-0.3l-1.8,0.8v-44.8l10.7,4.8l1.4,0.6L-426.4,214.1L-426.4,214.1z M-425.9,179l-2-0.9
	l-9.9-4.5l11.8-5.3l11.8,5.3L-425.9,179z M-407.6,237.6l-12.1-5.4v-20.9l11.9,5.3l0.2,0.1L-407.6,237.6L-407.6,237.6z M-394.4,232
	v0.1l-12.1,5.4v-20.9l0.2-0.1l11.7-5.2l0.1,0.1V232z M-373.4,219.5l-0.8-0.4c-0.3-0.1-0.6,0-0.7,0.3c-0.1,0.3,0,0.6,0.3,0.7l1.2,0.5
	v8.5l-12.1,5.4v-19.3l0.7,0.3c0.1,0.1,0.2,0.1,0.2,0.1c0.2,0,0.4-0.1,0.5-0.4c0.1-0.3,0-0.6-0.3-0.7l-1.2-0.5V196l1.4-0.6l10.7-4.8
	V219.5z M-386.1,184.4l11.8,5.3l-9.9,4.4l-2,0.9l-3.7-1.6l-8.2-3.7C-398,189.6-386.1,184.4-386.1,184.4z M-398.8,190.6l6.3,2.8
	l5.8,2.6v17.6c-0.2,0-0.4,0.1-0.5,0.3c-0.1,0.3,0,0.6,0.3,0.7l0.2,0.1v19.8l-6.5-2.9v-19.7l0.2,0.1c0.1,0.1,0.2,0.1,0.2,0.1
	c0.2,0,0.4-0.1,0.5-0.4c0.1-0.3,0-0.6-0.3-0.7l-0.7-0.3v-0.2v-0.1v-0.1c0-0.1,0-0.1-0.1-0.1c0,0,0-0.1-0.1-0.1l-0.1-0.1
	c0,0-0.1,0-0.1-0.1h-0.1h-0.1h-0.1l-5.2-2.3L-398.8,190.6L-398.8,190.6z M-407,205.1l11.8,5.3l-9.9,4.4l-2,0.9l-2-0.8l-9.9-4.4
	C-418.9,210.4-407,205.1-407,205.1z M-413.2,174.6v32l-7.3,3.3h-0.1h-0.1h-0.1c0,0-0.1,0-0.1,0.1l-0.1,0.1c0,0,0,0.1-0.1,0.1
	c0,0,0,0.1-0.1,0.1v1.4l-1.7,0.7c-0.3,0.1-0.4,0.5-0.3,0.7c0.1,0.2,0.3,0.4,0.5,0.4c0.1,0,0.2,0,0.2-0.1l1.2-0.5v19.8l-4.5,2v-19.8
	l1.2-0.5c0.3-0.1,0.4-0.5,0.3-0.7s-0.5-0.4-0.7-0.3l-0.7,0.3V180C-425.3,180-413.2,174.6-413.2,174.6z"/>
<path class="st0" d="M-390.9,212.9l2,0.9c0.1,0.1,0.2,0.1,0.2,0.1c0.2,0,0.4-0.1,0.5-0.4c0.1-0.3,0-0.6-0.3-0.7l-2-0.9
	c-0.3-0.1-0.6,0-0.7,0.3C-391.4,212.4-391.2,212.8-390.9,212.9z M-382.8,216.5l2,0.9c0.1,0.1,0.2,0.1,0.2,0.1c0.2,0,0.4-0.1,0.5-0.4
	c0.1-0.3,0-0.6-0.3-0.7l-2-0.9c-0.3-0.1-0.6,0-0.7,0.3C-383.3,216.1-383.1,216.4-382.8,216.5z M-370.6,222l2,0.9
	c0.1,0.1,0.2,0.1,0.2,0.1c0.2,0,0.4-0.1,0.5-0.4c0.1-0.3,0-0.6-0.3-0.7l-2-0.9c-0.3-0.1-0.6,0-0.7,0.3
	C-371.1,221.5-370.9,221.9-370.6,222z M-378.7,218.4l2,0.9c0.1,0.1,0.2,0.1,0.2,0.1c0.2,0,0.4-0.1,0.5-0.4c0.1-0.3,0-0.6-0.3-0.7
	l-2-0.9c-0.3-0.1-0.6,0-0.7,0.3C-379.2,217.9-379,218.2-378.7,218.4z M-366.5,223.8l2,0.9c0.1,0.1,0.2,0.1,0.2,0.1
	c0.2,0,0.4-0.1,0.5-0.4c0.1-0.3,0-0.6-0.3-0.7l-2-0.9c-0.3-0.1-0.6,0-0.7,0.3C-367,223.4-366.9,223.7-366.5,223.8z"/>
</svg>
