<?xml version="1.0" encoding="utf-8"?>
<!-- Generator: Adobe Illustrator 19.0.0, SVG Export Plug-In . SVG Version: 6.00 Build 0)  -->
<svg version="1.1" id="Layer_1" transform="matrix(.69 0 0 .69 15.5 15.5)"
	 xmlns="http://www.w3.org/2000/svg" xmlns:xlink="http://www.w3.org/1999/xlink" x="0px" y="0px" viewBox="-456 165 100 100"
	 style="enable-background:new -456 165 100 100;" xml:space="preserve">
<style type="text/css">
	.st0{fill:#F78620;}
</style>
<path class="st0" d="M-433.8,196.5c0-2.2-1.8-4-4-4c-2.2,0-4,1.8-4,4c0,2.2,1.8,4,4,4C-435.6,200.5-433.8,198.7-433.8,196.5z
	 M-437.2,199.3v-2.2h2.2C-435.2,198.2-436.1,199-437.2,199.3z M-435,195.9h-2.2v-2.2C-436.1,194-435.2,194.8-435,195.9z
	 M-440.6,196.5c0-1.3,1-2.5,2.3-2.7v5.5C-439.7,199-440.6,197.9-440.6,196.5z M-421.3,251.9c0,0.3,0.2,0.5,0.5,0.5h13.9
	c0.3,0,0.5-0.2,0.5-0.5c0-0.3-0.2-0.5-0.5-0.5h-13.9C-421.1,251.3-421.3,251.6-421.3,251.9z M-404.6,252.4h2.3
	c0.3,0,0.5-0.2,0.5-0.5c0-0.3-0.2-0.5-0.5-0.5h-2.3c-0.3,0-0.5,0.2-0.5,0.5C-405.1,252.2-404.9,252.4-404.6,252.4z M-400.3,252.4
	h1.5c0.3,0,0.5-0.2,0.5-0.5c0-0.3-0.2-0.5-0.5-0.5h-1.5c-0.3,0-0.5,0.2-0.5,0.5C-400.9,252.2-400.6,252.4-400.3,252.4z
	 M-403.6,254.7c0,0.3,0.2,0.5,0.5,0.5h13.9c0.3,0,0.5-0.2,0.5-0.5c0-0.3-0.2-0.5-0.5-0.5H-403C-403.3,254.1-403.6,254.4-403.6,254.7
	z M-408.1,254.7c0,0.3,0.2,0.5,0.5,0.5h2.3c0.3,0,0.5-0.2,0.5-0.5c0-0.3-0.2-0.5-0.5-0.5h-2.3C-407.8,254.1-408.1,254.4-408.1,254.7
	z M-409.5,254.1h-1.5c-0.3,0-0.5,0.2-0.5,0.5c0,0.3,0.2,0.5,0.5,0.5h1.5c0.3,0,0.5-0.2,0.5-0.5
	C-408.9,254.4-409.2,254.1-409.5,254.1z M-408.3,184.6c-2.2,0-4,1.8-4,4c0,2.2,1.8,4,4,4c2.2,0,4-1.8,4-4
	C-404.4,186.4-406.1,184.6-408.3,184.6z M-405.6,188h-2.1v-2.1C-406.6,186.1-405.8,186.9-405.6,188z M-411.1,188.6
	c0-1.3,1-2.4,2.2-2.7v5.5C-410.1,191-411.1,189.9-411.1,188.6z M-407.7,191.3v-2.1h2.1C-405.8,190.2-406.6,191.1-407.7,191.3z"/>
<path class="st0" d="M-357.2,209h-1.6c-1-7.8-4-15.2-8.7-21.6v-5.2c0-0.3-0.2-0.5-0.5-0.5h-4.5c-8.7-8.4-20.2-13.1-32.3-13.1
	c-15.7,0-30.2,7.8-38.8,20.9h-0.5c-0.3,0-0.5,0.2-0.5,0.5v1.2c-6,0.3-10.7,5.2-10.7,11.2c0,3.5,1.6,6.6,4.1,8.7
	c-0.1,1.3-0.2,2.7-0.2,4.1c0,8.4,2.3,16.7,6.6,23.9v5.1c0,0.3,0.2,0.5,0.5,0.5h3.5c8.9,10.7,21.9,16.9,35.9,16.9
	c12.1,0,23.6-4.6,32.3-13c3.7-0.2,5.1,0.4,5.1-0.5v-5.3c4-5.4,6.8-11.8,8.1-18.4h2.1c0.3,0,0.5-0.2,0.5-0.5v-14
	C-356.6,209.3-356.9,209-357.2,209z M-360,209h-7.5v-19.6C-363.5,195.3-360.9,202-360,209z M-444.8,204.3c-2.1-0.6-2.1-3.5,0-4.1
	V204.3z M-443.7,212.9v-13.3v-9h23.4V214h-23.4C-443.7,214-443.7,212.9-443.7,212.9z M-454.2,202.3c0-5.3,4.2-9.7,9.5-10v6.8
	c-3.6,0.6-3.6,5.8,0,6.5v6.8C-450.1,212-454.2,207.6-454.2,202.3z M-450.3,215c0-1.1,0.1-2.2,0.1-3.3c1.6,1,3.4,1.6,5.3,1.6v1.2
	c0,0.3,0.2,0.5,0.5,0.5h24.5c0.3,0,0.5-0.2,0.5-0.5V190c0-0.3-0.2-0.5-0.5-0.5h-22.6c8.5-12.4,22.4-19.8,37.4-19.8
	c11.5,0,22.3,4.2,30.7,12H-416c-0.3,0-0.5,0.2-0.5,0.5v37.3h-27.7c-0.3,0-0.5,0.3-0.5,0.5v16.6C-448.4,230-450.3,222.6-450.3,215z
	 M-405,243l-18.2-11l18.2-11V243z M-443.7,221l18.2,11l-18.2,11V221z M-424.4,231.3l-17.8-10.8h35.7
	C-406.5,220.5-424.4,231.3-424.4,231.3z M-424.4,232.7l17.9,10.8h-35.7L-424.4,232.7z M-416.5,244.6v2.7h-20.2
	c-0.9-0.9-1.7-1.7-2.5-2.7C-439.3,244.6-416.5,244.6-416.5,244.6z M-404.9,260.4c-11.5,0-22.3-4.3-30.7-12h61.3
	C-382.6,256.1-393.5,260.4-404.9,260.4z M-415.4,247.3v-2.7h11c0.3,0,0.5-0.3,0.5-0.5v-24c0-0.3-0.2-0.5-0.5-0.5h-11v-36.7h46.8V209
	h-10.3c-0.3,0-0.5,0.2-0.5,0.5v14c0,0.3,0.2,0.5,0.5,0.5h10.3v23.1C-377.5,247.3-407,247.3-415.4,247.3z M-367.5,240.5v-16.3h7
	C-361.7,230-364.1,235.6-367.5,240.5z M-357.8,223h-20.6v-12.9h20.6C-357.8,210.2-357.8,223-357.8,223z"/>
<path class="st0" d="M-368.1,217.6c1.8,0,3.3-1.5,3.3-3.3s-1.5-3.3-3.3-3.3c-1.8,0-3.3,1.5-3.3,3.3
	C-371.3,216.1-369.8,217.6-368.1,217.6z M-367.5,216.3v-1.5h1.5C-366.2,215.6-366.8,216.2-367.5,216.3z M-366,213.7h-1.5v-1.5
	C-366.8,212.5-366.2,213-366,213.7z M-368.6,212.3v4c-0.9-0.2-1.5-1.1-1.5-2C-370.1,213.4-369.5,212.5-368.6,212.3z M-373.7,219.6
	h11.3c0.3,0,0.5-0.2,0.5-0.5c0-0.3-0.2-0.5-0.5-0.5h-11.3c-0.3,0-0.5,0.2-0.5,0.5C-374.3,219.4-374,219.6-373.7,219.6z
	 M-376.5,221.4h16.9c0.3,0,0.5-0.2,0.5-0.5c0-0.3-0.2-0.5-0.5-0.5h-16.9c-0.3,0-0.5,0.2-0.5,0.5
	C-377.1,221.2-376.9,221.4-376.5,221.4z M-383.7,185.4h-18.6c-0.3,0-0.5,0.2-0.5,0.5c0,0.3,0.2,0.5,0.5,0.5h18.6
	c0.3,0,0.5-0.2,0.5-0.5C-383.2,185.6-383.4,185.4-383.7,185.4z M-388.3,187.9h-14c-0.3,0-0.5,0.2-0.5,0.5c0,0.3,0.2,0.5,0.5,0.5h14
	c0.3,0,0.5-0.2,0.5-0.5C-387.8,188.1-388,187.9-388.3,187.9z M-393.9,189.7h-8.5c-0.3,0-0.5,0.2-0.5,0.5c0,0.3,0.2,0.5,0.5,0.5h8.5
	c0.3,0,0.5-0.2,0.5-0.5C-393.3,189.9-393.6,189.7-393.9,189.7z M-422,209h-16.9c-0.3,0-0.5,0.2-0.5,0.5c0,0.3,0.2,0.5,0.5,0.5h16.9
	c0.3,0,0.5-0.2,0.5-0.5C-421.4,209.2-421.7,209-422,209z"/>
</svg>
