<?xml version="1.0" encoding="utf-8"?>
<!-- Generator: Adobe Illustrator 19.0.0, SVG Export Plug-In . SVG Version: 6.00 Build 0)  -->
<svg version="1.1" id="Layer_1" transform="matrix(.69 0 0 .69 15.5 15.5)"
	 xmlns="http://www.w3.org/2000/svg" xmlns:xlink="http://www.w3.org/1999/xlink" x="0px" y="0px" viewBox="-456 165 100 100"
	 style="enable-background:new -456 165 100 100;" xml:space="preserve">
<style type="text/css">
	.st0{fill:#F78620;}
</style>
<path class="st0" d="M-375.8,180.9c0.2-0.2,0.2-0.6-0.1-0.8c-0.6-0.5-1.3-1-1.9-1.5c-0.2-0.2-0.6-0.1-0.8,0.1
	c-0.2,0.2-0.1,0.6,0.1,0.8l1.8,1.5C-376.4,181.2-376,181.1-375.8,180.9z M-384.5,175.7c0.3,0.1,0.6,0.1,0.8-0.2
	c0.1-0.3,0.1-0.6-0.2-0.8l-2.2-1.1c-0.3-0.1-0.6,0-0.8,0.3c-0.1,0.3,0,0.6,0.3,0.8C-385.9,174.9-385.1,175.2-384.5,175.7z
	 M-393.3,172.1c0.3,0.1,0.6-0.1,0.7-0.4c0.1-0.3-0.1-0.6-0.4-0.7c-0.8-0.2-1.6-0.4-2.4-0.6c-0.3-0.1-0.6,0.1-0.7,0.4
	c-0.1,0.3,0.1,0.6,0.4,0.7C-394.8,171.6-394,171.9-393.3,172.1z M-388.7,173.7c0.3,0.1,0.6,0,0.7-0.3c0.1-0.3,0-0.6-0.3-0.7
	c-0.7-0.3-1.5-0.6-2.3-0.9c-0.3-0.1-0.6,0.1-0.7,0.4c-0.1,0.3,0.1,0.6,0.4,0.7C-390.2,173-389.5,173.4-388.7,173.7z M-380.4,178.1
	c0.2,0.2,0.6,0.1,0.8-0.2c0.2-0.2,0.1-0.6-0.2-0.8c-0.7-0.4-1.3-0.9-2.1-1.3c-0.3-0.2-0.6-0.1-0.8,0.2c-0.2,0.3-0.1,0.6,0.2,0.8
	C-381.7,177.2-381.1,177.6-380.4,178.1z M-363.9,197.8l0.9,2.2c0.1,0.3,0.4,0.4,0.7,0.4c0.3-0.1,0.4-0.4,0.4-0.7
	c-0.3-0.7-0.6-1.5-0.9-2.3c-0.1-0.3-0.5-0.4-0.8-0.3S-364,197.5-363.9,197.8z M-374.8,181.6c-0.2,0.2-0.2,0.6,0.1,0.8
	c0.5,0.5,1.2,1.1,1.7,1.6c0.2,0.2,0.6,0.2,0.8,0c0.2-0.2,0.2-0.6,0-0.8c-0.5-0.5-1.2-1.2-1.8-1.7
	C-374.3,181.4-374.7,181.4-374.8,181.6z M-362.3,202.3c0.2,0.7,0.5,1.5,0.7,2.3c0.1,0.3,0.4,0.5,0.7,0.4s0.5-0.4,0.4-0.7
	c-0.2-0.8-0.4-1.6-0.7-2.3c-0.1-0.3-0.4-0.5-0.7-0.4C-362.2,201.6-362.3,202-362.3,202.3z M-361.1,206.8c0.2,0.8,0.3,1.5,0.4,2.3
	c0.1,0.3,0.4,0.5,0.7,0.5s0.5-0.4,0.5-0.7c-0.1-0.8-0.2-1.6-0.4-2.4c-0.1-0.3-0.4-0.5-0.7-0.4C-360.9,206.2-361.1,206.5-361.1,206.8
	z M-365,195.7c0.1,0.3,0.5,0.4,0.8,0.2c0.3-0.1,0.4-0.5,0.2-0.8c-0.4-0.7-0.7-1.5-1.2-2.1c-0.2-0.3-0.5-0.4-0.8-0.2
	c-0.3,0.2-0.4,0.5-0.2,0.8C-365.6,194.3-365.3,195-365,195.7z M-368.4,188.8c-0.2,0.2-0.3,0.5-0.1,0.8c0.4,0.6,0.9,1.3,1.3,2
	c0.2,0.2,0.5,0.4,0.8,0.2c0.2-0.2,0.4-0.5,0.2-0.8c-0.4-0.7-0.9-1.3-1.3-2C-367.8,188.7-368.2,188.6-368.4,188.8z M-371.5,185.1
	c-0.2,0.2-0.2,0.5-0.1,0.8c0.5,0.6,1,1.2,1.5,1.8c0.2,0.2,0.5,0.3,0.8,0.1c0.2-0.2,0.3-0.5,0.1-0.8c-0.5-0.6-1-1.3-1.6-1.9
	C-370.9,184.9-371.2,184.9-371.5,185.1z M-435.4,180.9l1.8-1.5c0.2-0.2,0.3-0.5,0.1-0.8s-0.5-0.3-0.8-0.1c-0.7,0.5-1.3,1-1.9,1.5
	c-0.2,0.2-0.3,0.5-0.1,0.8C-436,181.1-435.6,181.1-435.4,180.9z M-431.6,178l2-1.3c0.3-0.2,0.4-0.5,0.2-0.8
	c-0.2-0.3-0.5-0.4-0.8-0.2c-0.7,0.4-1.4,0.9-2.1,1.3c-0.2,0.2-0.4,0.5-0.2,0.8C-432.2,178.2-431.9,178.2-431.6,178z M-418.8,172.1
	c0.7-0.2,1.5-0.4,2.3-0.6c0.3-0.1,0.5-0.4,0.4-0.7c-0.1-0.3-0.4-0.5-0.7-0.4c-0.8,0.2-1.6,0.4-2.4,0.6c-0.3,0.1-0.5,0.4-0.4,0.7
	C-419.4,172-419.1,172.2-418.8,172.1z M-447.8,195.9c0.3,0.1,0.6,0,0.8-0.2c0.4-0.7,0.7-1.4,1.1-2.1c0.2-0.3,0.1-0.6-0.2-0.8
	c-0.3-0.2-0.6-0.1-0.8,0.2c-0.4,0.7-0.8,1.4-1.2,2.1C-448.3,195.4-448.1,195.8-447.8,195.9z M-449.7,200.4c0.3,0.1,0.6-0.1,0.7-0.4
	l0.9-2.2c0.1-0.3,0-0.6-0.3-0.8c-0.3-0.1-0.6,0-0.8,0.3c-0.3,0.7-0.6,1.5-0.9,2.3C-450.1,199.9-450,200.2-449.7,200.4z
	 M-451.1,204.9c0.3,0.1,0.6-0.1,0.7-0.4c0.2-0.7,0.4-1.5,0.7-2.3c0.1-0.3-0.1-0.6-0.4-0.7c-0.3-0.1-0.6,0.1-0.7,0.4
	c-0.2,0.8-0.5,1.6-0.7,2.3C-451.6,204.6-451.4,204.9-451.1,204.9z M-445.5,191.7c0.2,0.2,0.6,0.1,0.8-0.2c0.4-0.7,0.9-1.3,1.3-2
	c0.2-0.2,0.1-0.6-0.1-0.8s-0.6-0.1-0.8,0.1c-0.5,0.7-0.9,1.3-1.3,2C-445.9,191.2-445.8,191.5-445.5,191.7z M-427.5,175.7
	c0.7-0.4,1.4-0.7,2.1-1c0.3-0.1,0.4-0.5,0.3-0.8c-0.1-0.3-0.5-0.4-0.8-0.3l-2.2,1.1c-0.3,0.1-0.4,0.5-0.2,0.8
	C-428.2,175.7-427.8,175.8-427.5,175.7z M-452,209.6c0.3,0.1,0.6-0.2,0.7-0.5c0.1-0.8,0.2-1.6,0.4-2.3c0.1-0.3-0.1-0.6-0.4-0.7
	c-0.3-0.1-0.6,0.1-0.7,0.4c-0.2,0.8-0.3,1.6-0.4,2.4C-452.5,209.3-452.3,209.6-452,209.6z M-438,181.6c-0.6,0.5-1.2,1.1-1.8,1.7
	c-0.2,0.2-0.2,0.6,0,0.8c0.2,0.2,0.6,0.2,0.8,0c0.5-0.5,1.1-1.1,1.7-1.6c0.2-0.2,0.2-0.6,0.1-0.8
	C-437.3,181.4-437.7,181.4-438,181.6z M-441.3,185.1c-0.5,0.6-1,1.2-1.6,1.9c-0.2,0.2-0.2,0.6,0.1,0.8c0.2,0.2,0.6,0.2,0.8-0.1
	c0.5-0.6,1-1.2,1.5-1.8c0.2-0.2,0.2-0.6-0.1-0.8C-440.8,184.8-441.1,184.9-441.3,185.1z M-423.3,173.7c0.7-0.3,1.5-0.5,2.2-0.9
	c0.3-0.1,0.5-0.4,0.4-0.7c-0.1-0.3-0.4-0.5-0.7-0.4c-0.7,0.2-1.5,0.5-2.3,0.9c-0.3,0.1-0.4,0.5-0.3,0.7
	C-423.9,173.6-423.6,173.8-423.3,173.7z M-357.2,212h-2c0-0.2-0.1-0.4-0.1-0.6c-0.1-0.3-0.3-0.5-0.6-0.5c-0.3,0.1-0.5,0.3-0.5,0.6
	c0,0.2,0,0.4,0.1,0.5h-1.6c-0.3,0-0.6,0.2-0.6,0.6v4.7c0,0.3,0.2,0.6,0.6,0.6h1.7c-0.4,12.1-5.7,23-13.8,30.9h-64.1
	c-8.1-8-13.3-18.9-13.8-30.9h1.7c0.3,0,0.6-0.2,0.6-0.6v-4.7c0-0.3-0.2-0.6-0.6-0.6h-1.5c0-0.2,0-0.4,0.1-0.5
	c0.1-0.3-0.2-0.6-0.5-0.6c-0.3,0-0.6,0.2-0.6,0.5c0,0.2-0.1,0.4-0.1,0.6h-2c-0.3,0-0.6,0.2-0.6,0.6v4.7c0,0.3,0.2,0.6,0.6,0.6h1.8
	c0.9,25.3,21.6,45.4,47,45.4s46.1-20.1,47-45.4h1.8c0.3,0,0.6-0.2,0.6-0.6v-4.7C-356.6,212.3-356.9,212-357.2,212z M-454.2,213.2
	h3.5v3.5h-3.5V213.2z M-436.9,250h61.7c-8.2,7.5-19,12.1-30.9,12.1C-417.8,262.1-428.7,257.4-436.9,250z M-357.8,216.7h-3.5v-3.5
	h3.5C-357.8,213.2-357.8,216.7-357.8,216.7z"/>
<path class="st0" d="M-442.2,172.4c1.3,0,2.4-0.9,2.7-2.1h24.6c0,0.1-0.1,0.2,0,0.2c0.1,0.3,0.4,0.5,0.7,0.5
	c0.8-0.1,1.6-0.2,2.3-0.4c0.2,0,0.4-0.2,0.5-0.4h1.5c0.1,0.1,0.2,0.1,0.4,0.1h0.1c0.2,0,0.4,0,0.5-0.1v1.6c0,0.3,0.2,0.6,0.6,0.6
	h4.7c0.3,0,0.6-0.2,0.6-0.6v-1.6c0.2,0,0.4,0,0.5,0.1h0.1c0.1,0,0.2-0.1,0.4-0.1h1.5c0.1,0.2,0.2,0.4,0.5,0.4
	c0.8,0.1,1.6,0.2,2.3,0.4c0.3,0.1,0.6-0.1,0.7-0.5v-0.2h24.7c0.2,1.2,1.3,2.1,2.7,2.1c1.5,0,2.7-1.2,2.7-2.7c0-1.5-1.2-2.7-2.7-2.7
	c-1.3,0-2.4,0.9-2.7,2.1h-30.8v-1.7c0-0.3-0.2-0.6-0.6-0.6h-4.7c-0.3,0-0.6,0.2-0.6,0.6v1.8h-30.5c-0.2-1.2-1.3-2.1-2.7-2.1
	c-1.5,0-2.7,1.2-2.7,2.7C-444.9,171.2-443.7,172.4-442.2,172.4z M-369.8,168.1c0.9,0,1.6,0.7,1.6,1.6c0,0.9-0.7,1.6-1.6,1.6
	s-1.6-0.7-1.6-1.6C-371.4,168.8-370.7,168.1-369.8,168.1z M-407.8,167.9h3.5v3.5h-3.5C-407.8,171.5-407.8,167.9-407.8,167.9z
	 M-442.2,168.1c0.9,0,1.6,0.7,1.6,1.6c0,0.9-0.7,1.6-1.6,1.6s-1.6-0.7-1.6-1.6C-443.7,168.8-443,168.1-442.2,168.1z M-406,246.8
	c16.9,0,30.6-13.7,30.6-30.6s-13.7-30.6-30.6-30.6c-16.9,0-30.6,13.7-30.6,30.6S-422.9,246.8-406,246.8z M-406,186.7
	c16.2,0,29.5,13.2,29.5,29.5s-13.2,29.5-29.5,29.5s-29.5-13.2-29.5-29.5S-422.2,186.7-406,186.7z"/>
<path class="st0" d="M-406,233.4c9.5,0,17.2-7.7,17.2-17.2c0-9.3-7.6-17-16.9-17.2c-0.2,0-0.4,0.1-0.5,0.3c-0.1,0.2-0.1,0.4,0.1,0.6
	c0.9,1.3,1.5,2.8,1.5,4.4c0,1.2-0.2,2.3-0.7,3.3c-0.1,0.2-0.2,0.4-0.2,0.5c-0.1,0.1-0.1,0.1-0.1,0.2c-0.1,0.1-0.1,0.2-0.2,0.2
	s-0.1,0.2-0.2,0.2s-0.1,0.1-0.1,0.2c-0.1,0.1-0.2,0.2-0.2,0.3c0,0.1-0.1,0.1-0.1,0.1c-0.1,0.1-0.2,0.2-0.3,0.3
	c-1.3,1.3-3.2,2.1-5.1,2.1h-0.5c-0.2,0-0.4-0.1-0.6-0.1c-2.7-0.4-5-2.3-5.9-4.9c-0.1-0.2-0.2-0.4-0.5-0.4s-0.4,0.1-0.5,0.2
	c-2,2.9-3,6.2-3,9.6C-423.2,225.7-415.5,233.4-406,233.4z M-413.9,217c0,1.4-1.2,2.6-2.6,2.6s-2.6-1.2-2.6-2.6s1.2-2.6,2.6-2.6
	C-415,214.4-413.9,215.5-413.9,217z M-413.6,214.5c0.1-0.5,0.3-1.1,0.5-1.6h1c2.6,0,4.9-1.2,6.5-3.2l0.1-0.1
	c0.1-0.1,0.1-0.2,0.2-0.3c0.1-0.1,0.1-0.1,0.1-0.2c0.1-0.1,0.1-0.2,0.2-0.3c0.1-0.1,0.1-0.2,0.2-0.2l0.1-0.1
	c3.7,0.6,6.5,3.9,6.5,7.7c0,4.3-3.5,7.8-7.8,7.8c-3.2,0-6.2-2-7.3-5.1c0.4-0.6,0.6-1.3,0.6-2C-412.7,216-413.1,215.1-413.6,214.5z
	 M-419.8,208.1c1.1,2.3,3.2,3.9,5.6,4.5c-0.1,0.4-0.3,0.7-0.4,1c-0.5-0.2-1.2-0.4-1.8-0.4c-2,0-3.7,1.6-3.7,3.7c0,2,1.6,3.7,3.7,3.7
	c0.9,0,1.6-0.3,2.2-0.7c1.5,3.2,4.6,5.2,8.2,5.2c4.9,0,9-4,9-9c0-4.3-3-7.9-7.1-8.8c0.4-1,0.5-2,0.5-3c0-1.5-0.4-2.9-1-4.1
	c8.2,0.7,14.6,7.6,14.6,16c0,8.8-7.2,16-16,16s-16-7.3-16-16.2C-422,213.3-421.2,210.5-419.8,208.1z M-407.3,253.5
	c0-0.3-0.2-0.6-0.6-0.6h-14c-0.3,0-0.6,0.2-0.6,0.6c0,0.3,0.2,0.6,0.6,0.6h14.1C-407.6,254.1-407.3,253.8-407.3,253.5z
	 M-402.8,253.5c0-0.3-0.2-0.6-0.6-0.6h-2.3c-0.3,0-0.6,0.2-0.6,0.6c0,0.3,0.2,0.6,0.6,0.6h2.3C-403,254.1-402.8,253.8-402.8,253.5z
	 M-401.4,254.1h1.5c0.3,0,0.6-0.2,0.6-0.6c0-0.3-0.2-0.6-0.6-0.6h-1.5c-0.3,0-0.6,0.2-0.6,0.6S-401.7,254.1-401.4,254.1z
	 M-390,255.8h-14c-0.3,0-0.6,0.2-0.6,0.6c0,0.3,0.2,0.6,0.6,0.6h14.1c0.3,0,0.6-0.2,0.6-0.6C-389.4,256-389.7,255.8-390,255.8z
	 M-406.3,255.8h-2.3c-0.3,0-0.6,0.2-0.6,0.6c0,0.3,0.2,0.6,0.6,0.6h2.3c0.3,0,0.6-0.2,0.6-0.6C-405.8,256-406,255.8-406.3,255.8z
	 M-410.6,255.8h-1.5c-0.3,0-0.6,0.2-0.6,0.6c0,0.3,0.2,0.6,0.6,0.6h1.5c0.3,0,0.6-0.2,0.6-0.6S-410.3,255.8-410.6,255.8z"/>
</svg>
