<?xml version="1.0" encoding="utf-8"?>
<!-- Generator: Adobe Illustrator 19.0.0, SVG Export Plug-In . SVG Version: 6.00 Build 0)  -->
<svg version="1.1" id="Layer_1" transform="matrix(.69 0 0 .69 15.5 15.5)"
	 xmlns="http://www.w3.org/2000/svg" xmlns:xlink="http://www.w3.org/1999/xlink" x="0px" y="0px" viewBox="-456 165 100 100"
	 style="enable-background:new -456 165 100 100;" xml:space="preserve">
<style type="text/css">
	.st0{fill:#F78620;}
</style>
<path class="st0" d="M-422,255.2h14.1c0.3,0,0.6-0.2,0.6-0.6c0-0.3-0.2-0.6-0.6-0.6H-422c-0.3,0-0.6,0.2-0.6,0.6
	C-422.6,255-422.3,255.2-422,255.2z M-405.7,255.2h2.3c0.3,0,0.6-0.2,0.6-0.6c0-0.3-0.2-0.6-0.6-0.6h-2.3c-0.3,0-0.6,0.2-0.6,0.6
	C-406.2,255-406,255.2-405.7,255.2z M-401.4,255.2h1.5c0.3,0,0.6-0.2,0.6-0.6c0-0.3-0.2-0.6-0.6-0.6h-1.5c-0.3,0-0.6,0.2-0.6,0.6
	C-401.9,255-401.7,255.2-401.4,255.2z M-404.7,257.5c0,0.3,0.2,0.6,0.6,0.6h14.1c0.3,0,0.6-0.2,0.6-0.6c0-0.3-0.2-0.6-0.6-0.6H-404
	C-404.4,256.9-404.7,257.2-404.7,257.5z M-409.2,257.5c0,0.3,0.2,0.6,0.6,0.6h2.3c0.3,0,0.6-0.2,0.6-0.6c0-0.3-0.2-0.6-0.6-0.6h-2.3
	C-409,256.9-409.2,257.2-409.2,257.5z M-410.6,256.9h-1.5c-0.3,0-0.6,0.2-0.6,0.6c0,0.3,0.2,0.6,0.6,0.6h1.5c0.3,0,0.6-0.2,0.6-0.6
	C-410.1,257.2-410.3,256.9-410.6,256.9z"/>
<path class="st0" d="M-363.6,237.9c3.2-6.5,4.8-13.4,4.8-20.7c0-7.3-1.6-14.2-4.8-20.6v-12.7c0-4.5-3.6-8-8-8
	c-0.3,0-0.6,0.2-0.6,0.6v7.9c-6.3-6.5-14.2-11-23-13c-2.1-3-5.5-5.2-9.3-5.6s-7.4,0.7-10.2,3.3c-0.8,0.7-1.5,1.5-2,2.3
	c-8.8,2.1-16.7,6.5-23,13v-7.9c0-0.3-0.2-0.6-0.6-0.6c-4.5,0-8,3.6-8,8v12.7c-3.2,6.5-4.8,13.4-4.8,20.6c0,7.3,1.6,14.2,4.8,20.7
	v5.2c0,4.5,3.6,8,8,8h1.6c8.9,8.5,20.5,13.2,32.9,13.2s24-4.7,32.8-13.3h1.6c4.5,0,8-3.6,8-8V237.9z M-360,217.2
	c0,6.2-1.2,12.2-3.6,17.8v-35.6C-361.2,205-360,211-360,217.2z M-364.7,183.8v55.1c-1.3-2.1-3.6-3.7-6.3-3.8v-58
	C-367.5,177.3-364.7,180.2-364.7,183.8z M-372.5,185.7h-22.4c1.6-2.5,2.3-5.4,2-8.4c-0.2-1.6-0.7-3.2-1.4-4.6
	C-386,174.9-378.4,179.3-372.5,185.7z M-414,169.8c2.6-2.3,5.9-3.4,9.3-3c5.5,0.6,9.9,5.1,10.5,10.5c0.4,3.6-0.8,7.1-3.3,9.7
	c-2.6,2.7-4.1,6.1-4.3,9.7h-2v-11.6h1.2c1.3,0,2.4-1,2.4-2.4c0-1.3-1-2.4-2.4-2.4c-1.3,0-2.4,1-2.4,2.4v1.2h-2.2v-1.2
	c0-1.3-1-2.4-2.4-2.4c-1.3,0-2.4,1-2.4,2.4c0,1.3,1,2.4,2.4,2.4h1.2v11.6h-2c-0.2-3.7-1.6-7.1-4.1-9.5c-2.3-2.3-3.5-5.3-3.5-8.5
	C-418,175.4-416.5,172.1-414,169.8z M-411.1,237.4v-5.1h10.1v10.1h-10.1C-411.1,242.5-411.1,237.4-411.1,237.4z M-406,222.8
	l-4.8-4.8l4.8-4.8l4.8,4.8C-401.2,218-406,222.8-406,222.8z M-411.7,204.2c-0.3,0-0.6-0.2-0.6-0.6v-0.7h12.5v0.7
	c0,0.3-0.2,0.6-0.6,0.6C-400.4,204.2-411.7,204.2-411.7,204.2z M-399.7,201.7h-12.6v-1.3h12.5L-399.7,201.7L-399.7,201.7z
	 M-399.7,199.2h-12.6v-0.7c0-0.3,0.2-0.6,0.6-0.6h11.3c0.3,0,0.6,0.2,0.6,0.6C-399.7,198.5-399.7,199.2-399.7,199.2z M-408.3,184
	h-1.2c-0.7,0-1.2-0.5-1.2-1.2s0.5-1.2,1.2-1.2c0.7,0,1.2,0.5,1.2,1.2V184z M-404.9,196.8h-2.2v-11.6h2.2
	C-404.9,185.1-404.9,196.8-404.9,196.8z M-403.7,184v-1.2c0-0.7,0.5-1.2,1.2-1.2c0.7,0,1.2,0.5,1.2,1.2s-0.5,1.2-1.2,1.2H-403.7z
	 M-417.6,172.7c-1,1.8-1.5,3.9-1.5,6c0,2.5,0.7,4.9,2,7h-22.4C-433.6,179.3-426.1,174.9-417.6,172.7z M-441,177v58
	c-2.7,0.2-5,1.7-6.3,3.8v-55.1C-447.3,180.2-444.5,177.3-441,177z M-452,217.2c0-6.2,1.2-12.2,3.6-17.8v35.7
	C-450.8,229.4-452,223.4-452,217.2z M-406,263.2c-11.6,0-22.6-4.3-31.1-12.1h62.2C-383.4,258.9-394.4,263.2-406,263.2z
	 M-371.6,249.9h-68.8c-3.8,0-6.9-3.1-6.9-6.9s3.1-6.8,6.9-6.8c0.3,0,0.6-0.2,0.6-0.6v-48.7h23.5c0.3,0.4,0.7,0.8,1,1.2
	c2.3,2.2,3.6,5.4,3.8,8.7h-0.2c-1,0-1.8,0.8-1.8,1.8v5.1c0,1,0.8,1.8,1.8,1.8h5v6.7l-5.3,5.3h-6.3c-0.3-3.2-3-5.7-6.2-5.7
	c-3.4,0-6.2,2.8-6.2,6.2c0,3.4,2.8,6.2,6.2,6.2c3.2,0,5.9-2.5,6.2-5.7h6.4l5.3,5.3v7.3h-5.1c-0.3,0-0.6,0.2-0.6,0.6v5.1h-6
	c-0.3-3.2-3-5.7-6.2-5.7c-3.4,0-6.2,2.8-6.2,6.2c0,3.4,2.8,6.3,6.2,6.3c3.2,0,5.9-2.5,6.2-5.7h6v5.1c0,0.3,0.2,0.6,0.6,0.6h11.3
	c0.3,0,0.6-0.2,0.6-0.6v-11.3c0-0.3-0.2-0.6-0.6-0.6h-5.1v-7.3l5.3-5.3h6.3v5.1c0,0.3,0.2,0.6,0.6,0.6h5.1v7c-3.2,0.3-5.7,3-5.7,6.2
	c0,3.4,2.8,6.2,6.2,6.2c3.4,0,6.2-2.8,6.2-6.2c0-3.2-2.5-5.9-5.7-6.2v-7h5.1c0.3,0,0.6-0.2,0.6-0.6v-11.3c0-0.3-0.2-0.6-0.6-0.6
	h-11.3c-0.3,0-0.6,0.2-0.6,0.6v5.1h-6.3l-5.3-5.3v-6.7h5.1c1,0,1.8-0.8,1.8-1.8v-5.1c0-1-0.8-1.8-1.8-1.8h-0.2
	c0.2-3.2,1.5-6.3,4-8.8c0.3-0.3,0.6-0.7,0.9-1h23.5v48.7c0,0.3,0.2,0.6,0.6,0.6c3.8,0,6.8,3,6.9,6.8
	C-364.7,246.9-367.8,249.9-371.6,249.9z M-419.4,218c0,2.8-2.3,5.1-5.1,5.1s-5.1-2.3-5.1-5.1s2.3-5.1,5.1-5.1
	S-419.4,215.2-419.4,218z M-419.4,237.4c0,2.8-2.3,5.1-5.1,5.1s-5.1-2.3-5.1-5.1c0-2.8,2.3-5.1,5.1-5.1S-419.4,234.6-419.4,237.4z
	 M-387.5,232.4c2.8,0,5.1,2.3,5.1,5.1s-2.3,5.1-5.1,5.1s-5.1-2.3-5.1-5.1C-392.6,234.6-390.3,232.4-387.5,232.4z M-392.6,223v-10.1
	h10.1V223H-392.6z"/>
</svg>
